# Tiled2Unity generated file. Do not modify by hand.
# Wavefront file for 'TheWorld.R03_mesh_0003.obj'

# Vertices (Count = 704)
v -22 -1 0
v -23 -1 0
v -23 0 0
v -22 0 0
v -21 -1 0
v -22 -1 0
v -22 0 0
v -21 0 0
v -20 -1 0
v -21 -1 0
v -21 0 0
v -20 0 0
v -19 -1 0
v -20 -1 0
v -20 0 0
v -19 0 0
v -18 -1 0
v -19 -1 0
v -19 0 0
v -18 0 0
v -17 -1 0
v -18 -1 0
v -18 0 0
v -17 0 0
v -16 -1 0
v -17 -1 0
v -17 0 0
v -16 0 0
v -15 -1 0
v -16 -1 0
v -16 0 0
v -15 0 0
v -14 -1 0
v -15 -1 0
v -15 0 0
v -14 0 0
v -13 -1 0
v -14 -1 0
v -14 0 0
v -13 0 0
v -12 -1 0
v -13 -1 0
v -13 0 0
v -12 0 0
v -11 -1 0
v -12 -1 0
v -12 0 0
v -11 0 0
v -10 -1 0
v -11 -1 0
v -11 0 0
v -10 0 0
v -9 -1 0
v -10 -1 0
v -10 0 0
v -9 0 0
v -8 -1 0
v -9 -1 0
v -9 0 0
v -8 0 0
v -7 -1 0
v -8 -1 0
v -8 0 0
v -7 0 0
v -6 -1 0
v -7 -1 0
v -7 0 0
v -6 0 0
v -5 -1 0
v -6 -1 0
v -6 0 0
v -5 0 0
v -4 -1 0
v -5 -1 0
v -5 0 0
v -4 0 0
v -3 -1 0
v -4 -1 0
v -4 0 0
v -3 0 0
v -2 -1 0
v -3 -1 0
v -3 0 0
v -2 0 0
v -1 -1 0
v -2 -1 0
v -2 0 0
v -1 0 0
v 0 -1 0
v -1 -1 0
v -1 0 0
v 0 0 0
v -22 -2 0
v -23 -2 0
v -23 -1 0
v -22 -1 0
v -21 -2 0
v -22 -2 0
v -22 -1 0
v -21 -1 0
v -20 -2 0
v -21 -2 0
v -21 -1 0
v -20 -1 0
v -19 -2 0
v -20 -2 0
v -20 -1 0
v -19 -1 0
v -18 -2 0
v -19 -2 0
v -19 -1 0
v -18 -1 0
v -17 -2 0
v -18 -2 0
v -18 -1 0
v -17 -1 0
v -16 -2 0
v -17 -2 0
v -17 -1 0
v -16 -1 0
v -15 -2 0
v -16 -2 0
v -16 -1 0
v -15 -1 0
v -14 -2 0
v -15 -2 0
v -15 -1 0
v -14 -1 0
v -13 -2 0
v -14 -2 0
v -14 -1 0
v -13 -1 0
v -12 -2 0
v -13 -2 0
v -13 -1 0
v -12 -1 0
v -11 -2 0
v -12 -2 0
v -12 -1 0
v -11 -1 0
v -10 -2 0
v -11 -2 0
v -11 -1 0
v -10 -1 0
v -9 -2 0
v -10 -2 0
v -10 -1 0
v -9 -1 0
v -8 -2 0
v -9 -2 0
v -9 -1 0
v -8 -1 0
v -7 -2 0
v -8 -2 0
v -8 -1 0
v -7 -1 0
v -6 -2 0
v -7 -2 0
v -7 -1 0
v -6 -1 0
v -5 -2 0
v -6 -2 0
v -6 -1 0
v -5 -1 0
v -4 -2 0
v -5 -2 0
v -5 -1 0
v -4 -1 0
v -3 -2 0
v -4 -2 0
v -4 -1 0
v -3 -1 0
v -2 -2 0
v -3 -2 0
v -3 -1 0
v -2 -1 0
v -1 -2 0
v -2 -2 0
v -2 -1 0
v -1 -1 0
v 0 -2 0
v -1 -2 0
v -1 -1 0
v 0 -1 0
v -24 -3 0
v -25 -3 0
v -25 -2 0
v -24 -2 0
v -23 -3 0
v -24 -3 0
v -24 -2 0
v -23 -2 0
v -22 -3 0
v -23 -3 0
v -23 -2 0
v -22 -2 0
v -21 -3 0
v -22 -3 0
v -22 -2 0
v -21 -2 0
v -20 -3 0
v -21 -3 0
v -21 -2 0
v -20 -2 0
v -19 -3 0
v -20 -3 0
v -20 -2 0
v -19 -2 0
v -18 -3 0
v -19 -3 0
v -19 -2 0
v -18 -2 0
v -17 -3 0
v -18 -3 0
v -18 -2 0
v -17 -2 0
v -16 -3 0
v -17 -3 0
v -17 -2 0
v -16 -2 0
v -15 -3 0
v -16 -3 0
v -16 -2 0
v -15 -2 0
v -14 -3 0
v -15 -3 0
v -15 -2 0
v -14 -2 0
v -13 -3 0
v -14 -3 0
v -14 -2 0
v -13 -2 0
v -12 -3 0
v -13 -3 0
v -13 -2 0
v -12 -2 0
v -11 -3 0
v -12 -3 0
v -12 -2 0
v -11 -2 0
v -10 -3 0
v -11 -3 0
v -11 -2 0
v -10 -2 0
v -9 -3 0
v -10 -3 0
v -10 -2 0
v -9 -2 0
v -8 -3 0
v -9 -3 0
v -9 -2 0
v -8 -2 0
v -7 -3 0
v -8 -3 0
v -8 -2 0
v -7 -2 0
v -6 -3 0
v -7 -3 0
v -7 -2 0
v -6 -2 0
v -5 -3 0
v -6 -3 0
v -6 -2 0
v -5 -2 0
v -4 -3 0
v -5 -3 0
v -5 -2 0
v -4 -2 0
v -3 -3 0
v -4 -3 0
v -4 -2 0
v -3 -2 0
v -2 -3 0
v -3 -3 0
v -3 -2 0
v -2 -2 0
v -1 -3 0
v -2 -3 0
v -2 -2 0
v -1 -2 0
v 0 -3 0
v -1 -3 0
v -1 -2 0
v 0 -2 0
v -24 -4 0
v -25 -4 0
v -25 -3 0
v -24 -3 0
v -23 -4 0
v -24 -4 0
v -24 -3 0
v -23 -3 0
v -22 -4 0
v -23 -4 0
v -23 -3 0
v -22 -3 0
v -21 -4 0
v -22 -4 0
v -22 -3 0
v -21 -3 0
v -20 -4 0
v -21 -4 0
v -21 -3 0
v -20 -3 0
v -19 -4 0
v -20 -4 0
v -20 -3 0
v -19 -3 0
v -18 -4 0
v -19 -4 0
v -19 -3 0
v -18 -3 0
v -17 -4 0
v -18 -4 0
v -18 -3 0
v -17 -3 0
v -16 -4 0
v -17 -4 0
v -17 -3 0
v -16 -3 0
v -15 -4 0
v -16 -4 0
v -16 -3 0
v -15 -3 0
v -14 -4 0
v -15 -4 0
v -15 -3 0
v -14 -3 0
v -13 -4 0
v -14 -4 0
v -14 -3 0
v -13 -3 0
v -12 -4 0
v -13 -4 0
v -13 -3 0
v -12 -3 0
v -11 -4 0
v -12 -4 0
v -12 -3 0
v -11 -3 0
v -10 -4 0
v -11 -4 0
v -11 -3 0
v -10 -3 0
v -9 -4 0
v -10 -4 0
v -10 -3 0
v -9 -3 0
v -8 -4 0
v -9 -4 0
v -9 -3 0
v -8 -3 0
v -7 -4 0
v -8 -4 0
v -8 -3 0
v -7 -3 0
v -6 -4 0
v -7 -4 0
v -7 -3 0
v -6 -3 0
v -5 -4 0
v -6 -4 0
v -6 -3 0
v -5 -3 0
v -4 -4 0
v -5 -4 0
v -5 -3 0
v -4 -3 0
v -3 -4 0
v -4 -4 0
v -4 -3 0
v -3 -3 0
v -2 -4 0
v -3 -4 0
v -3 -3 0
v -2 -3 0
v -1 -4 0
v -2 -4 0
v -2 -3 0
v -1 -3 0
v 0 -4 0
v -1 -4 0
v -1 -3 0
v 0 -3 0
v -24 -5 0
v -25 -5 0
v -25 -4 0
v -24 -4 0
v -23 -5 0
v -24 -5 0
v -24 -4 0
v -23 -4 0
v -22 -5 0
v -23 -5 0
v -23 -4 0
v -22 -4 0
v -10 -5 0
v -11 -5 0
v -11 -4 0
v -10 -4 0
v -24 -6 0
v -25 -6 0
v -25 -5 0
v -24 -5 0
v -23 -6 0
v -24 -6 0
v -24 -5 0
v -23 -5 0
v -22 -6 0
v -23 -6 0
v -23 -5 0
v -22 -5 0
v -21 -6 0
v -22 -6 0
v -22 -5 0
v -21 -5 0
v -17 -6 0
v -18 -6 0
v -18 -5 0
v -17 -5 0
v -16 -6 0
v -17 -6 0
v -17 -5 0
v -16 -5 0
v -23 -7 0
v -24 -7 0
v -24 -6 0
v -23 -6 0
v -10 -7 0
v -11 -7 0
v -11 -6 0
v -10 -6 0
v -5 -8 0
v -6 -8 0
v -6 -7 0
v -5 -7 0
v 0 -8 0
v -1 -8 0
v -1 -7 0
v 0 -7 0
v -23 -9 0
v -24 -9 0
v -24 -8 0
v -23 -8 0
v -8 -9 0
v -9 -9 0
v -9 -8 0
v -8 -8 0
v 0 -9 0
v -1 -9 0
v -1 -8 0
v 0 -8 0
v 0 -10 0
v -1 -10 0
v -1 -9 0
v 0 -9 0
v -14 -11 0
v -15 -11 0
v -15 -10 0
v -14 -10 0
v -10 -11 0
v -11 -11 0
v -11 -10 0
v -10 -10 0
v 0 -11 0
v -1 -11 0
v -1 -10 0
v 0 -10 0
v -23 -12 0
v -24 -12 0
v -24 -11 0
v -23 -11 0
v -3 -12 0
v -4 -12 0
v -4 -11 0
v -3 -11 0
v 0 -12 0
v -1 -12 0
v -1 -11 0
v 0 -11 0
v -24 -13 0
v -25 -13 0
v -25 -12 0
v -24 -12 0
v -21 -13 0
v -22 -13 0
v -22 -12 0
v -21 -12 0
v -8 -13 0
v -9 -13 0
v -9 -12 0
v -8 -12 0
v 0 -13 0
v -1 -13 0
v -1 -12 0
v 0 -12 0
v -24 -14 0
v -25 -14 0
v -25 -13 0
v -24 -13 0
v 0 -14 0
v -1 -14 0
v -1 -13 0
v 0 -13 0
v -24 -15 0
v -25 -15 0
v -25 -14 0
v -24 -14 0
v -15 -15 0
v -16 -15 0
v -16 -14 0
v -15 -14 0
v 0 -15 0
v -1 -15 0
v -1 -14 0
v 0 -14 0
v -24 -16 0
v -25 -16 0
v -25 -15 0
v -24 -15 0
v 0 -16 0
v -1 -16 0
v -1 -15 0
v 0 -15 0
v -24 -17 0
v -25 -17 0
v -25 -16 0
v -24 -16 0
v 0 -17 0
v -1 -17 0
v -1 -16 0
v 0 -16 0
v -24 -18 0
v -25 -18 0
v -25 -17 0
v -24 -17 0
v 0 -18 0
v -1 -18 0
v -1 -17 0
v 0 -17 0
v -24 -19 0
v -25 -19 0
v -25 -18 0
v -24 -18 0
v -2 -19 0
v -3 -19 0
v -3 -18 0
v -2 -18 0
v 0 -19 0
v -1 -19 0
v -1 -18 0
v 0 -18 0
v -24 -20 0
v -25 -20 0
v -25 -19 0
v -24 -19 0
v -14 -20 0
v -15 -20 0
v -15 -19 0
v -14 -19 0
v 0 -20 0
v -1 -20 0
v -1 -19 0
v 0 -19 0
v -24 -21 0
v -25 -21 0
v -25 -20 0
v -24 -20 0
v 0 -21 0
v -1 -21 0
v -1 -20 0
v 0 -20 0
v -24 -22 0
v -25 -22 0
v -25 -21 0
v -24 -21 0
v 0 -22 0
v -1 -22 0
v -1 -21 0
v 0 -21 0
v -24 -23 0
v -25 -23 0
v -25 -22 0
v -24 -22 0
v -9 -23 0
v -10 -23 0
v -10 -22 0
v -9 -22 0
v -1 -23 0
v -2 -23 0
v -2 -22 0
v -1 -22 0
v 0 -23 0
v -1 -23 0
v -1 -22 0
v 0 -22 0
v -24 -24 0
v -25 -24 0
v -25 -23 0
v -24 -23 0
v -2 -24 0
v -3 -24 0
v -3 -23 0
v -2 -23 0
v -1 -24 0
v -2 -24 0
v -2 -23 0
v -1 -23 0
v 0 -24 0
v -1 -24 0
v -1 -23 0
v 0 -23 0
v -24 -25 0
v -25 -25 0
v -25 -24 0
v -24 -24 0
v -23 -25 0
v -24 -25 0
v -24 -24 0
v -23 -24 0
v -22 -25 0
v -23 -25 0
v -23 -24 0
v -22 -24 0
v -21 -25 0
v -22 -25 0
v -22 -24 0
v -21 -24 0
v -20 -25 0
v -21 -25 0
v -21 -24 0
v -20 -24 0
v -19 -25 0
v -20 -25 0
v -20 -24 0
v -19 -24 0
v -18 -25 0
v -19 -25 0
v -19 -24 0
v -18 -24 0
v -17 -25 0
v -18 -25 0
v -18 -24 0
v -17 -24 0
v -16 -25 0
v -17 -25 0
v -17 -24 0
v -16 -24 0
v -13 -25 0
v -14 -25 0
v -14 -24 0
v -13 -24 0
v -12 -25 0
v -13 -25 0
v -13 -24 0
v -12 -24 0
v -11 -25 0
v -12 -25 0
v -12 -24 0
v -11 -24 0
v -10 -25 0
v -11 -25 0
v -11 -24 0
v -10 -24 0
v -9 -25 0
v -10 -25 0
v -10 -24 0
v -9 -24 0
v -8 -25 0
v -9 -25 0
v -9 -24 0
v -8 -24 0
v -7 -25 0
v -8 -25 0
v -8 -24 0
v -7 -24 0
v -6 -25 0
v -7 -25 0
v -7 -24 0
v -6 -24 0
v -5 -25 0
v -6 -25 0
v -6 -24 0
v -5 -24 0
v -4 -25 0
v -5 -25 0
v -5 -24 0
v -4 -24 0
v -3 -25 0
v -4 -25 0
v -4 -24 0
v -3 -24 0
v -2 -25 0
v -3 -25 0
v -3 -24 0
v -2 -24 0
v -1 -25 0
v -2 -25 0
v -2 -24 0
v -1 -24 0
v 0 -25 0
v -1 -25 0
v -1 -24 0
v 0 -24 0

# Texture cooridinates (Count = 81)
vt 0.025 0.7222222
vt 0.05 0.7222222
vt 0.05 0.75
vt 0.025 0.75
vt 0.125 0.6666666
vt 0.15 0.6666666
vt 0.15 0.6944444
vt 0.125 0.6944444
vt 0.1 0.6666666
vt 0.1 0.6944444
vt 0.125 0.7222222
vt 0.1 0.7222222
vt 0.125 0.6388889
vt 0.15 0.6388889
vt 0.1 0.6388889
vt 0.125 0.6111111
vt 0.15 0.6111111
vt 0.175 0.6666666
vt 0.2 0.6666666
vt 0.2 0.6944444
vt 0.175 0.6944444
vt 0.1 0.6111111
vt 0.125 0.5833334
vt 0.15 0.5833334
vt 0.2 0.4444444
vt 0.225 0.4444444
vt 0.225 0.4722222
vt 0.2 0.4722222
vt 0.1 0.4166667
vt 0.125 0.4166667
vt 0.125 0.4444444
vt 0.1 0.4444444
vt 0.225 0.5
vt 0.2 0.5
vt 0.175 0.6388889
vt 0.2 0.6388889
vt 0.1 0.5833334
vt 0.325 0.6944444
vt 0.35 0.6944444
vt 0.35 0.7222222
vt 0.325 0.7222222
vt 0.275 0.5555556
vt 0.3 0.5555556
vt 0.3 0.5833334
vt 0.275 0.5833334
vt 0 0.75
vt 0.025 0.7777778
vt 0 0.7777778
vt 0.125 0.9722222
vt 0.15 0.9722222
vt 0.15 1
vt 0.125 1
vt 0.05 0.9722222
vt 0.075 0.9722222
vt 0.075 1
vt 0.05 1
vt 0.05 0.7777778
vt 0.15 0.5277778
vt 0.175 0.5277778
vt 0.175 0.5555556
vt 0.15 0.5555556
vt 0.3 0.6944444
vt 0.3 0.7222222
vt 0.375 0.6944444
vt 0.375 0.7222222
vt 0.175 0.4722222
vt 0.175 0.5
vt 0.275 0.6944444
vt 0.275 0.7222222
vt 0.125 0.5277778
vt 0.125 0.5555556
vt 0.15 0.4722222
vt 0.15 0.5
vt 0.1 0.5277778
vt 0.1 0.5555556
vt 0.05 0.5277778
vt 0.075 0.5277778
vt 0.075 0.5555556
vt 0.05 0.5555556
vt 0.125 0.4722222
vt 0.125 0.5

# Normal
vn 0 0 -1

# Mesh description
g TheWorld.R03_mesh_0003

# Faces
f 1/1/1 2/2/1 3/3/1 4/4/1
f 5/5/1 6/6/1 7/7/1 8/8/1
f 9/5/1 10/6/1 11/7/1 12/8/1
f 13/5/1 14/6/1 15/7/1 16/8/1
f 17/5/1 18/6/1 19/7/1 20/8/1
f 21/5/1 22/6/1 23/7/1 24/8/1
f 25/5/1 26/6/1 27/7/1 28/8/1
f 29/5/1 30/6/1 31/7/1 32/8/1
f 33/5/1 34/6/1 35/7/1 36/8/1
f 37/5/1 38/6/1 39/7/1 40/8/1
f 41/5/1 42/6/1 43/7/1 44/8/1
f 45/5/1 46/6/1 47/7/1 48/8/1
f 49/5/1 50/6/1 51/7/1 52/8/1
f 53/5/1 54/6/1 55/7/1 56/8/1
f 57/5/1 58/6/1 59/7/1 60/8/1
f 61/5/1 62/6/1 63/7/1 64/8/1
f 65/5/1 66/6/1 67/7/1 68/8/1
f 69/5/1 70/6/1 71/7/1 72/8/1
f 73/5/1 74/6/1 75/7/1 76/8/1
f 77/5/1 78/6/1 79/7/1 80/8/1
f 81/5/1 82/6/1 83/7/1 84/8/1
f 85/5/1 86/6/1 87/7/1 88/8/1
f 89/9/1 90/5/1 91/8/1 92/10/1
f 93/10/1 94/8/1 95/11/1 96/12/1
f 97/13/1 98/14/1 99/6/1 100/5/1
f 101/13/1 102/14/1 103/6/1 104/5/1
f 105/13/1 106/14/1 107/6/1 108/5/1
f 109/13/1 110/14/1 111/6/1 112/5/1
f 113/13/1 114/14/1 115/6/1 116/5/1
f 117/13/1 118/14/1 119/6/1 120/5/1
f 121/13/1 122/14/1 123/6/1 124/5/1
f 125/13/1 126/14/1 127/6/1 128/5/1
f 129/13/1 130/14/1 131/6/1 132/5/1
f 133/13/1 134/14/1 135/6/1 136/5/1
f 137/13/1 138/14/1 139/6/1 140/5/1
f 141/13/1 142/14/1 143/6/1 144/5/1
f 145/13/1 146/14/1 147/6/1 148/5/1
f 149/13/1 150/14/1 151/6/1 152/5/1
f 153/13/1 154/14/1 155/6/1 156/5/1
f 157/13/1 158/14/1 159/6/1 160/5/1
f 161/13/1 162/14/1 163/6/1 164/5/1
f 165/13/1 166/14/1 167/6/1 168/5/1
f 169/13/1 170/14/1 171/6/1 172/5/1
f 173/13/1 174/14/1 175/6/1 176/5/1
f 177/13/1 178/14/1 179/6/1 180/5/1
f 181/15/1 182/13/1 183/5/1 184/9/1
f 185/5/1 186/6/1 187/7/1 188/8/1
f 189/5/1 190/6/1 191/7/1 192/8/1
f 193/9/1 194/5/1 195/8/1 196/10/1
f 197/16/1 198/17/1 199/14/1 200/13/1
f 201/16/1 202/17/1 203/14/1 204/13/1
f 205/16/1 206/17/1 207/14/1 208/13/1
f 209/16/1 210/17/1 211/14/1 212/13/1
f 213/16/1 214/17/1 215/14/1 216/13/1
f 217/16/1 218/17/1 219/14/1 220/13/1
f 221/16/1 222/17/1 223/14/1 224/13/1
f 225/16/1 226/17/1 227/14/1 228/13/1
f 229/16/1 230/17/1 231/14/1 232/13/1
f 233/16/1 234/17/1 235/14/1 236/13/1
f 237/16/1 238/17/1 239/14/1 240/13/1
f 241/16/1 242/17/1 243/14/1 244/13/1
f 245/16/1 246/17/1 247/14/1 248/13/1
f 249/16/1 250/17/1 251/14/1 252/13/1
f 253/16/1 254/17/1 255/14/1 256/13/1
f 257/16/1 258/17/1 259/14/1 260/13/1
f 261/16/1 262/17/1 263/14/1 264/13/1
f 265/16/1 266/17/1 267/14/1 268/13/1
f 269/16/1 270/17/1 271/14/1 272/13/1
f 273/18/1 274/19/1 275/20/1 276/21/1
f 277/16/1 278/17/1 279/14/1 280/13/1
f 281/22/1 282/16/1 283/13/1 284/15/1
f 285/13/1 286/14/1 287/6/1 288/5/1
f 289/13/1 290/14/1 291/6/1 292/5/1
f 293/15/1 294/13/1 295/5/1 296/9/1
f 297/23/1 298/24/1 299/17/1 300/16/1
f 301/23/1 302/24/1 303/17/1 304/16/1
f 305/23/1 306/24/1 307/17/1 308/16/1
f 309/23/1 310/24/1 311/17/1 312/16/1
f 313/23/1 314/24/1 315/17/1 316/16/1
f 317/23/1 318/24/1 319/17/1 320/16/1
f 321/23/1 322/24/1 323/17/1 324/16/1
f 325/25/1 326/26/1 327/27/1 328/28/1
f 329/29/1 330/30/1 331/31/1 332/32/1
f 333/29/1 334/30/1 335/31/1 336/32/1
f 337/29/1 338/30/1 339/31/1 340/32/1
f 341/29/1 342/30/1 343/31/1 344/32/1
f 345/29/1 346/30/1 347/31/1 348/32/1
f 349/28/1 350/27/1 351/33/1 352/34/1
f 353/23/1 354/24/1 355/17/1 356/16/1
f 357/23/1 358/24/1 359/17/1 360/16/1
f 361/23/1 362/24/1 363/17/1 364/16/1
f 365/23/1 366/24/1 367/17/1 368/16/1
f 369/23/1 370/24/1 371/17/1 372/16/1
f 373/35/1 374/36/1 375/19/1 376/18/1
f 377/23/1 378/24/1 379/17/1 380/16/1
f 381/37/1 382/23/1 383/16/1 384/22/1
f 385/16/1 386/17/1 387/14/1 388/13/1
f 389/16/1 390/17/1 391/14/1 392/13/1
f 393/22/1 394/16/1 395/13/1 396/15/1
f 397/38/1 398/39/1 399/40/1 400/41/1
f 401/29/1 402/30/1 403/31/1 404/32/1
f 405/29/1 406/30/1 407/31/1 408/32/1
f 409/42/1 410/43/1 411/44/1 412/45/1
f 413/46/1 414/4/1 415/47/1 416/48/1
f 417/46/1 418/4/1 419/47/1 420/48/1
f 421/46/1 422/4/1 423/47/1 424/48/1
f 425/49/1 426/50/1 427/51/1 428/52/1
f 429/53/1 430/54/1 431/55/1 432/56/1
f 433/4/1 434/3/1 435/57/1 436/47/1
f 437/58/1 438/59/1 439/60/1 440/61/1
f 441/62/1 442/38/1 443/41/1 444/63/1
f 445/39/1 446/64/1 447/65/1 448/40/1
f 449/66/1 450/28/1 451/34/1 452/67/1
f 453/66/1 454/28/1 455/34/1 456/67/1
f 457/68/1 458/62/1 459/63/1 460/69/1
f 461/53/1 462/54/1 463/55/1 464/56/1
f 465/66/1 466/28/1 467/34/1 468/67/1
f 469/46/1 470/4/1 471/47/1 472/48/1
f 473/4/1 474/3/1 475/57/1 476/47/1
f 477/66/1 478/28/1 479/34/1 480/67/1
f 481/70/1 482/58/1 483/61/1 484/71/1
f 485/46/1 486/4/1 487/47/1 488/48/1
f 489/49/1 490/50/1 491/51/1 492/52/1
f 493/66/1 494/28/1 495/34/1 496/67/1
f 497/72/1 498/66/1 499/67/1 500/73/1
f 501/66/1 502/28/1 503/34/1 504/67/1
f 505/72/1 506/66/1 507/67/1 508/73/1
f 509/49/1 510/50/1 511/51/1 512/52/1
f 513/66/1 514/28/1 515/34/1 516/67/1
f 517/72/1 518/66/1 519/67/1 520/73/1
f 521/66/1 522/28/1 523/34/1 524/67/1
f 525/72/1 526/66/1 527/67/1 528/73/1
f 529/66/1 530/28/1 531/34/1 532/67/1
f 533/72/1 534/66/1 535/67/1 536/73/1
f 537/66/1 538/28/1 539/34/1 540/67/1
f 541/72/1 542/66/1 543/67/1 544/73/1
f 545/4/1 546/3/1 547/57/1 548/47/1
f 549/66/1 550/28/1 551/34/1 552/67/1
f 553/72/1 554/66/1 555/67/1 556/73/1
f 557/46/1 558/4/1 559/47/1 560/48/1
f 561/66/1 562/28/1 563/34/1 564/67/1
f 565/72/1 566/66/1 567/67/1 568/73/1
f 569/66/1 570/28/1 571/34/1 572/67/1
f 573/72/1 574/66/1 575/67/1 576/73/1
f 577/66/1 578/28/1 579/34/1 580/67/1
f 581/72/1 582/66/1 583/67/1 584/73/1
f 585/4/1 586/3/1 587/57/1 588/47/1
f 589/58/1 590/59/1 591/60/1 592/61/1
f 593/74/1 594/70/1 595/71/1 596/75/1
f 597/72/1 598/66/1 599/67/1 600/73/1
f 601/58/1 602/59/1 603/60/1 604/61/1
f 605/74/1 606/70/1 607/71/1 608/75/1
f 609/76/1 610/77/1 611/78/1 612/79/1
f 613/77/1 614/74/1 615/75/1 616/78/1
f 617/80/1 618/72/1 619/73/1 620/81/1
f 621/80/1 622/72/1 623/73/1 624/81/1
f 625/80/1 626/72/1 627/73/1 628/81/1
f 629/80/1 630/72/1 631/73/1 632/81/1
f 633/80/1 634/72/1 635/73/1 636/81/1
f 637/80/1 638/72/1 639/73/1 640/81/1
f 641/80/1 642/72/1 643/73/1 644/81/1
f 645/70/1 646/58/1 647/61/1 648/71/1
f 649/58/1 650/59/1 651/60/1 652/61/1
f 653/80/1 654/72/1 655/73/1 656/81/1
f 657/80/1 658/72/1 659/73/1 660/81/1
f 661/80/1 662/72/1 663/73/1 664/81/1
f 665/80/1 666/72/1 667/73/1 668/81/1
f 669/80/1 670/72/1 671/73/1 672/81/1
f 673/80/1 674/72/1 675/73/1 676/81/1
f 677/80/1 678/72/1 679/73/1 680/81/1
f 681/80/1 682/72/1 683/73/1 684/81/1
f 685/80/1 686/72/1 687/73/1 688/81/1
f 689/80/1 690/72/1 691/73/1 692/81/1
f 693/74/1 694/70/1 695/71/1 696/75/1
f 697/76/1 698/77/1 699/78/1 700/79/1
f 701/76/1 702/77/1 703/78/1 704/79/1

