# Tiled2Unity generated file. Do not modify by hand.
# Wavefront file for 'Dungeon.R04_mesh_0005.obj'

# Vertices (Count = 124)
v -14 -1 0
v -15 -1 0
v -15 0 0
v -14 0 0
v -13 -1 0
v -14 -1 0
v -14 0 0
v -13 0 0
v -12 -1 0
v -13 -1 0
v -13 0 0
v -12 0 0
v -11 -1 0
v -12 -1 0
v -12 0 0
v -11 0 0
v -10 -1 0
v -11 -1 0
v -11 0 0
v -10 0 0
v -9 -1 0
v -10 -1 0
v -10 0 0
v -9 0 0
v -8 -1 0
v -9 -1 0
v -9 0 0
v -8 0 0
v -4 -1 0
v -5 -1 0
v -5 0 0
v -4 0 0
v -3 -1 0
v -4 -1 0
v -4 0 0
v -3 0 0
v -2 -1 0
v -3 -1 0
v -3 0 0
v -2 0 0
v -1 -1 0
v -2 -1 0
v -2 0 0
v -1 0 0
v 0 -1 0
v -1 -1 0
v -1 0 0
v 0 0 0
v -14 -2 0
v -15 -2 0
v -15 -1 0
v -14 -1 0
v -13 -2 0
v -14 -2 0
v -14 -1 0
v -13 -1 0
v -12 -2 0
v -13 -2 0
v -13 -1 0
v -12 -1 0
v -11 -2 0
v -12 -2 0
v -12 -1 0
v -11 -1 0
v -10 -2 0
v -11 -2 0
v -11 -1 0
v -10 -1 0
v -9 -2 0
v -10 -2 0
v -10 -1 0
v -9 -1 0
v -8 -2 0
v -9 -2 0
v -9 -1 0
v -8 -1 0
v -4 -2 0
v -5 -2 0
v -5 -1 0
v -4 -1 0
v -3 -2 0
v -4 -2 0
v -4 -1 0
v -3 -1 0
v -2 -2 0
v -3 -2 0
v -3 -1 0
v -2 -1 0
v -1 -2 0
v -2 -2 0
v -2 -1 0
v -1 -1 0
v 0 -2 0
v -1 -2 0
v -1 -1 0
v 0 -1 0
v -3 -3 0
v -4 -3 0
v -4 -2 0
v -3 -2 0
v -7 -12 0
v -8 -12 0
v -8 -11 0
v -7 -11 0
v -6 -12 0
v -7 -12 0
v -7 -11 0
v -6 -11 0
v -5 -12 0
v -6 -12 0
v -6 -11 0
v -5 -11 0
v -7 -13 0
v -8 -13 0
v -8 -12 0
v -7 -12 0
v -6 -13 0
v -7 -13 0
v -7 -12 0
v -6 -12 0
v -5 -13 0
v -6 -13 0
v -6 -12 0
v -5 -12 0

# Texture cooridinates (Count = 23)
vt 0.125 0.9375
vt 0.1875 0.9375
vt 0.1875 1
vt 0.125 1
vt 0.0625 0.9375
vt 0.0625 1
vt 0.1875 0.75
vt 0.25 0.75
vt 0.25 0.8125
vt 0.1875 0.8125
vt 0 0.9375
vt 0 1
vt 0.125 0.875
vt 0.1875 0.875
vt 0.0625 0.875
vt 0.25 0.6875
vt 0.3125 0.6875
vt 0.3125 0.75
vt 0 0.875
vt 0.25 0.875
vt 0.25 0.9375
vt 0.3125 0.8125
vt 0.3125 0.875

# Normal
vn 0 0 -1

# Mesh description
g Dungeon.R04_mesh_0005

# Faces
f 1/1/1 2/2/1 3/3/1 4/4/1
f 5/5/1 6/1/1 7/4/1 8/6/1
f 9/5/1 10/1/1 11/4/1 12/6/1
f 13/7/1 14/8/1 15/9/1 16/10/1
f 17/5/1 18/1/1 19/4/1 20/6/1
f 21/5/1 22/1/1 23/4/1 24/6/1
f 25/11/1 26/5/1 27/6/1 28/12/1
f 29/1/1 30/2/1 31/3/1 32/4/1
f 33/5/1 34/1/1 35/4/1 36/6/1
f 37/5/1 38/1/1 39/4/1 40/6/1
f 41/11/1 42/5/1 43/6/1 44/12/1
f 45/5/1 46/1/1 47/4/1 48/6/1
f 49/13/1 50/14/1 51/2/1 52/1/1
f 53/15/1 54/13/1 55/1/1 56/5/1
f 57/15/1 58/13/1 59/1/1 60/5/1
f 61/16/1 62/17/1 63/18/1 64/8/1
f 65/15/1 66/13/1 67/1/1 68/5/1
f 69/15/1 70/13/1 71/1/1 72/5/1
f 73/19/1 74/15/1 75/5/1 76/11/1
f 77/13/1 78/14/1 79/2/1 80/1/1
f 81/14/1 82/20/1 83/21/1 84/2/1
f 85/15/1 86/13/1 87/1/1 88/5/1
f 89/9/1 90/22/1 91/23/1 92/20/1
f 93/15/1 94/13/1 95/1/1 96/5/1
f 97/10/1 98/9/1 99/20/1 100/14/1
f 101/1/1 102/2/1 103/3/1 104/4/1
f 105/5/1 106/1/1 107/4/1 108/6/1
f 109/11/1 110/5/1 111/6/1 112/12/1
f 113/13/1 114/14/1 115/2/1 116/1/1
f 117/15/1 118/13/1 119/1/1 120/5/1
f 121/19/1 122/15/1 123/5/1 124/11/1

