# Tiled2Unity generated file. Do not modify by hand.
# Wavefront file for 'Room-06_mesh_0005.obj'

# Vertices (Count = 620)
v -10 -2 0
v -11 -2 0
v -11 -1 0
v -10 -1 0
v -9 -2 0
v -10 -2 0
v -10 -1 0
v -9 -1 0
v -8 -2 0
v -9 -2 0
v -9 -1 0
v -8 -1 0
v -7 -2 0
v -8 -2 0
v -8 -1 0
v -7 -1 0
v -6 -2 0
v -7 -2 0
v -7 -1 0
v -6 -1 0
v -14 -3 0
v -15 -3 0
v -15 -2 0
v -14 -2 0
v -13 -3 0
v -14 -3 0
v -14 -2 0
v -13 -2 0
v -12 -3 0
v -13 -3 0
v -13 -2 0
v -12 -2 0
v -11 -3 0
v -12 -3 0
v -12 -2 0
v -11 -2 0
v -10 -3 0
v -11 -3 0
v -11 -2 0
v -10 -2 0
v -9 -3 0
v -10 -3 0
v -10 -2 0
v -9 -2 0
v -8 -3 0
v -9 -3 0
v -9 -2 0
v -8 -2 0
v -7 -3 0
v -8 -3 0
v -8 -2 0
v -7 -2 0
v -6 -3 0
v -7 -3 0
v -7 -2 0
v -6 -2 0
v -5 -3 0
v -6 -3 0
v -6 -2 0
v -5 -2 0
v -4 -3 0
v -5 -3 0
v -5 -2 0
v -4 -2 0
v -3 -3 0
v -4 -3 0
v -4 -2 0
v -3 -2 0
v -2 -3 0
v -3 -3 0
v -3 -2 0
v -2 -2 0
v -14 -4 0
v -15 -4 0
v -15 -3 0
v -14 -3 0
v -13 -4 0
v -14 -4 0
v -14 -3 0
v -13 -3 0
v -12 -4 0
v -13 -4 0
v -13 -3 0
v -12 -3 0
v -11 -4 0
v -12 -4 0
v -12 -3 0
v -11 -3 0
v -10 -4 0
v -11 -4 0
v -11 -3 0
v -10 -3 0
v -9 -4 0
v -10 -4 0
v -10 -3 0
v -9 -3 0
v -8 -4 0
v -9 -4 0
v -9 -3 0
v -8 -3 0
v -7 -4 0
v -8 -4 0
v -8 -3 0
v -7 -3 0
v -6 -4 0
v -7 -4 0
v -7 -3 0
v -6 -3 0
v -5 -4 0
v -6 -4 0
v -6 -3 0
v -5 -3 0
v -4 -4 0
v -5 -4 0
v -5 -3 0
v -4 -3 0
v -3 -4 0
v -4 -4 0
v -4 -3 0
v -3 -3 0
v -2 -4 0
v -3 -4 0
v -3 -3 0
v -2 -3 0
v -14 -5 0
v -15 -5 0
v -15 -4 0
v -14 -4 0
v -13 -5 0
v -14 -5 0
v -14 -4 0
v -13 -4 0
v -12 -5 0
v -13 -5 0
v -13 -4 0
v -12 -4 0
v -11 -5 0
v -12 -5 0
v -12 -4 0
v -11 -4 0
v -10 -5 0
v -11 -5 0
v -11 -4 0
v -10 -4 0
v -9 -5 0
v -10 -5 0
v -10 -4 0
v -9 -4 0
v -8 -5 0
v -9 -5 0
v -9 -4 0
v -8 -4 0
v -7 -5 0
v -8 -5 0
v -8 -4 0
v -7 -4 0
v -6 -5 0
v -7 -5 0
v -7 -4 0
v -6 -4 0
v -5 -5 0
v -6 -5 0
v -6 -4 0
v -5 -4 0
v -4 -5 0
v -5 -5 0
v -5 -4 0
v -4 -4 0
v -3 -5 0
v -4 -5 0
v -4 -4 0
v -3 -4 0
v -2 -5 0
v -3 -5 0
v -3 -4 0
v -2 -4 0
v -12 -6 0
v -13 -6 0
v -13 -5 0
v -12 -5 0
v -11 -6 0
v -12 -6 0
v -12 -5 0
v -11 -5 0
v -10 -6 0
v -11 -6 0
v -11 -5 0
v -10 -5 0
v -9 -6 0
v -10 -6 0
v -10 -5 0
v -9 -5 0
v -8 -6 0
v -9 -6 0
v -9 -5 0
v -8 -5 0
v -7 -6 0
v -8 -6 0
v -8 -5 0
v -7 -5 0
v -6 -6 0
v -7 -6 0
v -7 -5 0
v -6 -5 0
v -5 -6 0
v -6 -6 0
v -6 -5 0
v -5 -5 0
v -4 -6 0
v -5 -6 0
v -5 -5 0
v -4 -5 0
v -12 -7 0
v -13 -7 0
v -13 -6 0
v -12 -6 0
v -11 -7 0
v -12 -7 0
v -12 -6 0
v -11 -6 0
v -10 -7 0
v -11 -7 0
v -11 -6 0
v -10 -6 0
v -9 -7 0
v -10 -7 0
v -10 -6 0
v -9 -6 0
v -8 -7 0
v -9 -7 0
v -9 -6 0
v -8 -6 0
v -7 -7 0
v -8 -7 0
v -8 -6 0
v -7 -6 0
v -6 -7 0
v -7 -7 0
v -7 -6 0
v -6 -6 0
v -5 -7 0
v -6 -7 0
v -6 -6 0
v -5 -6 0
v -4 -7 0
v -5 -7 0
v -5 -6 0
v -4 -6 0
v -10 -8 0
v -11 -8 0
v -11 -7 0
v -10 -7 0
v -9 -8 0
v -10 -8 0
v -10 -7 0
v -9 -7 0
v -8 -8 0
v -9 -8 0
v -9 -7 0
v -8 -7 0
v -7 -8 0
v -8 -8 0
v -8 -7 0
v -7 -7 0
v -6 -8 0
v -7 -8 0
v -7 -7 0
v -6 -7 0
v -22 -9 0
v -23 -9 0
v -23 -8 0
v -22 -8 0
v -21 -9 0
v -22 -9 0
v -22 -8 0
v -21 -8 0
v -20 -9 0
v -21 -9 0
v -21 -8 0
v -20 -8 0
v -19 -9 0
v -20 -9 0
v -20 -8 0
v -19 -8 0
v -10 -9 0
v -11 -9 0
v -11 -8 0
v -10 -8 0
v -9 -9 0
v -10 -9 0
v -10 -8 0
v -9 -8 0
v -8 -9 0
v -9 -9 0
v -9 -8 0
v -8 -8 0
v -7 -9 0
v -8 -9 0
v -8 -8 0
v -7 -8 0
v -6 -9 0
v -7 -9 0
v -7 -8 0
v -6 -8 0
v -22 -10 0
v -23 -10 0
v -23 -9 0
v -22 -9 0
v -21 -10 0
v -22 -10 0
v -22 -9 0
v -21 -9 0
v -20 -10 0
v -21 -10 0
v -21 -9 0
v -20 -9 0
v -19 -10 0
v -20 -10 0
v -20 -9 0
v -19 -9 0
v -22 -11 0
v -23 -11 0
v -23 -10 0
v -22 -10 0
v -21 -11 0
v -22 -11 0
v -22 -10 0
v -21 -10 0
v -20 -11 0
v -21 -11 0
v -21 -10 0
v -20 -10 0
v -19 -11 0
v -20 -11 0
v -20 -10 0
v -19 -10 0
v -22 -12 0
v -23 -12 0
v -23 -11 0
v -22 -11 0
v -21 -12 0
v -22 -12 0
v -22 -11 0
v -21 -11 0
v -20 -12 0
v -21 -12 0
v -21 -11 0
v -20 -11 0
v -19 -12 0
v -20 -12 0
v -20 -11 0
v -19 -11 0
v -22 -13 0
v -23 -13 0
v -23 -12 0
v -22 -12 0
v -21 -13 0
v -22 -13 0
v -22 -12 0
v -21 -12 0
v -20 -13 0
v -21 -13 0
v -21 -12 0
v -20 -12 0
v -19 -13 0
v -20 -13 0
v -20 -12 0
v -19 -12 0
v -22 -14 0
v -23 -14 0
v -23 -13 0
v -22 -13 0
v -21 -14 0
v -22 -14 0
v -22 -13 0
v -21 -13 0
v -20 -14 0
v -21 -14 0
v -21 -13 0
v -20 -13 0
v -19 -14 0
v -20 -14 0
v -20 -13 0
v -19 -13 0
v -22 -15 0
v -23 -15 0
v -23 -14 0
v -22 -14 0
v -21 -15 0
v -22 -15 0
v -22 -14 0
v -21 -14 0
v -20 -15 0
v -21 -15 0
v -21 -14 0
v -20 -14 0
v -19 -15 0
v -20 -15 0
v -20 -14 0
v -19 -14 0
v -22 -16 0
v -23 -16 0
v -23 -15 0
v -22 -15 0
v -21 -16 0
v -22 -16 0
v -22 -15 0
v -21 -15 0
v -20 -16 0
v -21 -16 0
v -21 -15 0
v -20 -15 0
v -19 -16 0
v -20 -16 0
v -20 -15 0
v -19 -15 0
v -24 -20 0
v -25 -20 0
v -25 -19 0
v -24 -19 0
v -18 -20 0
v -19 -20 0
v -19 -19 0
v -18 -19 0
v -17 -20 0
v -18 -20 0
v -18 -19 0
v -17 -19 0
v -15 -20 0
v -16 -20 0
v -16 -19 0
v -15 -19 0
v -14 -20 0
v -15 -20 0
v -15 -19 0
v -14 -19 0
v -13 -20 0
v -14 -20 0
v -14 -19 0
v -13 -19 0
v -24 -21 0
v -25 -21 0
v -25 -20 0
v -24 -20 0
v -18 -21 0
v -19 -21 0
v -19 -20 0
v -18 -20 0
v -17 -21 0
v -18 -21 0
v -18 -20 0
v -17 -20 0
v -16 -21 0
v -17 -21 0
v -17 -20 0
v -16 -20 0
v -15 -21 0
v -16 -21 0
v -16 -20 0
v -15 -20 0
v -14 -21 0
v -15 -21 0
v -15 -20 0
v -14 -20 0
v -13 -21 0
v -14 -21 0
v -14 -20 0
v -13 -20 0
v -12 -21 0
v -13 -21 0
v -13 -20 0
v -12 -20 0
v -11 -21 0
v -12 -21 0
v -12 -20 0
v -11 -20 0
v -5 -21 0
v -6 -21 0
v -6 -20 0
v -5 -20 0
v -4 -21 0
v -5 -21 0
v -5 -20 0
v -4 -20 0
v -3 -21 0
v -4 -21 0
v -4 -20 0
v -3 -20 0
v -2 -21 0
v -3 -21 0
v -3 -20 0
v -2 -20 0
v -1 -21 0
v -2 -21 0
v -2 -20 0
v -1 -20 0
v -24 -22 0
v -25 -22 0
v -25 -21 0
v -24 -21 0
v -18 -22 0
v -19 -22 0
v -19 -21 0
v -18 -21 0
v -17 -22 0
v -18 -22 0
v -18 -21 0
v -17 -21 0
v -16 -22 0
v -17 -22 0
v -17 -21 0
v -16 -21 0
v -15 -22 0
v -16 -22 0
v -16 -21 0
v -15 -21 0
v -14 -22 0
v -15 -22 0
v -15 -21 0
v -14 -21 0
v -12 -22 0
v -13 -22 0
v -13 -21 0
v -12 -21 0
v -11 -22 0
v -12 -22 0
v -12 -21 0
v -11 -21 0
v -10 -22 0
v -11 -22 0
v -11 -21 0
v -10 -21 0
v -9 -22 0
v -10 -22 0
v -10 -21 0
v -9 -21 0
v -7 -22 0
v -8 -22 0
v -8 -21 0
v -7 -21 0
v -6 -22 0
v -7 -22 0
v -7 -21 0
v -6 -21 0
v -5 -22 0
v -6 -22 0
v -6 -21 0
v -5 -21 0
v -4 -22 0
v -5 -22 0
v -5 -21 0
v -4 -21 0
v -3 -22 0
v -4 -22 0
v -4 -21 0
v -3 -21 0
v -2 -22 0
v -3 -22 0
v -3 -21 0
v -2 -21 0
v -1 -22 0
v -2 -22 0
v -2 -21 0
v -1 -21 0
v -24 -23 0
v -25 -23 0
v -25 -22 0
v -24 -22 0
v -18 -23 0
v -19 -23 0
v -19 -22 0
v -18 -22 0
v -17 -23 0
v -18 -23 0
v -18 -22 0
v -17 -22 0
v -15 -23 0
v -16 -23 0
v -16 -22 0
v -15 -22 0
v -14 -23 0
v -15 -23 0
v -15 -22 0
v -14 -22 0
v -12 -23 0
v -13 -23 0
v -13 -22 0
v -12 -22 0
v -11 -23 0
v -12 -23 0
v -12 -22 0
v -11 -22 0
v -10 -23 0
v -11 -23 0
v -11 -22 0
v -10 -22 0
v -9 -23 0
v -10 -23 0
v -10 -22 0
v -9 -22 0
v -7 -23 0
v -8 -23 0
v -8 -22 0
v -7 -22 0
v -6 -23 0
v -7 -23 0
v -7 -22 0
v -6 -22 0
v -2 -23 0
v -3 -23 0
v -3 -22 0
v -2 -22 0
v -1 -23 0
v -2 -23 0
v -2 -22 0
v -1 -22 0
v -24 -24 0
v -25 -24 0
v -25 -23 0
v -24 -23 0

# Texture cooridinates (Count = 140)
vt 0.85 0.7222222
vt 0.875 0.7222222
vt 0.875 0.75
vt 0.85 0.75
vt 0.225 0.9722222
vt 0.25 0.9722222
vt 0.25 1
vt 0.225 1
vt 0.2 0.9722222
vt 0.2 1
vt 0.175 0.9722222
vt 0.175 1
vt 0.8 0.7222222
vt 0.825 0.7222222
vt 0.825 0.75
vt 0.8 0.75
vt 0.35 0.8333333
vt 0.375 0.8333333
vt 0.375 0.8611111
vt 0.35 0.8611111
vt 0.325 0.8333333
vt 0.325 0.8611111
vt 0.375 0.9722222
vt 0.4 0.9722222
vt 0.4 1
vt 0.375 1
vt 0.35 0.9722222
vt 0.35 1
vt 0.85 0.6944444
vt 0.875 0.6944444
vt 0.225 0.9444444
vt 0.25 0.9444444
vt 0.825 0.6944444
vt 0.175 0.9444444
vt 0.2 0.9444444
vt 0.8 0.6944444
vt 0.3 0.9722222
vt 0.325 0.9722222
vt 0.325 1
vt 0.3 1
vt 0.275 0.9722222
vt 0.275 1
vt 0.35 0.8055556
vt 0.375 0.8055556
vt 0.325 0.8055556
vt 0.375 0.9444444
vt 0.4 0.9444444
vt 0.35 0.9444444
vt 0.85 0.6666666
vt 0.875 0.6666666
vt 0.8 0.6666666
vt 0.825 0.6666666
vt 0.3 0.9444444
vt 0.325 0.9444444
vt 0.275 0.9444444
vt 0.35 0.7777778
vt 0.375 0.7777778
vt 0.325 0.7777778
vt 0.25 0.9166667
vt 0.275 0.9166667
vt 0.225 0.9166667
vt 0.85 0.6388889
vt 0.875 0.6388889
vt 0.8 0.6388889
vt 0.825 0.6388889
vt 0.3 0.9166667
vt 0.325 0.9166667
vt 0.25 0.8888889
vt 0.275 0.8888889
vt 0.225 0.8888889
vt 0.85 0.6111111
vt 0.875 0.6111111
vt 0.8 0.6111111
vt 0.825 0.6111111
vt 0.425 0.8611111
vt 0.45 0.8611111
vt 0.45 0.8888889
vt 0.425 0.8888889
vt 0.3 0.8888889
vt 0.25 0.8611111
vt 0.275 0.8611111
vt 0.225 0.8611111
vt 0.85 0.5833334
vt 0.875 0.5833334
vt 0.2 0.9166667
vt 0.175 0.9166667
vt 0.8 0.5833334
vt 0.825 0.5833334
vt 0.425 0.8333333
vt 0.45 0.8333333
vt 0.3 0.8611111
vt 0.4 0.8611111
vt 0.4 0.8888889
vt 0.175 0.8888889
vt 0.2 0.8888889
vt 0.15 0.8888889
vt 0.15 0.9166667
vt 0.075 0.6111111
vt 0.1 0.6111111
vt 0.1 0.6388889
vt 0.075 0.6388889
vt 0.05 0.6111111
vt 0.05 0.6388889
vt 0.025 0.6111111
vt 0.025 0.6388889
vt 0.4 0.8333333
vt 0.175 0.8611111
vt 0.2 0.8611111
vt 0.15 0.8611111
vt 0.025 0.5833334
vt 0.05 0.5833334
vt 0.075 0.5555556
vt 0.1 0.5555556
vt 0.1 0.5833334
vt 0.075 0.5833334
vt 0.05 0.5555556
vt 0.025 0.5555556
vt 0.9 0.8333333
vt 0.925 0.8333333
vt 0.925 0.8611111
vt 0.9 0.8611111
vt 0.875 0.8333333
vt 0.875 0.8611111
vt 0.975 0.8333333
vt 1 0.8333333
vt 1 0.8611111
vt 0.975 0.8611111
vt 0.9 0.8055556
vt 0.925 0.8055556
vt 0.925 0.8888889
vt 0.95 0.8888889
vt 0.95 0.9166667
vt 0.925 0.9166667
vt 0.975 0.8055556
vt 1 0.8055556
vt 0.875 0.8055556
vt 0.95 0.8611111
vt 0.9 0.7777778
vt 0.925 0.7777778
vt 0.875 0.7777778

# Normal
vn 0 0 -1

# Mesh description
g Room-06_mesh_0005

# Faces
f 1/1/1 2/2/1 3/3/1 4/4/1
f 5/5/1 6/6/1 7/7/1 8/8/1
f 9/9/1 10/5/1 11/8/1 12/10/1
f 13/11/1 14/9/1 15/10/1 16/12/1
f 17/13/1 18/14/1 19/15/1 20/16/1
f 21/17/1 22/18/1 23/19/1 24/20/1
f 25/21/1 26/17/1 27/20/1 28/22/1
f 29/23/1 30/24/1 31/25/1 32/26/1
f 33/27/1 34/23/1 35/26/1 36/28/1
f 37/29/1 38/30/1 39/2/1 40/1/1
f 41/31/1 42/32/1 43/6/1 44/5/1
f 45/33/1 46/29/1 47/1/1 48/14/1
f 49/34/1 50/35/1 51/9/1 52/11/1
f 53/36/1 54/33/1 55/14/1 56/13/1
f 57/37/1 58/38/1 59/39/1 60/40/1
f 61/41/1 62/37/1 63/40/1 64/42/1
f 65/17/1 66/18/1 67/19/1 68/20/1
f 69/21/1 70/17/1 71/20/1 72/22/1
f 73/43/1 74/44/1 75/18/1 76/17/1
f 77/45/1 78/43/1 79/17/1 80/21/1
f 81/46/1 82/47/1 83/24/1 84/23/1
f 85/48/1 86/46/1 87/23/1 88/27/1
f 89/49/1 90/50/1 91/30/1 92/29/1
f 93/31/1 94/32/1 95/6/1 96/5/1
f 97/33/1 98/29/1 99/1/1 100/14/1
f 101/34/1 102/35/1 103/9/1 104/11/1
f 105/51/1 106/52/1 107/33/1 108/36/1
f 109/53/1 110/54/1 111/38/1 112/37/1
f 113/55/1 114/53/1 115/37/1 116/41/1
f 117/43/1 118/44/1 119/18/1 120/17/1
f 121/45/1 122/43/1 123/17/1 124/21/1
f 125/56/1 126/57/1 127/44/1 128/43/1
f 129/58/1 130/56/1 131/43/1 132/45/1
f 133/59/1 134/60/1 135/55/1 136/32/1
f 137/61/1 138/59/1 139/32/1 140/31/1
f 141/62/1 142/63/1 143/50/1 144/49/1
f 145/31/1 146/32/1 147/6/1 148/5/1
f 149/33/1 150/29/1 151/1/1 152/14/1
f 153/34/1 154/35/1 155/9/1 156/11/1
f 157/64/1 158/65/1 159/52/1 160/51/1
f 161/66/1 162/67/1 163/54/1 164/53/1
f 165/60/1 166/66/1 167/53/1 168/55/1
f 169/56/1 170/57/1 171/44/1 172/43/1
f 173/58/1 174/56/1 175/43/1 176/45/1
f 177/68/1 178/69/1 179/60/1 180/59/1
f 181/70/1 182/68/1 183/59/1 184/61/1
f 185/71/1 186/72/1 187/63/1 188/62/1
f 189/31/1 190/32/1 191/6/1 192/5/1
f 193/33/1 194/29/1 195/1/1 196/14/1
f 197/34/1 198/35/1 199/9/1 200/11/1
f 201/73/1 202/74/1 203/65/1 204/64/1
f 205/75/1 206/76/1 207/77/1 208/78/1
f 209/69/1 210/79/1 211/66/1 212/60/1
f 213/80/1 214/81/1 215/69/1 216/68/1
f 217/82/1 218/80/1 219/68/1 220/70/1
f 221/83/1 222/84/1 223/72/1 224/71/1
f 225/61/1 226/59/1 227/32/1 228/31/1
f 229/85/1 230/61/1 231/31/1 232/35/1
f 233/86/1 234/85/1 235/35/1 236/34/1
f 237/87/1 238/88/1 239/74/1 240/73/1
f 241/89/1 242/90/1 243/76/1 244/75/1
f 245/81/1 246/91/1 247/79/1 248/69/1
f 249/68/1 250/69/1 251/60/1 252/59/1
f 253/70/1 254/68/1 255/59/1 256/61/1
f 257/92/1 258/75/1 259/78/1 260/93/1
f 261/94/1 262/95/1 263/85/1 264/86/1
f 265/96/1 266/94/1 267/86/1 268/97/1
f 269/98/1 270/99/1 271/100/1 272/101/1
f 273/102/1 274/98/1 275/101/1 276/103/1
f 277/102/1 278/98/1 279/101/1 280/103/1
f 281/104/1 282/102/1 283/103/1 284/105/1
f 285/80/1 286/81/1 287/69/1 288/68/1
f 289/82/1 290/80/1 291/68/1 292/70/1
f 293/106/1 294/89/1 295/75/1 296/92/1
f 297/107/1 298/108/1 299/95/1 300/94/1
f 301/109/1 302/107/1 303/94/1 304/96/1
f 305/110/1 306/111/1 307/102/1 308/104/1
f 309/98/1 310/99/1 311/100/1 312/101/1
f 313/102/1 314/98/1 315/101/1 316/103/1
f 317/104/1 318/102/1 319/103/1 320/105/1
f 321/112/1 322/113/1 323/114/1 324/115/1
f 325/102/1 326/98/1 327/101/1 328/103/1
f 329/116/1 330/112/1 331/115/1 332/111/1
f 333/110/1 334/111/1 335/102/1 336/104/1
f 337/98/1 338/99/1 339/100/1 340/101/1
f 341/115/1 342/114/1 343/99/1 344/98/1
f 345/104/1 346/102/1 347/103/1 348/105/1
f 349/110/1 350/111/1 351/102/1 352/104/1
f 353/110/1 354/111/1 355/102/1 356/104/1
f 357/112/1 358/113/1 359/114/1 360/115/1
f 361/110/1 362/111/1 363/102/1 364/104/1
f 365/117/1 366/116/1 367/111/1 368/110/1
f 369/110/1 370/111/1 371/102/1 372/104/1
f 373/116/1 374/112/1 375/115/1 376/111/1
f 377/102/1 378/98/1 379/101/1 380/103/1
f 381/104/1 382/102/1 383/103/1 384/105/1
f 385/112/1 386/113/1 387/114/1 388/115/1
f 389/102/1 390/98/1 391/101/1 392/103/1
f 393/117/1 394/116/1 395/111/1 396/110/1
f 397/110/1 398/111/1 399/102/1 400/104/1
f 401/112/1 402/113/1 403/114/1 404/115/1
f 405/102/1 406/98/1 407/101/1 408/103/1
f 409/102/1 410/98/1 411/101/1 412/103/1
f 413/117/1 414/116/1 415/111/1 416/110/1
f 417/41/1 418/37/1 419/40/1 420/42/1
f 421/118/1 422/119/1 423/120/1 424/121/1
f 425/122/1 426/118/1 427/121/1 428/123/1
f 429/118/1 430/119/1 431/120/1 432/121/1
f 433/124/1 434/125/1 435/126/1 436/127/1
f 437/122/1 438/118/1 439/121/1 440/123/1
f 441/55/1 442/53/1 443/37/1 444/41/1
f 445/128/1 446/129/1 447/119/1 448/118/1
f 449/130/1 450/131/1 451/132/1 452/133/1
f 453/122/1 454/118/1 455/121/1 456/123/1
f 457/128/1 458/129/1 459/119/1 460/118/1
f 461/134/1 462/135/1 463/125/1 464/124/1
f 465/136/1 466/128/1 467/118/1 468/122/1
f 469/118/1 470/119/1 471/120/1 472/121/1
f 473/122/1 474/118/1 475/121/1 476/123/1
f 477/118/1 478/119/1 479/120/1 480/121/1
f 481/124/1 482/125/1 483/126/1 484/127/1
f 485/122/1 486/118/1 487/121/1 488/123/1
f 489/118/1 490/119/1 491/120/1 492/121/1
f 493/122/1 494/118/1 495/121/1 496/123/1
f 497/60/1 498/66/1 499/53/1 500/55/1
f 501/118/1 502/119/1 503/120/1 504/121/1
f 505/120/1 506/137/1 507/131/1 508/130/1
f 509/136/1 510/128/1 511/118/1 512/122/1
f 513/118/1 514/119/1 515/120/1 516/121/1
f 517/122/1 518/118/1 519/121/1 520/123/1
f 521/138/1 522/139/1 523/129/1 524/128/1
f 525/140/1 526/138/1 527/128/1 528/136/1
f 529/118/1 530/119/1 531/120/1 532/121/1
f 533/122/1 534/118/1 535/121/1 536/123/1
f 537/118/1 538/119/1 539/120/1 540/121/1
f 541/122/1 542/118/1 543/121/1 544/123/1
f 545/128/1 546/129/1 547/119/1 548/118/1
f 549/134/1 550/135/1 551/125/1 552/124/1
f 553/136/1 554/128/1 555/118/1 556/122/1
f 557/138/1 558/139/1 559/129/1 560/128/1
f 561/140/1 562/138/1 563/128/1 564/136/1
f 565/69/1 566/79/1 567/66/1 568/60/1
f 569/128/1 570/129/1 571/119/1 572/118/1
f 573/136/1 574/128/1 575/118/1 576/122/1
f 577/128/1 578/129/1 579/119/1 580/118/1
f 581/136/1 582/128/1 583/118/1 584/122/1
f 585/128/1 586/129/1 587/119/1 588/118/1
f 589/136/1 590/128/1 591/118/1 592/122/1
f 593/128/1 594/129/1 595/119/1 596/118/1
f 597/136/1 598/128/1 599/118/1 600/122/1
f 601/128/1 602/129/1 603/119/1 604/118/1
f 605/136/1 606/128/1 607/118/1 608/122/1
f 609/128/1 610/129/1 611/119/1 612/118/1
f 613/136/1 614/128/1 615/118/1 616/122/1
f 617/81/1 618/91/1 619/79/1 620/69/1

