# Tiled2Unity generated file. Do not modify by hand.
# Wavefront file for 'Dungeon.R01_mesh_0002.obj'

# Vertices (Count = 132)
v -10 -6 0
v -11 -6 0
v -11 -5 0
v -10 -5 0
v -9 -6 0
v -10 -6 0
v -10 -5 0
v -9 -5 0
v -6 -6 0
v -7 -6 0
v -7 -5 0
v -6 -5 0
v -5 -6 0
v -6 -6 0
v -6 -5 0
v -5 -5 0
v -10 -7 0
v -11 -7 0
v -11 -6 0
v -10 -6 0
v -5 -7 0
v -6 -7 0
v -6 -6 0
v -5 -6 0
v -10 -8 0
v -11 -8 0
v -11 -7 0
v -10 -7 0
v -5 -8 0
v -6 -8 0
v -6 -7 0
v -5 -7 0
v -9 -9 0
v -10 -9 0
v -10 -8 0
v -9 -8 0
v -6 -9 0
v -7 -9 0
v -7 -8 0
v -6 -8 0
v -9 -10 0
v -10 -10 0
v -10 -9 0
v -9 -9 0
v -8 -10 0
v -9 -10 0
v -9 -9 0
v -8 -9 0
v -7 -10 0
v -8 -10 0
v -8 -9 0
v -7 -9 0
v -12 -12 0
v -13 -12 0
v -13 -11 0
v -12 -11 0
v -11 -12 0
v -12 -12 0
v -12 -11 0
v -11 -11 0
v -10 -12 0
v -11 -12 0
v -11 -11 0
v -10 -11 0
v -9 -12 0
v -10 -12 0
v -10 -11 0
v -9 -11 0
v -8 -12 0
v -9 -12 0
v -9 -11 0
v -8 -11 0
v -7 -12 0
v -8 -12 0
v -8 -11 0
v -7 -11 0
v -6 -12 0
v -7 -12 0
v -7 -11 0
v -6 -11 0
v -5 -12 0
v -6 -12 0
v -6 -11 0
v -5 -11 0
v -4 -12 0
v -5 -12 0
v -5 -11 0
v -4 -11 0
v -3 -12 0
v -4 -12 0
v -4 -11 0
v -3 -11 0
v -12 -13 0
v -13 -13 0
v -13 -12 0
v -12 -12 0
v -11 -13 0
v -12 -13 0
v -12 -12 0
v -11 -12 0
v -10 -13 0
v -11 -13 0
v -11 -12 0
v -10 -12 0
v -9 -13 0
v -10 -13 0
v -10 -12 0
v -9 -12 0
v -8 -13 0
v -9 -13 0
v -9 -12 0
v -8 -12 0
v -7 -13 0
v -8 -13 0
v -8 -12 0
v -7 -12 0
v -6 -13 0
v -7 -13 0
v -7 -12 0
v -6 -12 0
v -5 -13 0
v -6 -13 0
v -6 -12 0
v -5 -12 0
v -4 -13 0
v -5 -13 0
v -5 -12 0
v -4 -12 0
v -3 -13 0
v -4 -13 0
v -4 -12 0
v -3 -12 0

# Texture cooridinates (Count = 13)
vt 0.0625 0.8125
vt 0.125 0.8125
vt 0.125 0.875
vt 0.0625 0.875
vt 0 0.8125
vt 0 0.875
vt 0.125 0.75
vt 0.1875 0.75
vt 0.1875 0.8125
vt 0.25 0.5625
vt 0.3125 0.5625
vt 0.3125 0.625
vt 0.25 0.625

# Normal
vn 0 0 -1

# Mesh description
g Dungeon.R01_mesh_0002

# Faces
f 1/1/1 2/2/1 3/3/1 4/4/1
f 5/5/1 6/1/1 7/4/1 8/6/1
f 9/5/1 10/1/1 11/4/1 12/6/1
f 13/5/1 14/1/1 15/4/1 16/6/1
f 17/7/1 18/8/1 19/9/1 20/2/1
f 21/7/1 22/8/1 23/9/1 24/2/1
f 25/7/1 26/8/1 27/9/1 28/2/1
f 29/7/1 30/8/1 31/9/1 32/2/1
f 33/7/1 34/8/1 35/9/1 36/2/1
f 37/7/1 38/8/1 39/9/1 40/2/1
f 41/10/1 42/11/1 43/12/1 44/13/1
f 45/7/1 46/8/1 47/9/1 48/2/1
f 49/7/1 50/8/1 51/9/1 52/2/1
f 53/10/1 54/11/1 55/12/1 56/13/1
f 57/10/1 58/11/1 59/12/1 60/13/1
f 61/10/1 62/11/1 63/12/1 64/13/1
f 65/10/1 66/11/1 67/12/1 68/13/1
f 69/10/1 70/11/1 71/12/1 72/13/1
f 73/10/1 74/11/1 75/12/1 76/13/1
f 77/10/1 78/11/1 79/12/1 80/13/1
f 81/10/1 82/11/1 83/12/1 84/13/1
f 85/10/1 86/11/1 87/12/1 88/13/1
f 89/10/1 90/11/1 91/12/1 92/13/1
f 93/10/1 94/11/1 95/12/1 96/13/1
f 97/10/1 98/11/1 99/12/1 100/13/1
f 101/10/1 102/11/1 103/12/1 104/13/1
f 105/10/1 106/11/1 107/12/1 108/13/1
f 109/10/1 110/11/1 111/12/1 112/13/1
f 113/10/1 114/11/1 115/12/1 116/13/1
f 117/10/1 118/11/1 119/12/1 120/13/1
f 121/10/1 122/11/1 123/12/1 124/13/1
f 125/10/1 126/11/1 127/12/1 128/13/1
f 129/10/1 130/11/1 131/12/1 132/13/1

