# Tiled2Unity generated file. Do not modify by hand.
# Wavefront file for 'Dungeon.R03_mesh_0004.obj'

# Vertices (Count = 96)
v -15 -1 0
v -16 -1 0
v -16 0 0
v -15 0 0
v -14 -1 0
v -15 -1 0
v -15 0 0
v -14 0 0
v -13 -1 0
v -14 -1 0
v -14 0 0
v -13 0 0
v -12 -1 0
v -13 -1 0
v -13 0 0
v -12 0 0
v -11 -1 0
v -12 -1 0
v -12 0 0
v -11 0 0
v -10 -1 0
v -11 -1 0
v -11 0 0
v -10 0 0
v -5 -1 0
v -6 -1 0
v -6 0 0
v -5 0 0
v -4 -1 0
v -5 -1 0
v -5 0 0
v -4 0 0
v -3 -1 0
v -4 -1 0
v -4 0 0
v -3 0 0
v -2 -1 0
v -3 -1 0
v -3 0 0
v -2 0 0
v -1 -1 0
v -2 -1 0
v -2 0 0
v -1 0 0
v -15 -2 0
v -16 -2 0
v -16 -1 0
v -15 -1 0
v -14 -2 0
v -15 -2 0
v -15 -1 0
v -14 -1 0
v -13 -2 0
v -14 -2 0
v -14 -1 0
v -13 -1 0
v -12 -2 0
v -13 -2 0
v -13 -1 0
v -12 -1 0
v -11 -2 0
v -12 -2 0
v -12 -1 0
v -11 -1 0
v -10 -2 0
v -11 -2 0
v -11 -1 0
v -10 -1 0
v -5 -2 0
v -6 -2 0
v -6 -1 0
v -5 -1 0
v -4 -2 0
v -5 -2 0
v -5 -1 0
v -4 -1 0
v -3 -2 0
v -4 -2 0
v -4 -1 0
v -3 -1 0
v -2 -2 0
v -3 -2 0
v -3 -1 0
v -2 -1 0
v -1 -2 0
v -2 -2 0
v -2 -1 0
v -1 -1 0
v -13 -3 0
v -14 -3 0
v -14 -2 0
v -13 -2 0
v -2 -3 0
v -3 -3 0
v -3 -2 0
v -2 -2 0

# Texture cooridinates (Count = 24)
vt 0.0625 0.9375
vt 0.125 0.9375
vt 0.125 1
vt 0.0625 1
vt 0.375 0.75
vt 0.4375 0.75
vt 0.4375 0.8125
vt 0.375 0.8125
vt 0 0.75
vt 0.0625 0.75
vt 0.0625 0.8125
vt 0 0.8125
vt 0 0.9375
vt 0 1
vt 0.0625 0.875
vt 0.125 0.875
vt 0.375 0.6875
vt 0.4375 0.6875
vt 0.0625 0.6875
vt 0.125 0.6875
vt 0.125 0.75
vt 0 0.875
vt 0.375 0.625
vt 0.4375 0.625

# Normal
vn 0 0 -1

# Mesh description
g Dungeon.R03_mesh_0004

# Faces
f 1/1/1 2/2/1 3/3/1 4/4/1
f 5/1/1 6/2/1 7/3/1 8/4/1
f 9/5/1 10/6/1 11/7/1 12/8/1
f 13/1/1 14/2/1 15/3/1 16/4/1
f 17/1/1 18/2/1 19/3/1 20/4/1
f 21/9/1 22/10/1 23/11/1 24/12/1
f 25/9/1 26/10/1 27/11/1 28/12/1
f 29/1/1 30/2/1 31/3/1 32/4/1
f 33/1/1 34/2/1 35/3/1 36/4/1
f 37/5/1 38/6/1 39/7/1 40/8/1
f 41/13/1 42/1/1 43/4/1 44/14/1
f 45/15/1 46/16/1 47/2/1 48/1/1
f 49/15/1 50/16/1 51/2/1 52/1/1
f 53/17/1 54/18/1 55/6/1 56/5/1
f 57/15/1 58/16/1 59/2/1 60/1/1
f 61/15/1 62/16/1 63/2/1 64/1/1
f 65/19/1 66/20/1 67/21/1 68/10/1
f 69/19/1 70/20/1 71/21/1 72/10/1
f 73/15/1 74/16/1 75/2/1 76/1/1
f 77/15/1 78/16/1 79/2/1 80/1/1
f 81/17/1 82/18/1 83/6/1 84/5/1
f 85/22/1 86/15/1 87/1/1 88/13/1
f 89/23/1 90/24/1 91/18/1 92/17/1
f 93/23/1 94/24/1 95/18/1 96/17/1

