# Tiled2Unity generated file. Do not modify by hand.
# Wavefront file for 'Dungeon.R03_mesh_0001.obj'

# Vertices (Count = 516)
v -15 -1 0
v -16 -1 0
v -16 0 0
v -15 0 0
v -14 -1 0
v -15 -1 0
v -15 0 0
v -14 0 0
v -13 -1 0
v -14 -1 0
v -14 0 0
v -13 0 0
v -12 -1 0
v -13 -1 0
v -13 0 0
v -12 0 0
v -11 -1 0
v -12 -1 0
v -12 0 0
v -11 0 0
v -10 -1 0
v -11 -1 0
v -11 0 0
v -10 0 0
v -9 -1 0
v -10 -1 0
v -10 0 0
v -9 0 0
v -6 -1 0
v -7 -1 0
v -7 0 0
v -6 0 0
v -5 -1 0
v -6 -1 0
v -6 0 0
v -5 0 0
v -4 -1 0
v -5 -1 0
v -5 0 0
v -4 0 0
v -3 -1 0
v -4 -1 0
v -4 0 0
v -3 0 0
v -2 -1 0
v -3 -1 0
v -3 0 0
v -2 0 0
v -1 -1 0
v -2 -1 0
v -2 0 0
v -1 0 0
v 0 -1 0
v -1 -1 0
v -1 0 0
v 0 0 0
v 0 -2 0
v -1 -2 0
v -1 -1 0
v 0 -1 0
v 0 -3 0
v -1 -3 0
v -1 -2 0
v 0 -2 0
v -15 -4 0
v -16 -4 0
v -16 -3 0
v -15 -3 0
v -14 -4 0
v -15 -4 0
v -15 -3 0
v -14 -3 0
v -13 -4 0
v -14 -4 0
v -14 -3 0
v -13 -3 0
v -12 -4 0
v -13 -4 0
v -13 -3 0
v -12 -3 0
v -11 -4 0
v -12 -4 0
v -12 -3 0
v -11 -3 0
v -10 -4 0
v -11 -4 0
v -11 -3 0
v -10 -3 0
v -9 -4 0
v -10 -4 0
v -10 -3 0
v -9 -3 0
v -6 -4 0
v -7 -4 0
v -7 -3 0
v -6 -3 0
v -5 -4 0
v -6 -4 0
v -6 -3 0
v -5 -3 0
v -4 -4 0
v -5 -4 0
v -5 -3 0
v -4 -3 0
v -3 -4 0
v -4 -4 0
v -4 -3 0
v -3 -3 0
v -2 -4 0
v -3 -4 0
v -3 -3 0
v -2 -3 0
v 0 -4 0
v -1 -4 0
v -1 -3 0
v 0 -3 0
v -13 -5 0
v -14 -5 0
v -14 -4 0
v -13 -4 0
v -3 -5 0
v -4 -5 0
v -4 -4 0
v -3 -4 0
v -2 -5 0
v -3 -5 0
v -3 -4 0
v -2 -4 0
v 0 -5 0
v -1 -5 0
v -1 -4 0
v 0 -4 0
v -15 -6 0
v -16 -6 0
v -16 -5 0
v -15 -5 0
v -14 -6 0
v -15 -6 0
v -15 -5 0
v -14 -5 0
v -13 -6 0
v -14 -6 0
v -14 -5 0
v -13 -5 0
v -11 -6 0
v -12 -6 0
v -12 -5 0
v -11 -5 0
v -10 -6 0
v -11 -6 0
v -11 -5 0
v -10 -5 0
v -9 -6 0
v -10 -6 0
v -10 -5 0
v -9 -5 0
v -6 -6 0
v -7 -6 0
v -7 -5 0
v -6 -5 0
v -5 -6 0
v -6 -6 0
v -6 -5 0
v -5 -5 0
v -4 -6 0
v -5 -6 0
v -5 -5 0
v -4 -5 0
v -3 -6 0
v -4 -6 0
v -4 -5 0
v -3 -5 0
v -2 -6 0
v -3 -6 0
v -3 -5 0
v -2 -5 0
v 0 -6 0
v -1 -6 0
v -1 -5 0
v 0 -5 0
v -13 -7 0
v -14 -7 0
v -14 -6 0
v -13 -6 0
v -11 -7 0
v -12 -7 0
v -12 -6 0
v -11 -6 0
v -10 -7 0
v -11 -7 0
v -11 -6 0
v -10 -6 0
v -4 -7 0
v -5 -7 0
v -5 -6 0
v -4 -6 0
v -2 -7 0
v -3 -7 0
v -3 -6 0
v -2 -6 0
v 0 -7 0
v -1 -7 0
v -1 -6 0
v 0 -6 0
v -15 -8 0
v -16 -8 0
v -16 -7 0
v -15 -7 0
v -13 -8 0
v -14 -8 0
v -14 -7 0
v -13 -7 0
v -11 -8 0
v -12 -8 0
v -12 -7 0
v -11 -7 0
v -9 -8 0
v -10 -8 0
v -10 -7 0
v -9 -7 0
v -6 -8 0
v -7 -8 0
v -7 -7 0
v -6 -7 0
v -4 -8 0
v -5 -8 0
v -5 -7 0
v -4 -7 0
v -2 -8 0
v -3 -8 0
v -3 -7 0
v -2 -7 0
v 0 -8 0
v -1 -8 0
v -1 -7 0
v 0 -7 0
v -15 -9 0
v -16 -9 0
v -16 -8 0
v -15 -8 0
v -13 -9 0
v -14 -9 0
v -14 -8 0
v -13 -8 0
v -11 -9 0
v -12 -9 0
v -12 -8 0
v -11 -8 0
v -9 -9 0
v -10 -9 0
v -10 -8 0
v -9 -8 0
v -6 -9 0
v -7 -9 0
v -7 -8 0
v -6 -8 0
v -4 -9 0
v -5 -9 0
v -5 -8 0
v -4 -8 0
v -2 -9 0
v -3 -9 0
v -3 -8 0
v -2 -8 0
v 0 -9 0
v -1 -9 0
v -1 -8 0
v 0 -8 0
v -15 -10 0
v -16 -10 0
v -16 -9 0
v -15 -9 0
v -13 -10 0
v -14 -10 0
v -14 -9 0
v -13 -9 0
v -11 -10 0
v -12 -10 0
v -12 -9 0
v -11 -9 0
v -9 -10 0
v -10 -10 0
v -10 -9 0
v -9 -9 0
v -7 -10 0
v -8 -10 0
v -8 -9 0
v -7 -9 0
v -6 -10 0
v -7 -10 0
v -7 -9 0
v -6 -9 0
v -4 -10 0
v -5 -10 0
v -5 -9 0
v -4 -9 0
v -2 -10 0
v -3 -10 0
v -3 -9 0
v -2 -9 0
v 0 -10 0
v -1 -10 0
v -1 -9 0
v 0 -9 0
v -13 -11 0
v -14 -11 0
v -14 -10 0
v -13 -10 0
v -11 -11 0
v -12 -11 0
v -12 -10 0
v -11 -10 0
v -9 -11 0
v -10 -11 0
v -10 -10 0
v -9 -10 0
v -6 -11 0
v -7 -11 0
v -7 -10 0
v -6 -10 0
v -4 -11 0
v -5 -11 0
v -5 -10 0
v -4 -10 0
v -2 -11 0
v -3 -11 0
v -3 -10 0
v -2 -10 0
v 0 -11 0
v -1 -11 0
v -1 -10 0
v 0 -10 0
v -15 -12 0
v -16 -12 0
v -16 -11 0
v -15 -11 0
v -14 -12 0
v -15 -12 0
v -15 -11 0
v -14 -11 0
v -13 -12 0
v -14 -12 0
v -14 -11 0
v -13 -11 0
v -11 -12 0
v -12 -12 0
v -12 -11 0
v -11 -11 0
v -10 -12 0
v -11 -12 0
v -11 -11 0
v -10 -11 0
v -9 -12 0
v -10 -12 0
v -10 -11 0
v -9 -11 0
v -6 -12 0
v -7 -12 0
v -7 -11 0
v -6 -11 0
v -5 -12 0
v -6 -12 0
v -6 -11 0
v -5 -11 0
v -4 -12 0
v -5 -12 0
v -5 -11 0
v -4 -11 0
v -2 -12 0
v -3 -12 0
v -3 -11 0
v -2 -11 0
v 0 -12 0
v -1 -12 0
v -1 -11 0
v 0 -11 0
v -13 -13 0
v -14 -13 0
v -14 -12 0
v -13 -12 0
v -11 -13 0
v -12 -13 0
v -12 -12 0
v -11 -12 0
v -2 -13 0
v -3 -13 0
v -3 -12 0
v -2 -12 0
v 0 -13 0
v -1 -13 0
v -1 -12 0
v 0 -12 0
v -15 -14 0
v -16 -14 0
v -16 -13 0
v -15 -13 0
v -14 -14 0
v -15 -14 0
v -15 -13 0
v -14 -13 0
v -13 -14 0
v -14 -14 0
v -14 -13 0
v -13 -13 0
v -12 -14 0
v -13 -14 0
v -13 -13 0
v -12 -13 0
v -11 -14 0
v -12 -14 0
v -12 -13 0
v -11 -13 0
v -10 -14 0
v -11 -14 0
v -11 -13 0
v -10 -13 0
v -9 -14 0
v -10 -14 0
v -10 -13 0
v -9 -13 0
v -6 -14 0
v -7 -14 0
v -7 -13 0
v -6 -13 0
v -5 -14 0
v -6 -14 0
v -6 -13 0
v -5 -13 0
v -4 -14 0
v -5 -14 0
v -5 -13 0
v -4 -13 0
v -3 -14 0
v -4 -14 0
v -4 -13 0
v -3 -13 0
v -2 -14 0
v -3 -14 0
v -3 -13 0
v -2 -13 0
v 0 -14 0
v -1 -14 0
v -1 -13 0
v 0 -13 0
v -10 -15 0
v -11 -15 0
v -11 -14 0
v -10 -14 0
v -9 -15 0
v -10 -15 0
v -10 -14 0
v -9 -14 0
v -6 -15 0
v -7 -15 0
v -7 -14 0
v -6 -14 0
v -5 -15 0
v -6 -15 0
v -6 -14 0
v -5 -14 0
v -4 -15 0
v -5 -15 0
v -5 -14 0
v -4 -14 0
v 0 -15 0
v -1 -15 0
v -1 -14 0
v 0 -14 0
v -15 -16 0
v -16 -16 0
v -16 -15 0
v -15 -15 0
v -14 -16 0
v -15 -16 0
v -15 -15 0
v -14 -15 0
v -13 -16 0
v -14 -16 0
v -14 -15 0
v -13 -15 0
v -12 -16 0
v -13 -16 0
v -13 -15 0
v -12 -15 0
v -10 -16 0
v -11 -16 0
v -11 -15 0
v -10 -15 0
v -9 -16 0
v -10 -16 0
v -10 -15 0
v -9 -15 0
v -6 -16 0
v -7 -16 0
v -7 -15 0
v -6 -15 0
v -5 -16 0
v -6 -16 0
v -6 -15 0
v -5 -15 0
v -3 -16 0
v -4 -16 0
v -4 -15 0
v -3 -15 0
v -2 -16 0
v -3 -16 0
v -3 -15 0
v -2 -15 0
v -1 -16 0
v -2 -16 0
v -2 -15 0
v -1 -15 0
v 0 -16 0
v -1 -16 0
v -1 -15 0
v 0 -15 0

# Texture cooridinates (Count = 34)
vt 0.0625 0.4375
vt 0.125 0.4375
vt 0.125 0.5
vt 0.0625 0.5
vt 0.6875 0.4375
vt 0.75 0.4375
vt 0.75 0.5
vt 0.6875 0.5
vt 0.8125 0.5
vt 0.8125 0.5625
vt 0.75 0.5625
vt 0.875 0.5
vt 0.875 0.5625
vt 0.5625 0.625
vt 0.625 0.625
vt 0.625 0.6875
vt 0.5625 0.6875
vt 0.625 0.5625
vt 0.6875 0.5625
vt 0.6875 0.625
vt 0.8125 0.4375
vt 0.75 0.625
vt 0.75 0.6875
vt 0.6875 0.6875
vt 0.8125 0.625
vt 0.875 0.625
vt 0.875 0.6875
vt 0.8125 0.6875
vt 0.1875 0.5
vt 0.1875 0.5625
vt 0.125 0.5625
vt 0.5625 0.5
vt 0.625 0.5
vt 0.5625 0.5625

# Normal
vn 0 0 -1

# Mesh description
g Dungeon.R03_mesh_0001

# Faces
f 1/1/1 2/2/1 3/3/1 4/4/1
f 5/1/1 6/2/1 7/3/1 8/4/1
f 9/1/1 10/2/1 11/3/1 12/4/1
f 13/1/1 14/2/1 15/3/1 16/4/1
f 17/1/1 18/2/1 19/3/1 20/4/1
f 21/1/1 22/2/1 23/3/1 24/4/1
f 25/1/1 26/2/1 27/3/1 28/4/1
f 29/1/1 30/2/1 31/3/1 32/4/1
f 33/1/1 34/2/1 35/3/1 36/4/1
f 37/1/1 38/2/1 39/3/1 40/4/1
f 41/1/1 42/2/1 43/3/1 44/4/1
f 45/1/1 46/2/1 47/3/1 48/4/1
f 49/1/1 50/2/1 51/3/1 52/4/1
f 53/1/1 54/2/1 55/3/1 56/4/1
f 57/1/1 58/2/1 59/3/1 60/4/1
f 61/1/1 62/2/1 63/3/1 64/4/1
f 65/5/1 66/6/1 67/7/1 68/8/1
f 69/5/1 70/6/1 71/7/1 72/8/1
f 73/5/1 74/6/1 75/7/1 76/8/1
f 77/5/1 78/6/1 79/7/1 80/8/1
f 81/5/1 82/6/1 83/7/1 84/8/1
f 85/5/1 86/6/1 87/7/1 88/8/1
f 89/7/1 90/9/1 91/10/1 92/11/1
f 93/9/1 94/12/1 95/13/1 96/10/1
f 97/5/1 98/6/1 99/7/1 100/8/1
f 101/5/1 102/6/1 103/7/1 104/8/1
f 105/5/1 106/6/1 107/7/1 108/8/1
f 109/14/1 110/15/1 111/16/1 112/17/1
f 113/1/1 114/2/1 115/3/1 116/4/1
f 117/18/1 118/19/1 119/20/1 120/15/1
f 121/18/1 122/19/1 123/20/1 124/15/1
f 125/6/1 126/21/1 127/9/1 128/7/1
f 129/1/1 130/2/1 131/3/1 132/4/1
f 133/5/1 134/6/1 135/7/1 136/8/1
f 137/5/1 138/6/1 139/7/1 140/8/1
f 141/14/1 142/15/1 143/16/1 144/17/1
f 145/20/1 146/22/1 147/23/1 148/24/1
f 149/5/1 150/6/1 151/7/1 152/8/1
f 153/7/1 154/9/1 155/10/1 156/11/1
f 157/9/1 158/12/1 159/13/1 160/10/1
f 161/5/1 162/6/1 163/7/1 164/8/1
f 165/14/1 166/15/1 167/16/1 168/17/1
f 169/18/1 170/19/1 171/20/1 172/15/1
f 173/6/1 174/21/1 175/9/1 176/7/1
f 177/1/1 178/2/1 179/3/1 180/4/1
f 181/6/1 182/21/1 183/9/1 184/7/1
f 185/6/1 186/21/1 187/9/1 188/7/1
f 189/18/1 190/19/1 191/20/1 192/15/1
f 193/6/1 194/21/1 195/9/1 196/7/1
f 197/6/1 198/21/1 199/9/1 200/7/1
f 201/1/1 202/2/1 203/3/1 204/4/1
f 205/25/1 206/26/1 207/27/1 208/28/1
f 209/10/1 210/13/1 211/26/1 212/25/1
f 213/10/1 214/13/1 215/26/1 216/25/1
f 217/11/1 218/10/1 219/25/1 220/22/1
f 221/11/1 222/10/1 223/25/1 224/22/1
f 225/10/1 226/13/1 227/26/1 228/25/1
f 229/6/1 230/21/1 231/9/1 232/7/1
f 233/1/1 234/2/1 235/3/1 236/4/1
f 237/6/1 238/21/1 239/9/1 240/7/1
f 241/18/1 242/19/1 243/20/1 244/15/1
f 245/18/1 246/19/1 247/20/1 248/15/1
f 249/18/1 250/19/1 251/20/1 252/15/1
f 253/18/1 254/19/1 255/20/1 256/15/1
f 257/18/1 258/19/1 259/20/1 260/15/1
f 261/6/1 262/21/1 263/9/1 264/7/1
f 265/1/1 266/2/1 267/3/1 268/4/1
f 269/10/1 270/13/1 271/26/1 272/25/1
f 273/25/1 274/26/1 275/27/1 276/28/1
f 277/25/1 278/26/1 279/27/1 280/28/1
f 281/11/1 282/10/1 283/25/1 284/22/1
f 285/3/1 286/29/1 287/30/1 288/31/1
f 289/11/1 290/10/1 291/25/1 292/22/1
f 293/25/1 294/26/1 295/27/1 296/28/1
f 297/6/1 298/21/1 299/9/1 300/7/1
f 301/1/1 302/2/1 303/3/1 304/4/1
f 305/6/1 306/21/1 307/9/1 308/7/1
f 309/6/1 310/21/1 311/9/1 312/7/1
f 313/3/1 314/29/1 315/30/1 316/31/1
f 317/3/1 318/29/1 319/30/1 320/31/1
f 321/6/1 322/21/1 323/9/1 324/7/1
f 325/6/1 326/21/1 327/9/1 328/7/1
f 329/1/1 330/2/1 331/3/1 332/4/1
f 333/5/1 334/6/1 335/7/1 336/8/1
f 337/5/1 338/6/1 339/7/1 340/8/1
f 341/32/1 342/33/1 343/18/1 344/34/1
f 345/8/1 346/7/1 347/11/1 348/19/1
f 349/5/1 350/6/1 351/7/1 352/8/1
f 353/7/1 354/9/1 355/10/1 356/11/1
f 357/9/1 358/12/1 359/13/1 360/10/1
f 361/5/1 362/6/1 363/7/1 364/8/1
f 365/32/1 366/33/1 367/18/1 368/34/1
f 369/6/1 370/21/1 371/9/1 372/7/1
f 373/1/1 374/2/1 375/3/1 376/4/1
f 377/18/1 378/19/1 379/20/1 380/15/1
f 381/3/1 382/29/1 383/30/1 384/31/1
f 385/6/1 386/21/1 387/9/1 388/7/1
f 389/1/1 390/2/1 391/3/1 392/4/1
f 393/5/1 394/6/1 395/7/1 396/8/1
f 397/5/1 398/6/1 399/7/1 400/8/1
f 401/5/1 402/6/1 403/7/1 404/8/1
f 405/5/1 406/6/1 407/7/1 408/8/1
f 409/5/1 410/6/1 411/7/1 412/8/1
f 413/5/1 414/6/1 415/7/1 416/8/1
f 417/14/1 418/15/1 419/16/1 420/17/1
f 421/20/1 422/22/1 423/23/1 424/24/1
f 425/5/1 426/6/1 427/7/1 428/8/1
f 429/5/1 430/6/1 431/7/1 432/8/1
f 433/5/1 434/6/1 435/7/1 436/8/1
f 437/32/1 438/33/1 439/18/1 440/34/1
f 441/1/1 442/2/1 443/3/1 444/4/1
f 445/32/1 446/33/1 447/18/1 448/34/1
f 449/34/1 450/18/1 451/15/1 452/14/1
f 453/19/1 454/11/1 455/22/1 456/20/1
f 457/8/1 458/7/1 459/11/1 460/19/1
f 461/18/1 462/19/1 463/20/1 464/15/1
f 465/1/1 466/2/1 467/3/1 468/4/1
f 469/1/1 470/2/1 471/3/1 472/4/1
f 473/1/1 474/2/1 475/3/1 476/4/1
f 477/1/1 478/2/1 479/3/1 480/4/1
f 481/1/1 482/2/1 483/3/1 484/4/1
f 485/19/1 486/11/1 487/22/1 488/20/1
f 489/32/1 490/33/1 491/18/1 492/34/1
f 493/8/1 494/7/1 495/11/1 496/19/1
f 497/34/1 498/18/1 499/15/1 500/14/1
f 501/1/1 502/2/1 503/3/1 504/4/1
f 505/1/1 506/2/1 507/3/1 508/4/1
f 509/1/1 510/2/1 511/3/1 512/4/1
f 513/1/1 514/2/1 515/3/1 516/4/1

