# Tiled2Unity generated file. Do not modify by hand.
# Wavefront file for 'TheWorld.R07_mesh_0002.obj'

# Vertices (Count = 112)
v -2 -6 0
v -3 -6 0
v -3 -5 0
v -2 -5 0
v -1 -6 0
v -2 -6 0
v -2 -5 0
v -1 -5 0
v -2 -7 0
v -3 -7 0
v -3 -6 0
v -2 -6 0
v -1 -7 0
v -2 -7 0
v -2 -6 0
v -1 -6 0
v -6 -11 0
v -7 -11 0
v -7 -10 0
v -6 -10 0
v -5 -11 0
v -6 -11 0
v -6 -10 0
v -5 -10 0
v -4 -11 0
v -5 -11 0
v -5 -10 0
v -4 -10 0
v -6 -12 0
v -7 -12 0
v -7 -11 0
v -6 -11 0
v -5 -12 0
v -6 -12 0
v -6 -11 0
v -5 -11 0
v -4 -12 0
v -5 -12 0
v -5 -11 0
v -4 -11 0
v -6 -13 0
v -7 -13 0
v -7 -12 0
v -6 -12 0
v -5 -13 0
v -6 -13 0
v -6 -12 0
v -5 -12 0
v -4 -13 0
v -5 -13 0
v -5 -12 0
v -4 -12 0
v -6 -14 0
v -7 -14 0
v -7 -13 0
v -6 -13 0
v -5 -14 0
v -6 -14 0
v -6 -13 0
v -5 -13 0
v -4 -14 0
v -5 -14 0
v -5 -13 0
v -4 -13 0
v -6 -15 0
v -7 -15 0
v -7 -14 0
v -6 -14 0
v -5 -15 0
v -6 -15 0
v -6 -14 0
v -5 -14 0
v -4 -15 0
v -5 -15 0
v -5 -14 0
v -4 -14 0
v -6 -16 0
v -7 -16 0
v -7 -15 0
v -6 -15 0
v -5 -16 0
v -6 -16 0
v -6 -15 0
v -5 -15 0
v -4 -16 0
v -5 -16 0
v -5 -15 0
v -4 -15 0
v -6 -17 0
v -7 -17 0
v -7 -16 0
v -6 -16 0
v -5 -17 0
v -6 -17 0
v -6 -16 0
v -5 -16 0
v -4 -17 0
v -5 -17 0
v -5 -16 0
v -4 -16 0
v -6 -18 0
v -7 -18 0
v -7 -17 0
v -6 -17 0
v -5 -18 0
v -6 -18 0
v -6 -17 0
v -5 -17 0
v -4 -18 0
v -5 -18 0
v -5 -17 0
v -4 -17 0

# Texture cooridinates (Count = 25)
vt 0.85 0.8888889
vt 0.875 0.8888889
vt 0.875 0.9166667
vt 0.85 0.9166667
vt 0.825 0.8888889
vt 0.825 0.9166667
vt 0.85 0.8611111
vt 0.875 0.8611111
vt 0.825 0.8611111
vt 0.425 0.6666666
vt 0.45 0.6666666
vt 0.45 0.6944444
vt 0.425 0.6944444
vt 0.4 0.6666666
vt 0.4 0.6944444
vt 0.375 0.6666666
vt 0.375 0.6944444
vt 0.425 0.6388889
vt 0.45 0.6388889
vt 0.4 0.6388889
vt 0.375 0.6388889
vt 0.425 0.6111111
vt 0.45 0.6111111
vt 0.4 0.6111111
vt 0.375 0.6111111

# Normal
vn 0 0 -1

# Mesh description
g TheWorld.R07_mesh_0002

# Faces
f 1/1/1 2/2/1 3/3/1 4/4/1
f 5/5/1 6/1/1 7/4/1 8/6/1
f 9/7/1 10/8/1 11/2/1 12/1/1
f 13/9/1 14/7/1 15/1/1 16/5/1
f 17/10/1 18/11/1 19/12/1 20/13/1
f 21/14/1 22/10/1 23/13/1 24/15/1
f 25/16/1 26/14/1 27/15/1 28/17/1
f 29/18/1 30/19/1 31/11/1 32/10/1
f 33/20/1 34/18/1 35/10/1 36/14/1
f 37/21/1 38/20/1 39/14/1 40/16/1
f 41/18/1 42/19/1 43/11/1 44/10/1
f 45/20/1 46/18/1 47/10/1 48/14/1
f 49/21/1 50/20/1 51/14/1 52/16/1
f 53/18/1 54/19/1 55/11/1 56/10/1
f 57/20/1 58/18/1 59/10/1 60/14/1
f 61/21/1 62/20/1 63/14/1 64/16/1
f 65/18/1 66/19/1 67/11/1 68/10/1
f 69/20/1 70/18/1 71/10/1 72/14/1
f 73/21/1 74/20/1 75/14/1 76/16/1
f 77/18/1 78/19/1 79/11/1 80/10/1
f 81/20/1 82/18/1 83/10/1 84/14/1
f 85/21/1 86/20/1 87/14/1 88/16/1
f 89/18/1 90/19/1 91/11/1 92/10/1
f 93/20/1 94/18/1 95/10/1 96/14/1
f 97/21/1 98/20/1 99/14/1 100/16/1
f 101/22/1 102/23/1 103/19/1 104/18/1
f 105/24/1 106/22/1 107/18/1 108/20/1
f 109/25/1 110/24/1 111/20/1 112/21/1

