# Tiled2Unity generated file. Do not modify by hand.
# Wavefront file for 'House-Interiour_mesh_0004.obj'

# Vertices (Count = 160)
v -9 -1 0
v -10 -1 0
v -10 0 0
v -9 0 0
v -8 -1 0
v -9 -1 0
v -9 0 0
v -8 0 0
v -13 -2 0
v -14 -2 0
v -14 -1 0
v -13 -1 0
v -12 -2 0
v -13 -2 0
v -13 -1 0
v -12 -1 0
v -9 -2 0
v -10 -2 0
v -10 -1 0
v -9 -1 0
v -8 -2 0
v -9 -2 0
v -9 -1 0
v -8 -1 0
v -5 -2 0
v -6 -2 0
v -6 -1 0
v -5 -1 0
v -14 -3 0
v -15 -3 0
v -15 -2 0
v -14 -2 0
v -13 -3 0
v -14 -3 0
v -14 -2 0
v -13 -2 0
v -12 -3 0
v -13 -3 0
v -13 -2 0
v -12 -2 0
v -9 -3 0
v -10 -3 0
v -10 -2 0
v -9 -2 0
v -8 -3 0
v -9 -3 0
v -9 -2 0
v -8 -2 0
v -5 -3 0
v -6 -3 0
v -6 -2 0
v -5 -2 0
v -3 -3 0
v -4 -3 0
v -4 -2 0
v -3 -2 0
v -2 -3 0
v -3 -3 0
v -3 -2 0
v -2 -2 0
v -1 -3 0
v -2 -3 0
v -2 -2 0
v -1 -2 0
v -14 -4 0
v -15 -4 0
v -15 -3 0
v -14 -3 0
v -13 -4 0
v -14 -4 0
v -14 -3 0
v -13 -3 0
v -12 -4 0
v -13 -4 0
v -13 -3 0
v -12 -3 0
v -11 -4 0
v -12 -4 0
v -12 -3 0
v -11 -3 0
v -9 -4 0
v -10 -4 0
v -10 -3 0
v -9 -3 0
v -8 -4 0
v -9 -4 0
v -9 -3 0
v -8 -3 0
v -6 -4 0
v -7 -4 0
v -7 -3 0
v -6 -3 0
v -5 -4 0
v -6 -4 0
v -6 -3 0
v -5 -3 0
v -4 -4 0
v -5 -4 0
v -5 -3 0
v -4 -3 0
v -3 -4 0
v -4 -4 0
v -4 -3 0
v -3 -3 0
v -2 -4 0
v -3 -4 0
v -3 -3 0
v -2 -3 0
v -1 -4 0
v -2 -4 0
v -2 -3 0
v -1 -3 0
v -14 -5 0
v -15 -5 0
v -15 -4 0
v -14 -4 0
v -13 -5 0
v -14 -5 0
v -14 -4 0
v -13 -4 0
v -12 -5 0
v -13 -5 0
v -13 -4 0
v -12 -4 0
v -11 -5 0
v -12 -5 0
v -12 -4 0
v -11 -4 0
v -9 -5 0
v -10 -5 0
v -10 -4 0
v -9 -4 0
v -8 -5 0
v -9 -5 0
v -9 -4 0
v -8 -4 0
v -6 -5 0
v -7 -5 0
v -7 -4 0
v -6 -4 0
v -5 -5 0
v -6 -5 0
v -6 -4 0
v -5 -4 0
v -4 -5 0
v -5 -5 0
v -5 -4 0
v -4 -4 0
v -3 -5 0
v -4 -5 0
v -4 -4 0
v -3 -4 0
v -2 -5 0
v -3 -5 0
v -3 -4 0
v -2 -4 0
v -1 -5 0
v -2 -5 0
v -2 -4 0
v -1 -4 0

# Texture cooridinates (Count = 95)
vt 0.15 0.88
vt 0.175 0.88
vt 0.175 0.92
vt 0.15 0.92
vt 0.2 0.88
vt 0.2 0.92
vt 0.375 0.96
vt 0.4 0.96
vt 0.4 1
vt 0.375 1
vt 0.35 0.96
vt 0.35 1
vt 0.075 0.88
vt 0.1 0.88
vt 0.1 0.92
vt 0.075 0.92
vt 0.025 0.88
vt 0.05 0.88
vt 0.05 0.92
vt 0.025 0.92
vt 0.05 0.56
vt 0.075 0.56
vt 0.075 0.6
vt 0.05 0.6
vt 0.2 0.6
vt 0.225 0.6
vt 0.225 0.64
vt 0.2 0.64
vt 0.175 0.6
vt 0.175 0.64
vt 0.15 0.6
vt 0.15 0.64
vt 0.325 0.56
vt 0.35 0.56
vt 0.35 0.6
vt 0.325 0.6
vt 0.3 0.56
vt 0.3 0.6
vt 0.05 0.52
vt 0.075 0.52
vt 0.05 0.48
vt 0.075 0.48
vt 0.025 0.48
vt 0.025 0.52
vt 0 0.48
vt 0 0.52
vt 0.2 0.56
vt 0.225 0.56
vt 0.175 0.56
vt 0.15 0.56
vt 0.2 0.48
vt 0.225 0.48
vt 0.225 0.52
vt 0.2 0.52
vt 0.325 0.52
vt 0.35 0.52
vt 0.3 0.52
vt 0.3 0.92
vt 0.325 0.92
vt 0.325 0.96
vt 0.3 0.96
vt 0.275 0.92
vt 0.275 0.96
vt 0.25 0.92
vt 0.25 0.96
vt 0.125 0.48
vt 0.15 0.48
vt 0.15 0.52
vt 0.125 0.52
vt 0.1 0.48
vt 0.1 0.52
vt 0.175 0.52
vt 0.2 0.44
vt 0.225 0.44
vt 0.275 0.48
vt 0.3 0.48
vt 0.275 0.52
vt 0.25 0.48
vt 0.25 0.52
vt 0.3 0.84
vt 0.325 0.84
vt 0.325 0.88
vt 0.3 0.88
vt 0.275 0.84
vt 0.275 0.88
vt 0.25 0.84
vt 0.25 0.88
vt 0.05 0.4
vt 0.075 0.4
vt 0.075 0.44
vt 0.05 0.44
vt 0.025 0.4
vt 0.025 0.44
vt 0 0.4
vt 0 0.44

# Normal
vn 0 0 -1

# Mesh description
g House-Interiour_mesh_0004

# Faces
f 1/1/1 2/2/1 3/3/1 4/4/1
f 5/2/1 6/5/1 7/6/1 8/3/1
f 9/7/1 10/8/1 11/9/1 12/10/1
f 13/11/1 14/7/1 15/10/1 16/12/1
f 17/13/1 18/14/1 19/15/1 20/16/1
f 21/17/1 22/18/1 23/19/1 24/20/1
f 25/21/1 26/22/1 27/23/1 28/24/1
f 29/25/1 30/26/1 31/27/1 32/28/1
f 33/29/1 34/25/1 35/28/1 36/30/1
f 37/31/1 38/29/1 39/30/1 40/32/1
f 41/33/1 42/34/1 43/35/1 44/36/1
f 45/37/1 46/33/1 47/36/1 48/38/1
f 49/39/1 50/40/1 51/22/1 52/21/1
f 53/41/1 54/42/1 55/40/1 56/39/1
f 57/43/1 58/41/1 59/39/1 60/44/1
f 61/45/1 62/43/1 63/44/1 64/46/1
f 65/47/1 66/48/1 67/26/1 68/25/1
f 69/49/1 70/47/1 71/25/1 72/29/1
f 73/50/1 74/49/1 75/29/1 76/31/1
f 77/51/1 78/52/1 79/53/1 80/54/1
f 81/55/1 82/56/1 83/34/1 84/33/1
f 85/57/1 86/55/1 87/33/1 88/37/1
f 89/58/1 90/59/1 91/60/1 92/61/1
f 93/62/1 94/58/1 95/61/1 96/63/1
f 97/64/1 98/62/1 99/63/1 100/65/1
f 101/66/1 102/67/1 103/68/1 104/69/1
f 105/70/1 106/66/1 107/69/1 108/71/1
f 109/42/1 110/70/1 111/71/1 112/40/1
f 113/54/1 114/53/1 115/48/1 116/47/1
f 117/72/1 118/54/1 119/47/1 120/49/1
f 121/68/1 122/72/1 123/49/1 124/50/1
f 125/73/1 126/74/1 127/52/1 128/51/1
f 129/75/1 130/76/1 131/57/1 132/77/1
f 133/78/1 134/75/1 135/77/1 136/79/1
f 137/80/1 138/81/1 139/82/1 140/83/1
f 141/84/1 142/80/1 143/83/1 144/85/1
f 145/86/1 146/84/1 147/85/1 148/87/1
f 149/88/1 150/89/1 151/90/1 152/91/1
f 153/92/1 154/88/1 155/91/1 156/93/1
f 157/94/1 158/92/1 159/93/1 160/95/1

