# Tiled2Unity generated file. Do not modify by hand.
# Wavefront file for 'Dungeon.R10_mesh_0001.obj'

# Vertices (Count = 792)
v -15 -1 0
v -16 -1 0
v -16 0 0
v -15 0 0
v -14 -1 0
v -15 -1 0
v -15 0 0
v -14 0 0
v -13 -1 0
v -14 -1 0
v -14 0 0
v -13 0 0
v -12 -1 0
v -13 -1 0
v -13 0 0
v -12 0 0
v -11 -1 0
v -12 -1 0
v -12 0 0
v -11 0 0
v -10 -1 0
v -11 -1 0
v -11 0 0
v -10 0 0
v -9 -1 0
v -10 -1 0
v -10 0 0
v -9 0 0
v -8 -1 0
v -9 -1 0
v -9 0 0
v -8 0 0
v -7 -1 0
v -8 -1 0
v -8 0 0
v -7 0 0
v -6 -1 0
v -7 -1 0
v -7 0 0
v -6 0 0
v -5 -1 0
v -6 -1 0
v -6 0 0
v -5 0 0
v -4 -1 0
v -5 -1 0
v -5 0 0
v -4 0 0
v -3 -1 0
v -4 -1 0
v -4 0 0
v -3 0 0
v -2 -1 0
v -3 -1 0
v -3 0 0
v -2 0 0
v -1 -1 0
v -2 -1 0
v -2 0 0
v -1 0 0
v 0 -1 0
v -1 -1 0
v -1 0 0
v 0 0 0
v -15 -2 0
v -16 -2 0
v -16 -1 0
v -15 -1 0
v -14 -2 0
v -15 -2 0
v -15 -1 0
v -14 -1 0
v -13 -2 0
v -14 -2 0
v -14 -1 0
v -13 -1 0
v -12 -2 0
v -13 -2 0
v -13 -1 0
v -12 -1 0
v -11 -2 0
v -12 -2 0
v -12 -1 0
v -11 -1 0
v -10 -2 0
v -11 -2 0
v -11 -1 0
v -10 -1 0
v -9 -2 0
v -10 -2 0
v -10 -1 0
v -9 -1 0
v -8 -2 0
v -9 -2 0
v -9 -1 0
v -8 -1 0
v -7 -2 0
v -8 -2 0
v -8 -1 0
v -7 -1 0
v -6 -2 0
v -7 -2 0
v -7 -1 0
v -6 -1 0
v -5 -2 0
v -6 -2 0
v -6 -1 0
v -5 -1 0
v -4 -2 0
v -5 -2 0
v -5 -1 0
v -4 -1 0
v -3 -2 0
v -4 -2 0
v -4 -1 0
v -3 -1 0
v -2 -2 0
v -3 -2 0
v -3 -1 0
v -2 -1 0
v -1 -2 0
v -2 -2 0
v -2 -1 0
v -1 -1 0
v 0 -2 0
v -1 -2 0
v -1 -1 0
v 0 -1 0
v -15 -3 0
v -16 -3 0
v -16 -2 0
v -15 -2 0
v -14 -3 0
v -15 -3 0
v -15 -2 0
v -14 -2 0
v -13 -3 0
v -14 -3 0
v -14 -2 0
v -13 -2 0
v -12 -3 0
v -13 -3 0
v -13 -2 0
v -12 -2 0
v -11 -3 0
v -12 -3 0
v -12 -2 0
v -11 -2 0
v -10 -3 0
v -11 -3 0
v -11 -2 0
v -10 -2 0
v -9 -3 0
v -10 -3 0
v -10 -2 0
v -9 -2 0
v -8 -3 0
v -9 -3 0
v -9 -2 0
v -8 -2 0
v -7 -3 0
v -8 -3 0
v -8 -2 0
v -7 -2 0
v -6 -3 0
v -7 -3 0
v -7 -2 0
v -6 -2 0
v -5 -3 0
v -6 -3 0
v -6 -2 0
v -5 -2 0
v -4 -3 0
v -5 -3 0
v -5 -2 0
v -4 -2 0
v -3 -3 0
v -4 -3 0
v -4 -2 0
v -3 -2 0
v -2 -3 0
v -3 -3 0
v -3 -2 0
v -2 -2 0
v -1 -3 0
v -2 -3 0
v -2 -2 0
v -1 -2 0
v 0 -3 0
v -1 -3 0
v -1 -2 0
v 0 -2 0
v -15 -4 0
v -16 -4 0
v -16 -3 0
v -15 -3 0
v -14 -4 0
v -15 -4 0
v -15 -3 0
v -14 -3 0
v -13 -4 0
v -14 -4 0
v -14 -3 0
v -13 -3 0
v -12 -4 0
v -13 -4 0
v -13 -3 0
v -12 -3 0
v -11 -4 0
v -12 -4 0
v -12 -3 0
v -11 -3 0
v -10 -4 0
v -11 -4 0
v -11 -3 0
v -10 -3 0
v -9 -4 0
v -10 -4 0
v -10 -3 0
v -9 -3 0
v -6 -4 0
v -7 -4 0
v -7 -3 0
v -6 -3 0
v -5 -4 0
v -6 -4 0
v -6 -3 0
v -5 -3 0
v -4 -4 0
v -5 -4 0
v -5 -3 0
v -4 -3 0
v -3 -4 0
v -4 -4 0
v -4 -3 0
v -3 -3 0
v -2 -4 0
v -3 -4 0
v -3 -3 0
v -2 -3 0
v -1 -4 0
v -2 -4 0
v -2 -3 0
v -1 -3 0
v 0 -4 0
v -1 -4 0
v -1 -3 0
v 0 -3 0
v -15 -5 0
v -16 -5 0
v -16 -4 0
v -15 -4 0
v -14 -5 0
v -15 -5 0
v -15 -4 0
v -14 -4 0
v -13 -5 0
v -14 -5 0
v -14 -4 0
v -13 -4 0
v -12 -5 0
v -13 -5 0
v -13 -4 0
v -12 -4 0
v -11 -5 0
v -12 -5 0
v -12 -4 0
v -11 -4 0
v -10 -5 0
v -11 -5 0
v -11 -4 0
v -10 -4 0
v -9 -5 0
v -10 -5 0
v -10 -4 0
v -9 -4 0
v -6 -5 0
v -7 -5 0
v -7 -4 0
v -6 -4 0
v -5 -5 0
v -6 -5 0
v -6 -4 0
v -5 -4 0
v 0 -5 0
v -1 -5 0
v -1 -4 0
v 0 -4 0
v -15 -6 0
v -16 -6 0
v -16 -5 0
v -15 -5 0
v -10 -6 0
v -11 -6 0
v -11 -5 0
v -10 -5 0
v -9 -6 0
v -10 -6 0
v -10 -5 0
v -9 -5 0
v -6 -6 0
v -7 -6 0
v -7 -5 0
v -6 -5 0
v -5 -6 0
v -6 -6 0
v -6 -5 0
v -5 -5 0
v 0 -6 0
v -1 -6 0
v -1 -5 0
v 0 -5 0
v -15 -7 0
v -16 -7 0
v -16 -6 0
v -15 -6 0
v -14 -7 0
v -15 -7 0
v -15 -6 0
v -14 -6 0
v -13 -7 0
v -14 -7 0
v -14 -6 0
v -13 -6 0
v -12 -7 0
v -13 -7 0
v -13 -6 0
v -12 -6 0
v -11 -7 0
v -12 -7 0
v -12 -6 0
v -11 -6 0
v -10 -7 0
v -11 -7 0
v -11 -6 0
v -10 -6 0
v -9 -7 0
v -10 -7 0
v -10 -6 0
v -9 -6 0
v -6 -7 0
v -7 -7 0
v -7 -6 0
v -6 -6 0
v -5 -7 0
v -6 -7 0
v -6 -6 0
v -5 -6 0
v -4 -7 0
v -5 -7 0
v -5 -6 0
v -4 -6 0
v -3 -7 0
v -4 -7 0
v -4 -6 0
v -3 -6 0
v -2 -7 0
v -3 -7 0
v -3 -6 0
v -2 -6 0
v -1 -7 0
v -2 -7 0
v -2 -6 0
v -1 -6 0
v 0 -7 0
v -1 -7 0
v -1 -6 0
v 0 -6 0
v -15 -8 0
v -16 -8 0
v -16 -7 0
v -15 -7 0
v -14 -8 0
v -15 -8 0
v -15 -7 0
v -14 -7 0
v -13 -8 0
v -14 -8 0
v -14 -7 0
v -13 -7 0
v -12 -8 0
v -13 -8 0
v -13 -7 0
v -12 -7 0
v -11 -8 0
v -12 -8 0
v -12 -7 0
v -11 -7 0
v -10 -8 0
v -11 -8 0
v -11 -7 0
v -10 -7 0
v -9 -8 0
v -10 -8 0
v -10 -7 0
v -9 -7 0
v -6 -8 0
v -7 -8 0
v -7 -7 0
v -6 -7 0
v -5 -8 0
v -6 -8 0
v -6 -7 0
v -5 -7 0
v -4 -8 0
v -5 -8 0
v -5 -7 0
v -4 -7 0
v -3 -8 0
v -4 -8 0
v -4 -7 0
v -3 -7 0
v -2 -8 0
v -3 -8 0
v -3 -7 0
v -2 -7 0
v -1 -8 0
v -2 -8 0
v -2 -7 0
v -1 -7 0
v 0 -8 0
v -1 -8 0
v -1 -7 0
v 0 -7 0
v -15 -9 0
v -16 -9 0
v -16 -8 0
v -15 -8 0
v -14 -9 0
v -15 -9 0
v -15 -8 0
v -14 -8 0
v -13 -9 0
v -14 -9 0
v -14 -8 0
v -13 -8 0
v -12 -9 0
v -13 -9 0
v -13 -8 0
v -12 -8 0
v -11 -9 0
v -12 -9 0
v -12 -8 0
v -11 -8 0
v -10 -9 0
v -11 -9 0
v -11 -8 0
v -10 -8 0
v -9 -9 0
v -10 -9 0
v -10 -8 0
v -9 -8 0
v -6 -9 0
v -7 -9 0
v -7 -8 0
v -6 -8 0
v -5 -9 0
v -6 -9 0
v -6 -8 0
v -5 -8 0
v -4 -9 0
v -5 -9 0
v -5 -8 0
v -4 -8 0
v -3 -9 0
v -4 -9 0
v -4 -8 0
v -3 -8 0
v -2 -9 0
v -3 -9 0
v -3 -8 0
v -2 -8 0
v -1 -9 0
v -2 -9 0
v -2 -8 0
v -1 -8 0
v 0 -9 0
v -1 -9 0
v -1 -8 0
v 0 -8 0
v -15 -10 0
v -16 -10 0
v -16 -9 0
v -15 -9 0
v -14 -10 0
v -15 -10 0
v -15 -9 0
v -14 -9 0
v -13 -10 0
v -14 -10 0
v -14 -9 0
v -13 -9 0
v -12 -10 0
v -13 -10 0
v -13 -9 0
v -12 -9 0
v -11 -10 0
v -12 -10 0
v -12 -9 0
v -11 -9 0
v -10 -10 0
v -11 -10 0
v -11 -9 0
v -10 -9 0
v -9 -10 0
v -10 -10 0
v -10 -9 0
v -9 -9 0
v -8 -10 0
v -9 -10 0
v -9 -9 0
v -8 -9 0
v -7 -10 0
v -8 -10 0
v -8 -9 0
v -7 -9 0
v -6 -10 0
v -7 -10 0
v -7 -9 0
v -6 -9 0
v -5 -10 0
v -6 -10 0
v -6 -9 0
v -5 -9 0
v -4 -10 0
v -5 -10 0
v -5 -9 0
v -4 -9 0
v -3 -10 0
v -4 -10 0
v -4 -9 0
v -3 -9 0
v -2 -10 0
v -3 -10 0
v -3 -9 0
v -2 -9 0
v -1 -10 0
v -2 -10 0
v -2 -9 0
v -1 -9 0
v 0 -10 0
v -1 -10 0
v -1 -9 0
v 0 -9 0
v -15 -11 0
v -16 -11 0
v -16 -10 0
v -15 -10 0
v -12 -11 0
v -13 -11 0
v -13 -10 0
v -12 -10 0
v -11 -11 0
v -12 -11 0
v -12 -10 0
v -11 -10 0
v -10 -11 0
v -11 -11 0
v -11 -10 0
v -10 -10 0
v -9 -11 0
v -10 -11 0
v -10 -10 0
v -9 -10 0
v -8 -11 0
v -9 -11 0
v -9 -10 0
v -8 -10 0
v -7 -11 0
v -8 -11 0
v -8 -10 0
v -7 -10 0
v -6 -11 0
v -7 -11 0
v -7 -10 0
v -6 -10 0
v -5 -11 0
v -6 -11 0
v -6 -10 0
v -5 -10 0
v -4 -11 0
v -5 -11 0
v -5 -10 0
v -4 -10 0
v -3 -11 0
v -4 -11 0
v -4 -10 0
v -3 -10 0
v -2 -11 0
v -3 -11 0
v -3 -10 0
v -2 -10 0
v -1 -11 0
v -2 -11 0
v -2 -10 0
v -1 -10 0
v 0 -11 0
v -1 -11 0
v -1 -10 0
v 0 -10 0
v -15 -12 0
v -16 -12 0
v -16 -11 0
v -15 -11 0
v -12 -12 0
v -13 -12 0
v -13 -11 0
v -12 -11 0
v -11 -12 0
v -12 -12 0
v -12 -11 0
v -11 -11 0
v -10 -12 0
v -11 -12 0
v -11 -11 0
v -10 -11 0
v -9 -12 0
v -10 -12 0
v -10 -11 0
v -9 -11 0
v -8 -12 0
v -9 -12 0
v -9 -11 0
v -8 -11 0
v -7 -12 0
v -8 -12 0
v -8 -11 0
v -7 -11 0
v -6 -12 0
v -7 -12 0
v -7 -11 0
v -6 -11 0
v -5 -12 0
v -6 -12 0
v -6 -11 0
v -5 -11 0
v -4 -12 0
v -5 -12 0
v -5 -11 0
v -4 -11 0
v -3 -12 0
v -4 -12 0
v -4 -11 0
v -3 -11 0
v -2 -12 0
v -3 -12 0
v -3 -11 0
v -2 -11 0
v -1 -12 0
v -2 -12 0
v -2 -11 0
v -1 -11 0
v 0 -12 0
v -1 -12 0
v -1 -11 0
v 0 -11 0
v -15 -13 0
v -16 -13 0
v -16 -12 0
v -15 -12 0
v 0 -13 0
v -1 -13 0
v -1 -12 0
v 0 -12 0
v -15 -14 0
v -16 -14 0
v -16 -13 0
v -15 -13 0
v -13 -14 0
v -14 -14 0
v -14 -13 0
v -13 -13 0
v -12 -14 0
v -13 -14 0
v -13 -13 0
v -12 -13 0
v -11 -14 0
v -12 -14 0
v -12 -13 0
v -11 -13 0
v -10 -14 0
v -11 -14 0
v -11 -13 0
v -10 -13 0
v -9 -14 0
v -10 -14 0
v -10 -13 0
v -9 -13 0
v -8 -14 0
v -9 -14 0
v -9 -13 0
v -8 -13 0
v -7 -14 0
v -8 -14 0
v -8 -13 0
v -7 -13 0
v -6 -14 0
v -7 -14 0
v -7 -13 0
v -6 -13 0
v -5 -14 0
v -6 -14 0
v -6 -13 0
v -5 -13 0
v -4 -14 0
v -5 -14 0
v -5 -13 0
v -4 -13 0
v -3 -14 0
v -4 -14 0
v -4 -13 0
v -3 -13 0
v -2 -14 0
v -3 -14 0
v -3 -13 0
v -2 -13 0
v 0 -14 0
v -1 -14 0
v -1 -13 0
v 0 -13 0
v -15 -15 0
v -16 -15 0
v -16 -14 0
v -15 -14 0
v 0 -15 0
v -1 -15 0
v -1 -14 0
v 0 -14 0
v -15 -16 0
v -16 -16 0
v -16 -15 0
v -15 -15 0
v -14 -16 0
v -15 -16 0
v -15 -15 0
v -14 -15 0
v -13 -16 0
v -14 -16 0
v -14 -15 0
v -13 -15 0
v -12 -16 0
v -13 -16 0
v -13 -15 0
v -12 -15 0
v -11 -16 0
v -12 -16 0
v -12 -15 0
v -11 -15 0
v -10 -16 0
v -11 -16 0
v -11 -15 0
v -10 -15 0
v -9 -16 0
v -10 -16 0
v -10 -15 0
v -9 -15 0
v -8 -16 0
v -9 -16 0
v -9 -15 0
v -8 -15 0
v -7 -16 0
v -8 -16 0
v -8 -15 0
v -7 -15 0
v -6 -16 0
v -7 -16 0
v -7 -15 0
v -6 -15 0
v -5 -16 0
v -6 -16 0
v -6 -15 0
v -5 -15 0
v -4 -16 0
v -5 -16 0
v -5 -15 0
v -4 -15 0
v -3 -16 0
v -4 -16 0
v -4 -15 0
v -3 -15 0
v -2 -16 0
v -3 -16 0
v -3 -15 0
v -2 -15 0
v -1 -16 0
v -2 -16 0
v -2 -15 0
v -1 -15 0
v 0 -16 0
v -1 -16 0
v -1 -15 0
v 0 -15 0

# Texture cooridinates (Count = 31)
vt 0.0625 0.4375
vt 0.125 0.4375
vt 0.125 0.5
vt 0.0625 0.5
vt 0.5625 0.5625
vt 0.625 0.5625
vt 0.625 0.625
vt 0.5625 0.625
vt 0.6875 0.625
vt 0.6875 0.6875
vt 0.625 0.6875
vt 0.5625 0.5
vt 0.625 0.5
vt 0.75 0.4375
vt 0.8125 0.4375
vt 0.8125 0.5
vt 0.75 0.5
vt 0.6875 0.5
vt 0.6875 0.5625
vt 0.75 0.5625
vt 0.75 0.625
vt 0.875 0.5
vt 0.875 0.5625
vt 0.8125 0.5625
vt 0.1875 0.5
vt 0.1875 0.5625
vt 0.125 0.5625
vt 0.5625 0.6875
vt 0.6875 0.4375
vt 0.75 0.6875
vt 0.8125 0.625

# Normal
vn 0 0 -1

# Mesh description
g Dungeon.R10_mesh_0001

# Faces
f 1/1/1 2/2/1 3/3/1 4/4/1
f 5/5/1 6/6/1 7/7/1 8/8/1
f 9/7/1 10/9/1 11/10/1 12/11/1
f 13/12/1 14/13/1 15/6/1 16/5/1
f 17/7/1 18/9/1 19/10/1 20/11/1
f 21/14/1 22/15/1 23/16/1 24/17/1
f 25/5/1 26/6/1 27/7/1 28/8/1
f 29/13/1 30/18/1 31/19/1 32/6/1
f 33/13/1 34/18/1 35/19/1 36/6/1
f 37/19/1 38/20/1 39/21/1 40/9/1
f 41/15/1 42/14/1 43/17/1 44/16/1
f 45/9/1 46/7/1 47/11/1 48/10/1
f 49/13/1 50/12/1 51/5/1 52/6/1
f 53/9/1 54/7/1 55/11/1 56/10/1
f 57/6/1 58/5/1 59/8/1 60/7/1
f 61/1/1 62/2/1 63/3/1 64/4/1
f 65/1/1 66/2/1 67/3/1 68/4/1
f 69/16/1 70/22/1 71/23/1 72/24/1
f 73/3/1 74/25/1 75/26/1 76/27/1
f 77/19/1 78/20/1 79/21/1 80/9/1
f 81/3/1 82/25/1 83/26/1 84/27/1
f 85/14/1 86/15/1 87/16/1 88/17/1
f 89/5/1 90/6/1 91/7/1 92/8/1
f 93/6/1 94/19/1 95/9/1 96/7/1
f 97/6/1 98/19/1 99/9/1 100/7/1
f 101/19/1 102/20/1 103/21/1 104/9/1
f 105/14/1 106/15/1 107/16/1 108/17/1
f 109/25/1 110/3/1 111/27/1 112/26/1
f 113/20/1 114/19/1 115/9/1 116/21/1
f 117/25/1 118/3/1 119/27/1 120/26/1
f 121/22/1 122/16/1 123/24/1 124/23/1
f 125/1/1 126/2/1 127/3/1 128/4/1
f 129/1/1 130/2/1 131/3/1 132/4/1
f 133/5/1 134/6/1 135/7/1 136/8/1
f 137/13/1 138/18/1 139/19/1 140/6/1
f 141/8/1 142/7/1 143/11/1 144/28/1
f 145/13/1 146/18/1 147/19/1 148/6/1
f 149/14/1 150/15/1 151/16/1 152/17/1
f 153/5/1 154/6/1 155/7/1 156/8/1
f 157/7/1 158/9/1 159/10/1 160/11/1
f 161/7/1 162/9/1 163/10/1 164/11/1
f 165/19/1 166/20/1 167/21/1 168/9/1
f 169/15/1 170/14/1 171/17/1 172/16/1
f 173/18/1 174/13/1 175/6/1 176/19/1
f 177/7/1 178/8/1 179/28/1 180/11/1
f 181/18/1 182/13/1 183/6/1 184/19/1
f 185/6/1 186/5/1 187/8/1 188/7/1
f 189/1/1 190/2/1 191/3/1 192/4/1
f 193/1/1 194/2/1 195/3/1 196/4/1
f 197/6/1 198/19/1 199/9/1 200/7/1
f 201/5/1 202/6/1 203/7/1 204/8/1
f 205/13/1 206/18/1 207/19/1 208/6/1
f 209/13/1 210/18/1 211/19/1 212/6/1
f 213/12/1 214/13/1 215/6/1 216/5/1
f 217/5/1 218/6/1 219/7/1 220/8/1
f 221/19/1 222/20/1 223/21/1 224/9/1
f 225/13/1 226/12/1 227/5/1 228/6/1
f 229/18/1 230/13/1 231/6/1 232/19/1
f 233/18/1 234/13/1 235/6/1 236/19/1
f 237/6/1 238/5/1 239/8/1 240/7/1
f 241/19/1 242/6/1 243/7/1 244/9/1
f 245/1/1 246/2/1 247/3/1 248/4/1
f 249/1/1 250/2/1 251/3/1 252/4/1
f 253/6/1 254/19/1 255/9/1 256/7/1
f 257/6/1 258/19/1 259/9/1 260/7/1
f 261/6/1 262/19/1 263/9/1 264/7/1
f 265/6/1 266/19/1 267/9/1 268/7/1
f 269/5/1 270/6/1 271/7/1 272/8/1
f 273/5/1 274/6/1 275/7/1 276/8/1
f 277/19/1 278/20/1 279/21/1 280/9/1
f 281/19/1 282/20/1 283/21/1 284/9/1
f 285/1/1 286/2/1 287/3/1 288/4/1
f 289/1/1 290/2/1 291/3/1 292/4/1
f 293/21/1 294/9/1 295/19/1 296/20/1
f 297/21/1 298/9/1 299/19/1 300/20/1
f 301/9/1 302/21/1 303/20/1 304/19/1
f 305/9/1 306/21/1 307/20/1 308/19/1
f 309/1/1 310/2/1 311/3/1 312/4/1
f 313/1/1 314/2/1 315/3/1 316/4/1
f 317/6/1 318/5/1 319/12/1 320/13/1
f 321/17/1 322/18/1 323/29/1 324/14/1
f 325/17/1 326/18/1 327/29/1 328/14/1
f 329/17/1 330/18/1 331/29/1 332/14/1
f 333/20/1 334/19/1 335/18/1 336/17/1
f 337/21/1 338/9/1 339/19/1 340/20/1
f 341/9/1 342/21/1 343/20/1 344/19/1
f 345/19/1 346/20/1 347/17/1 348/18/1
f 349/18/1 350/17/1 351/14/1 352/29/1
f 353/18/1 354/17/1 355/14/1 356/29/1
f 357/18/1 358/17/1 359/14/1 360/29/1
f 361/5/1 362/6/1 363/13/1 364/12/1
f 365/1/1 366/2/1 367/3/1 368/4/1
f 369/1/1 370/2/1 371/3/1 372/4/1
f 373/7/1 374/8/1 375/5/1 376/6/1
f 377/11/1 378/28/1 379/8/1 380/7/1
f 381/10/1 382/11/1 383/7/1 384/9/1
f 385/10/1 386/11/1 387/7/1 388/9/1
f 389/30/1 390/10/1 391/9/1 392/21/1
f 393/21/1 394/9/1 395/19/1 396/20/1
f 397/9/1 398/21/1 399/20/1 400/19/1
f 401/10/1 402/30/1 403/21/1 404/9/1
f 405/11/1 406/10/1 407/9/1 408/7/1
f 409/11/1 410/10/1 411/9/1 412/7/1
f 413/28/1 414/11/1 415/7/1 416/8/1
f 417/8/1 418/7/1 419/6/1 420/5/1
f 421/1/1 422/2/1 423/3/1 424/4/1
f 425/1/1 426/2/1 427/3/1 428/4/1
f 429/11/1 430/28/1 431/8/1 432/7/1
f 433/10/1 434/11/1 435/7/1 436/9/1
f 437/10/1 438/11/1 439/7/1 440/9/1
f 441/10/1 442/11/1 443/7/1 444/9/1
f 445/10/1 446/11/1 447/7/1 448/9/1
f 449/30/1 450/10/1 451/9/1 452/21/1
f 453/10/1 454/30/1 455/21/1 456/9/1
f 457/11/1 458/10/1 459/9/1 460/7/1
f 461/11/1 462/10/1 463/9/1 464/7/1
f 465/11/1 466/10/1 467/9/1 468/7/1
f 469/11/1 470/10/1 471/9/1 472/7/1
f 473/28/1 474/11/1 475/7/1 476/8/1
f 477/1/1 478/2/1 479/3/1 480/4/1
f 481/1/1 482/2/1 483/3/1 484/4/1
f 485/6/1 486/19/1 487/9/1 488/7/1
f 489/6/1 490/19/1 491/9/1 492/7/1
f 493/6/1 494/19/1 495/9/1 496/7/1
f 497/6/1 498/19/1 499/9/1 500/7/1
f 501/6/1 502/19/1 503/9/1 504/7/1
f 505/6/1 506/19/1 507/9/1 508/7/1
f 509/6/1 510/19/1 511/9/1 512/7/1
f 513/6/1 514/19/1 515/9/1 516/7/1
f 517/6/1 518/19/1 519/9/1 520/7/1
f 521/6/1 522/19/1 523/9/1 524/7/1
f 525/6/1 526/19/1 527/9/1 528/7/1
f 529/6/1 530/19/1 531/9/1 532/7/1
f 533/6/1 534/19/1 535/9/1 536/7/1
f 537/6/1 538/19/1 539/9/1 540/7/1
f 541/1/1 542/2/1 543/3/1 544/4/1
f 545/1/1 546/2/1 547/3/1 548/4/1
f 549/1/1 550/2/1 551/3/1 552/4/1
f 553/1/1 554/2/1 555/3/1 556/4/1
f 557/1/1 558/2/1 559/3/1 560/4/1
f 561/1/1 562/2/1 563/3/1 564/4/1
f 565/1/1 566/2/1 567/3/1 568/4/1
f 569/1/1 570/2/1 571/3/1 572/4/1
f 573/1/1 574/2/1 575/3/1 576/4/1
f 577/1/1 578/2/1 579/3/1 580/4/1
f 581/1/1 582/2/1 583/3/1 584/4/1
f 585/1/1 586/2/1 587/3/1 588/4/1
f 589/1/1 590/2/1 591/3/1 592/4/1
f 593/1/1 594/2/1 595/3/1 596/4/1
f 597/1/1 598/2/1 599/3/1 600/4/1
f 601/1/1 602/2/1 603/3/1 604/4/1
f 605/1/1 606/2/1 607/3/1 608/4/1
f 609/1/1 610/2/1 611/3/1 612/4/1
f 613/1/1 614/2/1 615/3/1 616/4/1
f 617/1/1 618/2/1 619/3/1 620/4/1
f 621/1/1 622/2/1 623/3/1 624/4/1
f 625/1/1 626/2/1 627/3/1 628/4/1
f 629/1/1 630/2/1 631/3/1 632/4/1
f 633/1/1 634/2/1 635/3/1 636/4/1
f 637/1/1 638/2/1 639/3/1 640/4/1
f 641/1/1 642/2/1 643/3/1 644/4/1
f 645/1/1 646/2/1 647/3/1 648/4/1
f 649/1/1 650/2/1 651/3/1 652/4/1
f 653/1/1 654/2/1 655/3/1 656/4/1
f 657/1/1 658/2/1 659/3/1 660/4/1
f 661/1/1 662/2/1 663/3/1 664/4/1
f 665/1/1 666/2/1 667/3/1 668/4/1
f 669/16/1 670/22/1 671/23/1 672/24/1
f 673/29/1 674/14/1 675/17/1 676/18/1
f 677/29/1 678/14/1 679/17/1 680/18/1
f 681/29/1 682/14/1 683/17/1 684/18/1
f 685/29/1 686/14/1 687/17/1 688/18/1
f 689/17/1 690/16/1 691/24/1 692/20/1
f 693/6/1 694/19/1 695/9/1 696/7/1
f 697/16/1 698/22/1 699/23/1 700/24/1
f 701/29/1 702/14/1 703/17/1 704/18/1
f 705/17/1 706/16/1 707/24/1 708/20/1
f 709/6/1 710/19/1 711/9/1 712/7/1
f 713/20/1 714/24/1 715/31/1 716/21/1
f 717/1/1 718/2/1 719/3/1 720/4/1
f 721/1/1 722/2/1 723/3/1 724/4/1
f 725/1/1 726/2/1 727/3/1 728/4/1
f 729/1/1 730/2/1 731/3/1 732/4/1
f 733/1/1 734/2/1 735/3/1 736/4/1
f 737/1/1 738/2/1 739/3/1 740/4/1
f 741/1/1 742/2/1 743/3/1 744/4/1
f 745/1/1 746/2/1 747/3/1 748/4/1
f 749/1/1 750/2/1 751/3/1 752/4/1
f 753/1/1 754/2/1 755/3/1 756/4/1
f 757/1/1 758/2/1 759/3/1 760/4/1
f 761/1/1 762/2/1 763/3/1 764/4/1
f 765/1/1 766/2/1 767/3/1 768/4/1
f 769/1/1 770/2/1 771/3/1 772/4/1
f 773/1/1 774/2/1 775/3/1 776/4/1
f 777/1/1 778/2/1 779/3/1 780/4/1
f 781/1/1 782/2/1 783/3/1 784/4/1
f 785/1/1 786/2/1 787/3/1 788/4/1
f 789/1/1 790/2/1 791/3/1 792/4/1

