# Tiled2Unity generated file. Do not modify by hand.
# Wavefront file for 'TheWorld.R08_mesh_0003.obj'

# Vertices (Count = 340)
v -272 -16 0
v -288 -16 0
v -288 0 0
v -272 0 0
v -224 -16 0
v -240 -16 0
v -240 0 0
v -224 0 0
v -208 -16 0
v -224 -16 0
v -224 0 0
v -208 0 0
v -192 -16 0
v -208 -16 0
v -208 0 0
v -192 0 0
v -176 -16 0
v -192 -16 0
v -192 0 0
v -176 0 0
v -160 -16 0
v -176 -16 0
v -176 0 0
v -160 0 0
v -144 -16 0
v -160 -16 0
v -160 0 0
v -144 0 0
v -128 -16 0
v -144 -16 0
v -144 0 0
v -128 0 0
v -96 -16 0
v -112 -16 0
v -112 0 0
v -96 0 0
v -80 -16 0
v -96 -16 0
v -96 0 0
v -80 0 0
v -64 -16 0
v -80 -16 0
v -80 0 0
v -64 0 0
v -48 -16 0
v -64 -16 0
v -64 0 0
v -48 0 0
v -32 -16 0
v -48 -16 0
v -48 0 0
v -32 0 0
v -16 -16 0
v -32 -16 0
v -32 0 0
v -16 0 0
v 0 -16 0
v -16 -16 0
v -16 0 0
v 0 0 0
v -336 -32 0
v -352 -32 0
v -352 -16 0
v -336 -16 0
v -208 -32 0
v -224 -32 0
v -224 -16 0
v -208 -16 0
v -192 -32 0
v -208 -32 0
v -208 -16 0
v -192 -16 0
v -80 -32 0
v -96 -32 0
v -96 -16 0
v -80 -16 0
v -64 -32 0
v -80 -32 0
v -80 -16 0
v -64 -16 0
v -48 -32 0
v -64 -32 0
v -64 -16 0
v -48 -16 0
v -32 -32 0
v -48 -32 0
v -48 -16 0
v -32 -16 0
v -16 -32 0
v -32 -32 0
v -32 -16 0
v -16 -16 0
v 0 -32 0
v -16 -32 0
v -16 -16 0
v 0 -16 0
v 0 -48 0
v -16 -48 0
v -16 -32 0
v 0 -32 0
v -176 -64 0
v -192 -64 0
v -192 -48 0
v -176 -48 0
v -144 -64 0
v -160 -64 0
v -160 -48 0
v -144 -48 0
v -16 -64 0
v -32 -64 0
v -32 -48 0
v -16 -48 0
v 0 -64 0
v -16 -64 0
v -16 -48 0
v 0 -48 0
v 0 -80 0
v -16 -80 0
v -16 -64 0
v 0 -64 0
v 0 -96 0
v -16 -96 0
v -16 -80 0
v 0 -80 0
v -320 -112 0
v -336 -112 0
v -336 -96 0
v -320 -96 0
v -32 -112 0
v -48 -112 0
v -48 -96 0
v -32 -96 0
v 0 -112 0
v -16 -112 0
v -16 -96 0
v 0 -96 0
v -384 -128 0
v -400 -128 0
v -400 -112 0
v -384 -112 0
v -368 -128 0
v -384 -128 0
v -384 -112 0
v -368 -112 0
v -96 -128 0
v -112 -128 0
v -112 -112 0
v -96 -112 0
v 0 -128 0
v -16 -128 0
v -16 -112 0
v 0 -112 0
v -384 -144 0
v -400 -144 0
v -400 -128 0
v -384 -128 0
v -368 -144 0
v -384 -144 0
v -384 -128 0
v -368 -128 0
v -352 -144 0
v -368 -144 0
v -368 -128 0
v -352 -128 0
v 0 -144 0
v -16 -144 0
v -16 -128 0
v 0 -128 0
v -384 -160 0
v -400 -160 0
v -400 -144 0
v -384 -144 0
v -368 -160 0
v -384 -160 0
v -384 -144 0
v -368 -144 0
v -352 -160 0
v -368 -160 0
v -368 -144 0
v -352 -144 0
v 0 -160 0
v -16 -160 0
v -16 -144 0
v 0 -144 0
v -384 -176 0
v -400 -176 0
v -400 -160 0
v -384 -160 0
v -368 -176 0
v -384 -176 0
v -384 -160 0
v -368 -160 0
v 0 -176 0
v -16 -176 0
v -16 -160 0
v 0 -160 0
v 0 -192 0
v -16 -192 0
v -16 -176 0
v 0 -176 0
v 0 -208 0
v -16 -208 0
v -16 -192 0
v 0 -192 0
v -48 -224 0
v -64 -224 0
v -64 -208 0
v -48 -208 0
v 0 -224 0
v -16 -224 0
v -16 -208 0
v 0 -208 0
v -32 -240 0
v -48 -240 0
v -48 -224 0
v -32 -224 0
v 0 -240 0
v -16 -240 0
v -16 -224 0
v 0 -224 0
v -320 -256 0
v -336 -256 0
v -336 -240 0
v -320 -240 0
v 0 -256 0
v -16 -256 0
v -16 -240 0
v 0 -240 0
v -80 -272 0
v -96 -272 0
v -96 -256 0
v -80 -256 0
v 0 -272 0
v -16 -272 0
v -16 -256 0
v 0 -256 0
v -288 -288 0
v -304 -288 0
v -304 -272 0
v -288 -272 0
v -320 -304 0
v -336 -304 0
v -336 -288 0
v -320 -288 0
v -304 -304 0
v -320 -304 0
v -320 -288 0
v -304 -288 0
v -320 -320 0
v -336 -320 0
v -336 -304 0
v -320 -304 0
v -304 -320 0
v -320 -320 0
v -320 -304 0
v -304 -304 0
v -16 -320 0
v -32 -320 0
v -32 -304 0
v -16 -304 0
v 0 -320 0
v -16 -320 0
v -16 -304 0
v 0 -304 0
v -16 -336 0
v -32 -336 0
v -32 -320 0
v -16 -320 0
v 0 -336 0
v -16 -336 0
v -16 -320 0
v 0 -320 0
v -288 -352 0
v -304 -352 0
v -304 -336 0
v -288 -336 0
v -272 -352 0
v -288 -352 0
v -288 -336 0
v -272 -336 0
v -208 -352 0
v -224 -352 0
v -224 -336 0
v -208 -336 0
v -288 -368 0
v -304 -368 0
v -304 -352 0
v -288 -352 0
v -272 -368 0
v -288 -368 0
v -288 -352 0
v -272 -352 0
v -16 -368 0
v -32 -368 0
v -32 -352 0
v -16 -352 0
v 0 -368 0
v -16 -368 0
v -16 -352 0
v 0 -352 0
v -384 -384 0
v -400 -384 0
v -400 -368 0
v -384 -368 0
v -368 -384 0
v -384 -384 0
v -384 -368 0
v -368 -368 0
v -32 -384 0
v -48 -384 0
v -48 -368 0
v -32 -368 0
v -16 -384 0
v -32 -384 0
v -32 -368 0
v -16 -368 0
v 0 -384 0
v -16 -384 0
v -16 -368 0
v 0 -368 0
v -384 -400 0
v -400 -400 0
v -400 -384 0
v -384 -384 0
v -368 -400 0
v -384 -400 0
v -384 -384 0
v -368 -384 0
v -32 -400 0
v -48 -400 0
v -48 -384 0
v -32 -384 0
v -16 -400 0
v -32 -400 0
v -32 -384 0
v -16 -384 0
v 0 -400 0
v -16 -400 0
v -16 -384 0
v 0 -384 0

# Texture cooridinates (Count = 84)
vt 0.075 0.9722222
vt 0.1 0.9722222
vt 0.1 1
vt 0.075 1
vt 0.25 0.8333333
vt 0.275 0.8333333
vt 0.275 0.8611111
vt 0.25 0.8611111
vt 0.8 0.8888889
vt 0.825 0.8888889
vt 0.825 0.9166667
vt 0.8 0.9166667
vt 0.775 0.8888889
vt 0.775 0.9166667
vt 0.125 0.8333333
vt 0.15 0.8333333
vt 0.15 0.8611111
vt 0.125 0.8611111
vt 0.1 0.8333333
vt 0.1 0.8611111
vt 0.075 0.8333333
vt 0.075 0.8611111
vt 0 0.4722222
vt 0.025 0.4722222
vt 0.025 0.5
vt 0 0.5
vt 0.15 0.5277778
vt 0.175 0.5277778
vt 0.175 0.5555556
vt 0.15 0.5555556
vt 0.125 0.4722222
vt 0.15 0.4722222
vt 0.15 0.5
vt 0.125 0.5
vt 0.125 0.5277778
vt 0.125 0.5555556
vt 0.175 0.4722222
vt 0.2 0.4722222
vt 0.2 0.5
vt 0.175 0.5
vt 0.8 0.8611111
vt 0.825 0.8611111
vt 0.775 0.8611111
vt 0.125 0.4444444
vt 0.15 0.4444444
vt 0.075 0.6666666
vt 0.1 0.6666666
vt 0.1 0.6944444
vt 0.075 0.6944444
vt 0.175 0.8333333
vt 0.2 0.8333333
vt 0.2 0.8611111
vt 0.175 0.8611111
vt 0.275 0.6944444
vt 0.3 0.6944444
vt 0.3 0.7222222
vt 0.275 0.7222222
vt 0.35 0.75
vt 0.375 0.75
vt 0.375 0.7777778
vt 0.35 0.7777778
vt 0.325 0.75
vt 0.325 0.7777778
vt 0.225 0.8333333
vt 0.225 0.8611111
vt 0.35 0.7222222
vt 0.375 0.7222222
vt 0.325 0.6666666
vt 0.35 0.6666666
vt 0.35 0.6944444
vt 0.325 0.6944444
vt 0.325 0.6388889
vt 0.35 0.6388889
vt 0.325 0.7222222
vt 0.375 0.6944444
vt 0.3 0.7777778
vt 0.325 0.8055556
vt 0.3 0.8055556
vt 0.275 0.7777778
vt 0.275 0.8055556
vt 0.3 0.75
vt 0.275 0.75
vt 0.1 0.5277778
vt 0.1 0.5555556

# Normal
vn 0 0 -1

# Mesh description
g TheWorld.R08_mesh_0003

# Faces
f 1/1/1 2/2/1 3/3/1 4/4/1
f 5/5/1 6/6/1 7/7/1 8/8/1
f 9/9/1 10/10/1 11/11/1 12/12/1
f 13/13/1 14/9/1 15/12/1 16/14/1
f 17/15/1 18/16/1 19/17/1 20/18/1
f 21/19/1 22/15/1 23/18/1 24/20/1
f 25/21/1 26/19/1 27/20/1 28/22/1
f 29/23/1 30/24/1 31/25/1 32/26/1
f 33/23/1 34/24/1 35/25/1 36/26/1
f 37/27/1 38/28/1 39/29/1 40/30/1
f 41/31/1 42/32/1 43/33/1 44/34/1
f 45/35/1 46/27/1 47/30/1 48/36/1
f 49/27/1 50/28/1 51/29/1 52/30/1
f 53/35/1 54/27/1 55/30/1 56/36/1
f 57/37/1 58/38/1 59/39/1 60/40/1
f 61/1/1 62/2/1 63/3/1 64/4/1
f 65/41/1 66/42/1 67/10/1 68/9/1
f 69/43/1 70/41/1 71/9/1 72/13/1
f 73/33/1 74/40/1 75/28/1 76/27/1
f 77/44/1 78/45/1 79/32/1 80/31/1
f 81/34/1 82/33/1 83/27/1 84/35/1
f 85/33/1 86/40/1 87/28/1 88/27/1
f 89/34/1 90/33/1 91/27/1 92/35/1
f 93/37/1 94/38/1 95/39/1 96/40/1
f 97/37/1 98/38/1 99/39/1 100/40/1
f 101/5/1 102/6/1 103/7/1 104/8/1
f 105/46/1 106/47/1 107/48/1 108/49/1
f 109/50/1 110/51/1 111/52/1 112/53/1
f 113/37/1 114/38/1 115/39/1 116/40/1
f 117/37/1 118/38/1 119/39/1 120/40/1
f 121/37/1 122/38/1 123/39/1 124/40/1
f 125/54/1 126/55/1 127/56/1 128/57/1
f 129/46/1 130/47/1 131/48/1 132/49/1
f 133/37/1 134/38/1 135/39/1 136/40/1
f 137/58/1 138/59/1 139/60/1 140/61/1
f 141/62/1 142/58/1 143/61/1 144/63/1
f 145/64/1 146/5/1 147/8/1 148/65/1
f 149/37/1 150/38/1 151/39/1 152/40/1
f 153/66/1 154/67/1 155/59/1 156/58/1
f 157/68/1 158/69/1 159/70/1 160/71/1
f 161/62/1 162/58/1 163/61/1 164/63/1
f 165/37/1 166/38/1 167/39/1 168/40/1
f 169/58/1 170/59/1 171/60/1 172/61/1
f 173/72/1 174/73/1 175/69/1 176/68/1
f 177/74/1 178/66/1 179/58/1 180/62/1
f 181/37/1 182/38/1 183/39/1 184/40/1
f 185/66/1 186/67/1 187/59/1 188/58/1
f 189/74/1 190/66/1 191/58/1 192/62/1
f 193/37/1 194/38/1 195/39/1 196/40/1
f 197/37/1 198/38/1 199/39/1 200/40/1
f 201/37/1 202/38/1 203/39/1 204/40/1
f 205/5/1 206/6/1 207/7/1 208/8/1
f 209/37/1 210/38/1 211/39/1 212/40/1
f 213/46/1 214/47/1 215/48/1 216/49/1
f 217/37/1 218/38/1 219/39/1 220/40/1
f 221/70/1 222/75/1 223/67/1 224/66/1
f 225/37/1 226/38/1 227/39/1 228/40/1
f 229/46/1 230/47/1 231/48/1 232/49/1
f 233/33/1 234/40/1 235/28/1 236/27/1
f 237/1/1 238/2/1 239/3/1 240/4/1
f 241/58/1 242/59/1 243/60/1 244/61/1
f 245/62/1 246/58/1 247/61/1 248/63/1
f 249/66/1 250/67/1 251/59/1 252/58/1
f 253/74/1 254/66/1 255/58/1 256/62/1
f 257/27/1 258/28/1 259/29/1 260/30/1
f 261/35/1 262/27/1 263/30/1 264/36/1
f 265/33/1 266/40/1 267/28/1 268/27/1
f 269/34/1 270/33/1 271/27/1 272/35/1
f 273/76/1 274/63/1 275/77/1 276/78/1
f 277/79/1 278/76/1 279/78/1 280/80/1
f 281/70/1 282/75/1 283/67/1 284/66/1
f 285/81/1 286/62/1 287/63/1 288/76/1
f 289/82/1 290/81/1 291/76/1 292/79/1
f 293/27/1 294/28/1 295/29/1 296/30/1
f 297/35/1 298/27/1 299/30/1 300/36/1
f 301/58/1 302/59/1 303/60/1 304/61/1
f 305/62/1 306/58/1 307/61/1 308/63/1
f 309/27/1 310/28/1 311/29/1 312/30/1
f 313/83/1 314/35/1 315/36/1 316/84/1
f 317/32/1 318/37/1 319/40/1 320/33/1
f 321/56/1 322/74/1 323/62/1 324/81/1
f 325/57/1 326/56/1 327/81/1 328/82/1
f 329/33/1 330/40/1 331/28/1 332/27/1
f 333/44/1 334/45/1 335/32/1 336/31/1
f 337/34/1 338/33/1 339/27/1 340/35/1

