# Tiled2Unity generated file. Do not modify by hand.
# Wavefront file for 'TheWorld.R01_mesh_0005.obj'

# Vertices (Count = 32)
v -23 -8 0
v -24 -8 0
v -24 -7 0
v -23 -7 0
v -22 -8 0
v -23 -8 0
v -23 -7 0
v -22 -7 0
v -23 -9 0
v -24 -9 0
v -24 -8 0
v -23 -8 0
v -22 -9 0
v -23 -9 0
v -23 -8 0
v -22 -8 0
v -23 -11 0
v -24 -11 0
v -24 -10 0
v -23 -10 0
v -22 -11 0
v -23 -11 0
v -23 -10 0
v -22 -10 0
v -23 -12 0
v -24 -12 0
v -24 -11 0
v -23 -11 0
v -22 -12 0
v -23 -12 0
v -23 -11 0
v -22 -11 0

# Texture cooridinates (Count = 9)
vt 0.425 0.2222222
vt 0.45 0.2222222
vt 0.45 0.25
vt 0.425 0.25
vt 0.4 0.2222222
vt 0.4 0.25
vt 0.425 0.1944444
vt 0.45 0.1944444
vt 0.4 0.1944444

# Normal
vn 0 0 -1

# Mesh description
g TheWorld.R01_mesh_0005

# Faces
f 1/1/1 2/2/1 3/3/1 4/4/1
f 5/5/1 6/1/1 7/4/1 8/6/1
f 9/7/1 10/8/1 11/2/1 12/1/1
f 13/9/1 14/7/1 15/1/1 16/5/1
f 17/1/1 18/2/1 19/3/1 20/4/1
f 21/5/1 22/1/1 23/4/1 24/6/1
f 25/7/1 26/8/1 27/2/1 28/1/1
f 29/9/1 30/7/1 31/1/1 32/5/1

