# Tiled2Unity generated file. Do not modify by hand.
# Wavefront file for 'Dungeon.R08_mesh_0004.obj'

# Vertices (Count = 276)
v -15 -1 0
v -16 -1 0
v -16 0 0
v -15 0 0
v -14 -1 0
v -15 -1 0
v -15 0 0
v -14 0 0
v -13 -1 0
v -14 -1 0
v -14 0 0
v -13 0 0
v -12 -1 0
v -13 -1 0
v -13 0 0
v -12 0 0
v -11 -1 0
v -12 -1 0
v -12 0 0
v -11 0 0
v -10 -1 0
v -11 -1 0
v -11 0 0
v -10 0 0
v -9 -1 0
v -10 -1 0
v -10 0 0
v -9 0 0
v -8 -1 0
v -9 -1 0
v -9 0 0
v -8 0 0
v -7 -1 0
v -8 -1 0
v -8 0 0
v -7 0 0
v -6 -1 0
v -7 -1 0
v -7 0 0
v -6 0 0
v -5 -1 0
v -6 -1 0
v -6 0 0
v -5 0 0
v -4 -1 0
v -5 -1 0
v -5 0 0
v -4 0 0
v -15 -2 0
v -16 -2 0
v -16 -1 0
v -15 -1 0
v -14 -2 0
v -15 -2 0
v -15 -1 0
v -14 -1 0
v -13 -2 0
v -14 -2 0
v -14 -1 0
v -13 -1 0
v -12 -2 0
v -13 -2 0
v -13 -1 0
v -12 -1 0
v -11 -2 0
v -12 -2 0
v -12 -1 0
v -11 -1 0
v -10 -2 0
v -11 -2 0
v -11 -1 0
v -10 -1 0
v -9 -2 0
v -10 -2 0
v -10 -1 0
v -9 -1 0
v -8 -2 0
v -9 -2 0
v -9 -1 0
v -8 -1 0
v -7 -2 0
v -8 -2 0
v -8 -1 0
v -7 -1 0
v -6 -2 0
v -7 -2 0
v -7 -1 0
v -6 -1 0
v -5 -2 0
v -6 -2 0
v -6 -1 0
v -5 -1 0
v -4 -2 0
v -5 -2 0
v -5 -1 0
v -4 -1 0
v -5 -3 0
v -6 -3 0
v -6 -2 0
v -5 -2 0
v -3 -4 0
v -4 -4 0
v -4 -3 0
v -3 -3 0
v -2 -4 0
v -3 -4 0
v -3 -3 0
v -2 -3 0
v -1 -4 0
v -2 -4 0
v -2 -3 0
v -1 -3 0
v 0 -4 0
v -1 -4 0
v -1 -3 0
v 0 -3 0
v -3 -5 0
v -4 -5 0
v -4 -4 0
v -3 -4 0
v -2 -5 0
v -3 -5 0
v -3 -4 0
v -2 -4 0
v -1 -5 0
v -2 -5 0
v -2 -4 0
v -1 -4 0
v 0 -5 0
v -1 -5 0
v -1 -4 0
v 0 -4 0
v -15 -12 0
v -16 -12 0
v -16 -11 0
v -15 -11 0
v -14 -12 0
v -15 -12 0
v -15 -11 0
v -14 -11 0
v -13 -12 0
v -14 -12 0
v -14 -11 0
v -13 -11 0
v -12 -12 0
v -13 -12 0
v -13 -11 0
v -12 -11 0
v -11 -12 0
v -12 -12 0
v -12 -11 0
v -11 -11 0
v -10 -12 0
v -11 -12 0
v -11 -11 0
v -10 -11 0
v -9 -12 0
v -10 -12 0
v -10 -11 0
v -9 -11 0
v -8 -12 0
v -9 -12 0
v -9 -11 0
v -8 -11 0
v -7 -12 0
v -8 -12 0
v -8 -11 0
v -7 -11 0
v -6 -12 0
v -7 -12 0
v -7 -11 0
v -6 -11 0
v -5 -12 0
v -6 -12 0
v -6 -11 0
v -5 -11 0
v -4 -12 0
v -5 -12 0
v -5 -11 0
v -4 -11 0
v -3 -12 0
v -4 -12 0
v -4 -11 0
v -3 -11 0
v -2 -12 0
v -3 -12 0
v -3 -11 0
v -2 -11 0
v -1 -12 0
v -2 -12 0
v -2 -11 0
v -1 -11 0
v 0 -12 0
v -1 -12 0
v -1 -11 0
v 0 -11 0
v -15 -13 0
v -16 -13 0
v -16 -12 0
v -15 -12 0
v -14 -13 0
v -15 -13 0
v -15 -12 0
v -14 -12 0
v -13 -13 0
v -14 -13 0
v -14 -12 0
v -13 -12 0
v -12 -13 0
v -13 -13 0
v -13 -12 0
v -12 -12 0
v -11 -13 0
v -12 -13 0
v -12 -12 0
v -11 -12 0
v -10 -13 0
v -11 -13 0
v -11 -12 0
v -10 -12 0
v -9 -13 0
v -10 -13 0
v -10 -12 0
v -9 -12 0
v -8 -13 0
v -9 -13 0
v -9 -12 0
v -8 -12 0
v -7 -13 0
v -8 -13 0
v -8 -12 0
v -7 -12 0
v -6 -13 0
v -7 -13 0
v -7 -12 0
v -6 -12 0
v -5 -13 0
v -6 -13 0
v -6 -12 0
v -5 -12 0
v -4 -13 0
v -5 -13 0
v -5 -12 0
v -4 -12 0
v -3 -13 0
v -4 -13 0
v -4 -12 0
v -3 -12 0
v -2 -13 0
v -3 -13 0
v -3 -12 0
v -2 -12 0
v -1 -13 0
v -2 -13 0
v -2 -12 0
v -1 -12 0
v 0 -13 0
v -1 -13 0
v -1 -12 0
v 0 -12 0
v -15 -14 0
v -16 -14 0
v -16 -13 0
v -15 -13 0
v -11 -14 0
v -12 -14 0
v -12 -13 0
v -11 -13 0
v -7 -14 0
v -8 -14 0
v -8 -13 0
v -7 -13 0
v -3 -14 0
v -4 -14 0
v -4 -13 0
v -3 -13 0

# Texture cooridinates (Count = 42)
vt 0.0625 0.9375
vt 0.125 0.9375
vt 0.125 1
vt 0.0625 1
vt 0.6875 0.6875
vt 0.75 0.6875
vt 0.75 0.75
vt 0.6875 0.75
vt 0.625 0.6875
vt 0.625 0.75
vt 0.375 0.75
vt 0.4375 0.75
vt 0.4375 0.8125
vt 0.375 0.8125
vt 0 0.9375
vt 0 1
vt 0.0625 0.875
vt 0.125 0.875
vt 0.875 0.6875
vt 0.9375 0.6875
vt 0.9375 0.75
vt 0.875 0.75
vt 0.8125 0.625
vt 0.875 0.625
vt 0.8125 0.6875
vt 0.75 0.625
vt 0.375 0.6875
vt 0.4375 0.6875
vt 0 0.875
vt 0.375 0.625
vt 0.4375 0.625
vt 0.1875 0.9375
vt 0.1875 1
vt 0.1875 0.875
vt 0.25 0.9375
vt 0.25 1
vt 0.25 0.8125
vt 0.3125 0.8125
vt 0.3125 0.875
vt 0.25 0.875
vt 0.25 0.75
vt 0.3125 0.75

# Normal
vn 0 0 -1

# Mesh description
g Dungeon.R08_mesh_0004

# Faces
f 1/1/1 2/2/1 3/3/1 4/4/1
f 5/1/1 6/2/1 7/3/1 8/4/1
f 9/1/1 10/2/1 11/3/1 12/4/1
f 13/1/1 14/2/1 15/3/1 16/4/1
f 17/5/1 18/6/1 19/7/1 20/8/1
f 21/9/1 22/5/1 23/8/1 24/10/1
f 25/1/1 26/2/1 27/3/1 28/4/1
f 29/1/1 30/2/1 31/3/1 32/4/1
f 33/1/1 34/2/1 35/3/1 36/4/1
f 37/1/1 38/2/1 39/3/1 40/4/1
f 41/11/1 42/12/1 43/13/1 44/14/1
f 45/15/1 46/1/1 47/4/1 48/16/1
f 49/17/1 50/18/1 51/2/1 52/1/1
f 53/17/1 54/18/1 55/2/1 56/1/1
f 57/19/1 58/20/1 59/21/1 60/22/1
f 61/17/1 62/18/1 63/2/1 64/1/1
f 65/23/1 66/24/1 67/19/1 68/25/1
f 69/26/1 70/23/1 71/25/1 72/6/1
f 73/17/1 74/18/1 75/2/1 76/1/1
f 77/19/1 78/20/1 79/21/1 80/22/1
f 81/17/1 82/18/1 83/2/1 84/1/1
f 85/17/1 86/18/1 87/2/1 88/1/1
f 89/27/1 90/28/1 91/12/1 92/11/1
f 93/29/1 94/17/1 95/1/1 96/15/1
f 97/30/1 98/31/1 99/28/1 100/27/1
f 101/2/1 102/32/1 103/33/1 104/3/1
f 105/1/1 106/2/1 107/3/1 108/4/1
f 109/1/1 110/2/1 111/3/1 112/4/1
f 113/1/1 114/2/1 115/3/1 116/4/1
f 117/18/1 118/34/1 119/32/1 120/2/1
f 121/19/1 122/20/1 123/21/1 124/22/1
f 125/17/1 126/18/1 127/2/1 128/1/1
f 129/19/1 130/20/1 131/21/1 132/22/1
f 133/11/1 134/12/1 135/13/1 136/14/1
f 137/1/1 138/2/1 139/3/1 140/4/1
f 141/1/1 142/2/1 143/3/1 144/4/1
f 145/1/1 146/2/1 147/3/1 148/4/1
f 149/11/1 150/12/1 151/13/1 152/14/1
f 153/1/1 154/2/1 155/3/1 156/4/1
f 157/1/1 158/2/1 159/3/1 160/4/1
f 161/1/1 162/2/1 163/3/1 164/4/1
f 165/11/1 166/12/1 167/13/1 168/14/1
f 169/1/1 170/2/1 171/3/1 172/4/1
f 173/1/1 174/2/1 175/3/1 176/4/1
f 177/1/1 178/2/1 179/3/1 180/4/1
f 181/11/1 182/12/1 183/13/1 184/14/1
f 185/1/1 186/2/1 187/3/1 188/4/1
f 189/1/1 190/2/1 191/3/1 192/4/1
f 193/1/1 194/2/1 195/3/1 196/4/1
f 197/27/1 198/28/1 199/12/1 200/11/1
f 201/17/1 202/18/1 203/2/1 204/1/1
f 205/32/1 206/35/1 207/36/1 208/33/1
f 209/17/1 210/18/1 211/2/1 212/1/1
f 213/27/1 214/28/1 215/12/1 216/11/1
f 217/17/1 218/18/1 219/2/1 220/1/1
f 221/37/1 222/38/1 223/39/1 224/40/1
f 225/17/1 226/18/1 227/2/1 228/1/1
f 229/27/1 230/28/1 231/12/1 232/11/1
f 233/41/1 234/42/1 235/38/1 236/37/1
f 237/17/1 238/18/1 239/2/1 240/1/1
f 241/17/1 242/18/1 243/2/1 244/1/1
f 245/27/1 246/28/1 247/12/1 248/11/1
f 249/37/1 250/38/1 251/39/1 252/40/1
f 253/17/1 254/18/1 255/2/1 256/1/1
f 257/37/1 258/38/1 259/39/1 260/40/1
f 261/30/1 262/31/1 263/28/1 264/27/1
f 265/30/1 266/31/1 267/28/1 268/27/1
f 269/30/1 270/31/1 271/28/1 272/27/1
f 273/30/1 274/31/1 275/28/1 276/27/1

