# Tiled2Unity generated file. Do not modify by hand.
# Wavefront file for '2D.TR_mesh_0005.obj'

# Vertices (Count = 56)
v -13 -1 0
v -14 -1 0
v -14 0 0
v -13 0 0
v -12 -1 0
v -13 -1 0
v -13 0 0
v -12 0 0
v -11 -1 0
v -12 -1 0
v -12 0 0
v -11 0 0
v -10 -1 0
v -11 -1 0
v -11 0 0
v -10 0 0
v -4 -1 0
v -5 -1 0
v -5 0 0
v -4 0 0
v -3 -1 0
v -4 -1 0
v -4 0 0
v -3 0 0
v -2 -1 0
v -3 -1 0
v -3 0 0
v -2 0 0
v -13 -2 0
v -14 -2 0
v -14 -1 0
v -13 -1 0
v -12 -2 0
v -13 -2 0
v -13 -1 0
v -12 -1 0
v -11 -2 0
v -12 -2 0
v -12 -1 0
v -11 -1 0
v -10 -2 0
v -11 -2 0
v -11 -1 0
v -10 -1 0
v -4 -2 0
v -5 -2 0
v -5 -1 0
v -4 -1 0
v -3 -2 0
v -4 -2 0
v -4 -1 0
v -3 -1 0
v -2 -2 0
v -3 -2 0
v -3 -1 0
v -2 -1 0

# Texture cooridinates (Count = 6)
vt 0.0625 0.9375
vt 0.125 0.9375
vt 0.125 1
vt 0.0625 1
vt 0.0625 0.875
vt 0.125 0.875

# Normal
vn 0 0 -1

# Mesh description
g 2D.TR_mesh_0005

# Faces
f 1/1/1 2/2/1 3/3/1 4/4/1
f 5/1/1 6/2/1 7/3/1 8/4/1
f 9/1/1 10/2/1 11/3/1 12/4/1
f 13/1/1 14/2/1 15/3/1 16/4/1
f 17/1/1 18/2/1 19/3/1 20/4/1
f 21/1/1 22/2/1 23/3/1 24/4/1
f 25/1/1 26/2/1 27/3/1 28/4/1
f 29/5/1 30/6/1 31/2/1 32/1/1
f 33/5/1 34/6/1 35/2/1 36/1/1
f 37/5/1 38/6/1 39/2/1 40/1/1
f 41/5/1 42/6/1 43/2/1 44/1/1
f 45/5/1 46/6/1 47/2/1 48/1/1
f 49/5/1 50/6/1 51/2/1 52/1/1
f 53/5/1 54/6/1 55/2/1 56/1/1

