# Tiled2Unity generated file. Do not modify by hand.
# Wavefront file for '2D.TR_mesh_0004.obj'

# Vertices (Count = 48)
v -14 -1 0
v -15 -1 0
v -15 0 0
v -14 0 0
v -9 -1 0
v -10 -1 0
v -10 0 0
v -9 0 0
v -6 -1 0
v -7 -1 0
v -7 0 0
v -6 0 0
v -5 -1 0
v -6 -1 0
v -6 0 0
v -5 0 0
v -1 -1 0
v -2 -1 0
v -2 0 0
v -1 0 0
v -14 -2 0
v -15 -2 0
v -15 -1 0
v -14 -1 0
v -9 -2 0
v -10 -2 0
v -10 -1 0
v -9 -1 0
v -6 -2 0
v -7 -2 0
v -7 -1 0
v -6 -1 0
v -5 -2 0
v -6 -2 0
v -6 -1 0
v -5 -1 0
v -1 -2 0
v -2 -2 0
v -2 -1 0
v -1 -1 0
v -15 -6 0
v -16 -6 0
v -16 -5 0
v -15 -5 0
v -15 -7 0
v -16 -7 0
v -16 -6 0
v -15 -6 0

# Texture cooridinates (Count = 12)
vt 0.125 0.9375
vt 0.1875 0.9375
vt 0.1875 1
vt 0.125 1
vt 0 0.9375
vt 0.0625 0.9375
vt 0.0625 1
vt 0 1
vt 0.125 0.875
vt 0.1875 0.875
vt 0 0.875
vt 0.0625 0.875

# Normal
vn 0 0 -1

# Mesh description
g 2D.TR_mesh_0004

# Faces
f 1/1/1 2/2/1 3/3/1 4/4/1
f 5/5/1 6/6/1 7/7/1 8/8/1
f 9/1/1 10/2/1 11/3/1 12/4/1
f 13/6/1 14/1/1 15/4/1 16/7/1
f 17/5/1 18/6/1 19/7/1 20/8/1
f 21/9/1 22/10/1 23/2/1 24/1/1
f 25/11/1 26/12/1 27/6/1 28/5/1
f 29/9/1 30/10/1 31/2/1 32/1/1
f 33/12/1 34/9/1 35/1/1 36/6/1
f 37/11/1 38/12/1 39/6/1 40/5/1
f 41/5/1 42/6/1 43/7/1 44/8/1
f 45/11/1 46/12/1 47/6/1 48/5/1

