# Tiled2Unity generated file. Do not modify by hand.
# Wavefront file for 'Room-07_mesh_0004.obj'

# Vertices (Count = 936)
v -24 -1 0
v -25 -1 0
v -25 0 0
v -24 0 0
v -23 -1 0
v -24 -1 0
v -24 0 0
v -23 0 0
v -22 -1 0
v -23 -1 0
v -23 0 0
v -22 0 0
v -21 -1 0
v -22 -1 0
v -22 0 0
v -21 0 0
v -20 -1 0
v -21 -1 0
v -21 0 0
v -20 0 0
v -19 -1 0
v -20 -1 0
v -20 0 0
v -19 0 0
v -18 -1 0
v -19 -1 0
v -19 0 0
v -18 0 0
v -17 -1 0
v -18 -1 0
v -18 0 0
v -17 0 0
v -16 -1 0
v -17 -1 0
v -17 0 0
v -16 0 0
v -15 -1 0
v -16 -1 0
v -16 0 0
v -15 0 0
v -14 -1 0
v -15 -1 0
v -15 0 0
v -14 0 0
v -11 -1 0
v -12 -1 0
v -12 0 0
v -11 0 0
v -10 -1 0
v -11 -1 0
v -11 0 0
v -10 0 0
v -9 -1 0
v -10 -1 0
v -10 0 0
v -9 0 0
v -8 -1 0
v -9 -1 0
v -9 0 0
v -8 0 0
v -7 -1 0
v -8 -1 0
v -8 0 0
v -7 0 0
v -6 -1 0
v -7 -1 0
v -7 0 0
v -6 0 0
v -5 -1 0
v -6 -1 0
v -6 0 0
v -5 0 0
v -4 -1 0
v -5 -1 0
v -5 0 0
v -4 0 0
v -3 -1 0
v -4 -1 0
v -4 0 0
v -3 0 0
v -2 -1 0
v -3 -1 0
v -3 0 0
v -2 0 0
v -1 -1 0
v -2 -1 0
v -2 0 0
v -1 0 0
v 0 -1 0
v -1 -1 0
v -1 0 0
v 0 0 0
v -24 -2 0
v -25 -2 0
v -25 -1 0
v -24 -1 0
v -1 -2 0
v -2 -2 0
v -2 -1 0
v -1 -1 0
v 0 -2 0
v -1 -2 0
v -1 -1 0
v 0 -1 0
v -24 -3 0
v -25 -3 0
v -25 -2 0
v -24 -2 0
v -18 -3 0
v -19 -3 0
v -19 -2 0
v -18 -2 0
v -17 -3 0
v -18 -3 0
v -18 -2 0
v -17 -2 0
v -16 -3 0
v -17 -3 0
v -17 -2 0
v -16 -2 0
v -15 -3 0
v -16 -3 0
v -16 -2 0
v -15 -2 0
v -10 -3 0
v -11 -3 0
v -11 -2 0
v -10 -2 0
v -9 -3 0
v -10 -3 0
v -10 -2 0
v -9 -2 0
v -8 -3 0
v -9 -3 0
v -9 -2 0
v -8 -2 0
v -7 -3 0
v -8 -3 0
v -8 -2 0
v -7 -2 0
v -6 -3 0
v -7 -3 0
v -7 -2 0
v -6 -2 0
v -5 -3 0
v -6 -3 0
v -6 -2 0
v -5 -2 0
v -4 -3 0
v -5 -3 0
v -5 -2 0
v -4 -2 0
v -3 -3 0
v -4 -3 0
v -4 -2 0
v -3 -2 0
v -2 -3 0
v -3 -3 0
v -3 -2 0
v -2 -2 0
v -1 -3 0
v -2 -3 0
v -2 -2 0
v -1 -2 0
v 0 -3 0
v -1 -3 0
v -1 -2 0
v 0 -2 0
v -24 -4 0
v -25 -4 0
v -25 -3 0
v -24 -3 0
v -18 -4 0
v -19 -4 0
v -19 -3 0
v -18 -3 0
v -17 -4 0
v -18 -4 0
v -18 -3 0
v -17 -3 0
v -16 -4 0
v -17 -4 0
v -17 -3 0
v -16 -3 0
v -15 -4 0
v -16 -4 0
v -16 -3 0
v -15 -3 0
v -10 -4 0
v -11 -4 0
v -11 -3 0
v -10 -3 0
v -9 -4 0
v -10 -4 0
v -10 -3 0
v -9 -3 0
v -8 -4 0
v -9 -4 0
v -9 -3 0
v -8 -3 0
v -7 -4 0
v -8 -4 0
v -8 -3 0
v -7 -3 0
v -2 -4 0
v -3 -4 0
v -3 -3 0
v -2 -3 0
v -1 -4 0
v -2 -4 0
v -2 -3 0
v -1 -3 0
v 0 -4 0
v -1 -4 0
v -1 -3 0
v 0 -3 0
v -24 -5 0
v -25 -5 0
v -25 -4 0
v -24 -4 0
v -21 -5 0
v -22 -5 0
v -22 -4 0
v -21 -4 0
v -20 -5 0
v -21 -5 0
v -21 -4 0
v -20 -4 0
v -19 -5 0
v -20 -5 0
v -20 -4 0
v -19 -4 0
v -18 -5 0
v -19 -5 0
v -19 -4 0
v -18 -4 0
v -17 -5 0
v -18 -5 0
v -18 -4 0
v -17 -4 0
v -16 -5 0
v -17 -5 0
v -17 -4 0
v -16 -4 0
v -15 -5 0
v -16 -5 0
v -16 -4 0
v -15 -4 0
v -10 -5 0
v -11 -5 0
v -11 -4 0
v -10 -4 0
v -9 -5 0
v -10 -5 0
v -10 -4 0
v -9 -4 0
v -8 -5 0
v -9 -5 0
v -9 -4 0
v -8 -4 0
v -2 -5 0
v -3 -5 0
v -3 -4 0
v -2 -4 0
v -1 -5 0
v -2 -5 0
v -2 -4 0
v -1 -4 0
v 0 -5 0
v -1 -5 0
v -1 -4 0
v 0 -4 0
v -24 -6 0
v -25 -6 0
v -25 -5 0
v -24 -5 0
v -21 -6 0
v -22 -6 0
v -22 -5 0
v -21 -5 0
v -20 -6 0
v -21 -6 0
v -21 -5 0
v -20 -5 0
v -19 -6 0
v -20 -6 0
v -20 -5 0
v -19 -5 0
v -18 -6 0
v -19 -6 0
v -19 -5 0
v -18 -5 0
v -17 -6 0
v -18 -6 0
v -18 -5 0
v -17 -5 0
v -16 -6 0
v -17 -6 0
v -17 -5 0
v -16 -5 0
v -15 -6 0
v -16 -6 0
v -16 -5 0
v -15 -5 0
v -10 -6 0
v -11 -6 0
v -11 -5 0
v -10 -5 0
v 0 -6 0
v -1 -6 0
v -1 -5 0
v 0 -5 0
v -24 -7 0
v -25 -7 0
v -25 -6 0
v -24 -6 0
v -21 -7 0
v -22 -7 0
v -22 -6 0
v -21 -6 0
v -20 -7 0
v -21 -7 0
v -21 -6 0
v -20 -6 0
v -19 -7 0
v -20 -7 0
v -20 -6 0
v -19 -6 0
v -18 -7 0
v -19 -7 0
v -19 -6 0
v -18 -6 0
v -17 -7 0
v -18 -7 0
v -18 -6 0
v -17 -6 0
v -16 -7 0
v -17 -7 0
v -17 -6 0
v -16 -6 0
v -10 -7 0
v -11 -7 0
v -11 -6 0
v -10 -6 0
v 0 -7 0
v -1 -7 0
v -1 -6 0
v 0 -6 0
v -24 -8 0
v -25 -8 0
v -25 -7 0
v -24 -7 0
v -10 -8 0
v -11 -8 0
v -11 -7 0
v -10 -7 0
v 0 -8 0
v -1 -8 0
v -1 -7 0
v 0 -7 0
v -24 -9 0
v -25 -9 0
v -25 -8 0
v -24 -8 0
v -22 -9 0
v -23 -9 0
v -23 -8 0
v -22 -8 0
v -21 -9 0
v -22 -9 0
v -22 -8 0
v -21 -8 0
v -20 -9 0
v -21 -9 0
v -21 -8 0
v -20 -8 0
v -19 -9 0
v -20 -9 0
v -20 -8 0
v -19 -8 0
v -18 -9 0
v -19 -9 0
v -19 -8 0
v -18 -8 0
v -17 -9 0
v -18 -9 0
v -18 -8 0
v -17 -8 0
v -16 -9 0
v -17 -9 0
v -17 -8 0
v -16 -8 0
v -15 -9 0
v -16 -9 0
v -16 -8 0
v -15 -8 0
v -10 -9 0
v -11 -9 0
v -11 -8 0
v -10 -8 0
v 0 -9 0
v -1 -9 0
v -1 -8 0
v 0 -8 0
v -24 -10 0
v -25 -10 0
v -25 -9 0
v -24 -9 0
v -22 -10 0
v -23 -10 0
v -23 -9 0
v -22 -9 0
v -15 -10 0
v -16 -10 0
v -16 -9 0
v -15 -9 0
v -10 -10 0
v -11 -10 0
v -11 -9 0
v -10 -9 0
v 0 -10 0
v -1 -10 0
v -1 -9 0
v 0 -9 0
v -24 -11 0
v -25 -11 0
v -25 -10 0
v -24 -10 0
v -22 -11 0
v -23 -11 0
v -23 -10 0
v -22 -10 0
v -15 -11 0
v -16 -11 0
v -16 -10 0
v -15 -10 0
v -10 -11 0
v -11 -11 0
v -11 -10 0
v -10 -10 0
v 0 -11 0
v -1 -11 0
v -1 -10 0
v 0 -10 0
v -24 -12 0
v -25 -12 0
v -25 -11 0
v -24 -11 0
v -22 -12 0
v -23 -12 0
v -23 -11 0
v -22 -11 0
v -15 -12 0
v -16 -12 0
v -16 -11 0
v -15 -11 0
v -10 -12 0
v -11 -12 0
v -11 -11 0
v -10 -11 0
v -9 -12 0
v -10 -12 0
v -10 -11 0
v -9 -11 0
v -1 -12 0
v -2 -12 0
v -2 -11 0
v -1 -11 0
v 0 -12 0
v -1 -12 0
v -1 -11 0
v 0 -11 0
v -24 -13 0
v -25 -13 0
v -25 -12 0
v -24 -12 0
v -22 -13 0
v -23 -13 0
v -23 -12 0
v -22 -12 0
v -15 -13 0
v -16 -13 0
v -16 -12 0
v -15 -12 0
v -10 -13 0
v -11 -13 0
v -11 -12 0
v -10 -12 0
v -9 -13 0
v -10 -13 0
v -10 -12 0
v -9 -12 0
v -1 -13 0
v -2 -13 0
v -2 -12 0
v -1 -12 0
v 0 -13 0
v -1 -13 0
v -1 -12 0
v 0 -12 0
v -24 -14 0
v -25 -14 0
v -25 -13 0
v -24 -13 0
v -22 -14 0
v -23 -14 0
v -23 -13 0
v -22 -13 0
v -15 -14 0
v -16 -14 0
v -16 -13 0
v -15 -13 0
v -10 -14 0
v -11 -14 0
v -11 -13 0
v -10 -13 0
v -9 -14 0
v -10 -14 0
v -10 -13 0
v -9 -13 0
v -1 -14 0
v -2 -14 0
v -2 -13 0
v -1 -13 0
v 0 -14 0
v -1 -14 0
v -1 -13 0
v 0 -13 0
v -24 -15 0
v -25 -15 0
v -25 -14 0
v -24 -14 0
v -22 -15 0
v -23 -15 0
v -23 -14 0
v -22 -14 0
v -15 -15 0
v -16 -15 0
v -16 -14 0
v -15 -14 0
v -10 -15 0
v -11 -15 0
v -11 -14 0
v -10 -14 0
v -9 -15 0
v -10 -15 0
v -10 -14 0
v -9 -14 0
v -1 -15 0
v -2 -15 0
v -2 -14 0
v -1 -14 0
v 0 -15 0
v -1 -15 0
v -1 -14 0
v 0 -14 0
v -24 -16 0
v -25 -16 0
v -25 -15 0
v -24 -15 0
v -22 -16 0
v -23 -16 0
v -23 -15 0
v -22 -15 0
v -21 -16 0
v -22 -16 0
v -22 -15 0
v -21 -15 0
v -20 -16 0
v -21 -16 0
v -21 -15 0
v -20 -15 0
v -19 -16 0
v -20 -16 0
v -20 -15 0
v -19 -15 0
v -18 -16 0
v -19 -16 0
v -19 -15 0
v -18 -15 0
v -17 -16 0
v -18 -16 0
v -18 -15 0
v -17 -15 0
v -16 -16 0
v -17 -16 0
v -17 -15 0
v -16 -15 0
v -15 -16 0
v -16 -16 0
v -16 -15 0
v -15 -15 0
v -10 -16 0
v -11 -16 0
v -11 -15 0
v -10 -15 0
v -7 -16 0
v -8 -16 0
v -8 -15 0
v -7 -15 0
v 0 -16 0
v -1 -16 0
v -1 -15 0
v 0 -15 0
v -24 -17 0
v -25 -17 0
v -25 -16 0
v -24 -16 0
v -10 -17 0
v -11 -17 0
v -11 -16 0
v -10 -16 0
v -9 -17 0
v -10 -17 0
v -10 -16 0
v -9 -16 0
v -8 -17 0
v -9 -17 0
v -9 -16 0
v -8 -16 0
v -7 -17 0
v -8 -17 0
v -8 -16 0
v -7 -16 0
v -6 -17 0
v -7 -17 0
v -7 -16 0
v -6 -16 0
v -4 -17 0
v -5 -17 0
v -5 -16 0
v -4 -16 0
v -3 -17 0
v -4 -17 0
v -4 -16 0
v -3 -16 0
v -2 -17 0
v -3 -17 0
v -3 -16 0
v -2 -16 0
v -1 -17 0
v -2 -17 0
v -2 -16 0
v -1 -16 0
v 0 -17 0
v -1 -17 0
v -1 -16 0
v 0 -16 0
v -24 -20 0
v -25 -20 0
v -25 -19 0
v -24 -19 0
v -23 -20 0
v -24 -20 0
v -24 -19 0
v -23 -19 0
v -19 -20 0
v -20 -20 0
v -20 -19 0
v -19 -19 0
v -18 -20 0
v -19 -20 0
v -19 -19 0
v -18 -19 0
v -17 -20 0
v -18 -20 0
v -18 -19 0
v -17 -19 0
v -16 -20 0
v -17 -20 0
v -17 -19 0
v -16 -19 0
v -15 -20 0
v -16 -20 0
v -16 -19 0
v -15 -19 0
v -14 -20 0
v -15 -20 0
v -15 -19 0
v -14 -19 0
v -10 -20 0
v -11 -20 0
v -11 -19 0
v -10 -19 0
v -9 -20 0
v -10 -20 0
v -10 -19 0
v -9 -19 0
v -7 -20 0
v -8 -20 0
v -8 -19 0
v -7 -19 0
v -6 -20 0
v -7 -20 0
v -7 -19 0
v -6 -19 0
v -5 -20 0
v -6 -20 0
v -6 -19 0
v -5 -19 0
v -4 -20 0
v -5 -20 0
v -5 -19 0
v -4 -19 0
v -24 -21 0
v -25 -21 0
v -25 -20 0
v -24 -20 0
v -18 -21 0
v -19 -21 0
v -19 -20 0
v -18 -20 0
v -17 -21 0
v -18 -21 0
v -18 -20 0
v -17 -20 0
v -16 -21 0
v -17 -21 0
v -17 -20 0
v -16 -20 0
v -15 -21 0
v -16 -21 0
v -16 -20 0
v -15 -20 0
v -9 -21 0
v -10 -21 0
v -10 -20 0
v -9 -20 0
v -8 -21 0
v -9 -21 0
v -9 -20 0
v -8 -20 0
v -7 -21 0
v -8 -21 0
v -8 -20 0
v -7 -20 0
v -6 -21 0
v -7 -21 0
v -7 -20 0
v -6 -20 0
v -24 -22 0
v -25 -22 0
v -25 -21 0
v -24 -21 0
v -18 -22 0
v -19 -22 0
v -19 -21 0
v -18 -21 0
v -16 -22 0
v -17 -22 0
v -17 -21 0
v -16 -21 0
v -15 -22 0
v -16 -22 0
v -16 -21 0
v -15 -21 0
v -9 -22 0
v -10 -22 0
v -10 -21 0
v -9 -21 0
v -7 -22 0
v -8 -22 0
v -8 -21 0
v -7 -21 0
v -6 -22 0
v -7 -22 0
v -7 -21 0
v -6 -21 0
v -24 -23 0
v -25 -23 0
v -25 -22 0
v -24 -22 0
v -18 -23 0
v -19 -23 0
v -19 -22 0
v -18 -22 0
v -17 -23 0
v -18 -23 0
v -18 -22 0
v -17 -22 0
v -16 -23 0
v -17 -23 0
v -17 -22 0
v -16 -22 0
v -15 -23 0
v -16 -23 0
v -16 -22 0
v -15 -22 0
v -9 -23 0
v -10 -23 0
v -10 -22 0
v -9 -22 0
v -7 -23 0
v -8 -23 0
v -8 -22 0
v -7 -22 0
v -6 -23 0
v -7 -23 0
v -7 -22 0
v -6 -22 0
v -24 -24 0
v -25 -24 0
v -25 -23 0
v -24 -23 0
v -18 -24 0
v -19 -24 0
v -19 -23 0
v -18 -23 0
v -17 -24 0
v -18 -24 0
v -18 -23 0
v -17 -23 0
v -16 -24 0
v -17 -24 0
v -17 -23 0
v -16 -23 0
v -15 -24 0
v -16 -24 0
v -16 -23 0
v -15 -23 0
v -9 -24 0
v -10 -24 0
v -10 -23 0
v -9 -23 0
v -8 -24 0
v -9 -24 0
v -9 -23 0
v -8 -23 0
v -7 -24 0
v -8 -24 0
v -8 -23 0
v -7 -23 0
v -6 -24 0
v -7 -24 0
v -7 -23 0
v -6 -23 0
v -24 -25 0
v -25 -25 0
v -25 -24 0
v -24 -24 0
v -23 -25 0
v -24 -25 0
v -24 -24 0
v -23 -24 0
v -22 -25 0
v -23 -25 0
v -23 -24 0
v -22 -24 0
v -21 -25 0
v -22 -25 0
v -22 -24 0
v -21 -24 0
v -20 -25 0
v -21 -25 0
v -21 -24 0
v -20 -24 0
v -19 -25 0
v -20 -25 0
v -20 -24 0
v -19 -24 0
v -18 -25 0
v -19 -25 0
v -19 -24 0
v -18 -24 0
v -17 -25 0
v -18 -25 0
v -18 -24 0
v -17 -24 0
v -16 -25 0
v -17 -25 0
v -17 -24 0
v -16 -24 0
v -15 -25 0
v -16 -25 0
v -16 -24 0
v -15 -24 0
v -14 -25 0
v -15 -25 0
v -15 -24 0
v -14 -24 0
v -13 -25 0
v -14 -25 0
v -14 -24 0
v -13 -24 0
v -12 -25 0
v -13 -25 0
v -13 -24 0
v -12 -24 0
v -11 -25 0
v -12 -25 0
v -12 -24 0
v -11 -24 0
v -10 -25 0
v -11 -25 0
v -11 -24 0
v -10 -24 0
v -9 -25 0
v -10 -25 0
v -10 -24 0
v -9 -24 0
v -8 -25 0
v -9 -25 0
v -9 -24 0
v -8 -24 0
v -7 -25 0
v -8 -25 0
v -8 -24 0
v -7 -24 0
v -6 -25 0
v -7 -25 0
v -7 -24 0
v -6 -24 0
v -5 -25 0
v -6 -25 0
v -6 -24 0
v -5 -24 0
v -4 -25 0
v -5 -25 0
v -5 -24 0
v -4 -24 0
v -3 -25 0
v -4 -25 0
v -4 -24 0
v -3 -24 0
v -2 -25 0
v -3 -25 0
v -3 -24 0
v -2 -24 0
v -1 -25 0
v -2 -25 0
v -2 -24 0
v -1 -24 0
v 0 -25 0
v -1 -25 0
v -1 -24 0
v 0 -24 0

# Texture cooridinates (Count = 113)
vt 0.075 0.4444444
vt 0.1 0.4444444
vt 0.1 0.4722222
vt 0.075 0.4722222
vt 0.125 0.4444444
vt 0.15 0.4444444
vt 0.15 0.4722222
vt 0.125 0.4722222
vt 0.125 0.5
vt 0.15 0.5
vt 0.15 0.5277778
vt 0.125 0.5277778
vt 0.175 0.5
vt 0.175 0.5277778
vt 0.05 0.5277778
vt 0.075 0.5277778
vt 0.075 0.5555556
vt 0.05 0.5555556
vt 0.175 0.4722222
vt 0.175 0.5555556
vt 0.15 0.5555556
vt 0.125 0.5555556
vt 0.075 0.6111111
vt 0.1 0.6111111
vt 0.1 0.6388889
vt 0.075 0.6388889
vt 0.05 0.6111111
vt 0.05 0.6388889
vt 0.025 0.6111111
vt 0.025 0.6388889
vt 0.2 0.4722222
vt 0.2 0.5
vt 0.075 0.5833334
vt 0.1 0.5833334
vt 0.175 0.8333333
vt 0.2 0.8333333
vt 0.2 0.8611111
vt 0.175 0.8611111
vt 0.1 0.5277778
vt 0.1 0.5555556
vt 0.025 0.5555556
vt 0.05 0.5833334
vt 0.025 0.5833334
vt 0.075 0.5
vt 0.1 0.5
vt 0 0.4444444
vt 0.025 0.4444444
vt 0.025 0.4722222
vt 0 0.4722222
vt 0.05 0.4444444
vt 0.05 0.4722222
vt 0.05 0.5
vt 0.025 0.5
vt 0 0.5
vt 0.675 0.8611111
vt 0.7 0.8611111
vt 0.7 0.8888889
vt 0.675 0.8888889
vt 0.65 0.8611111
vt 0.65 0.8888889
vt 0.025 0.5277778
vt 0 0.5277778
vt 0.675 0.8333333
vt 0.7 0.8333333
vt 0.65 0.8333333
vt 0.675 0.8055556
vt 0.7 0.8055556
vt 0.65 0.8055556
vt 0.675 0.7777778
vt 0.7 0.7777778
vt 0.65 0.7777778
vt 0.85 0.9166667
vt 0.875 0.9166667
vt 0.875 0.9444444
vt 0.85 0.9444444
vt 0 0.5555556
vt 0 0.5833334
vt 0 0.6111111
vt 0.55 0.4166667
vt 0.575 0.4166667
vt 0.575 0.4444444
vt 0.55 0.4444444
vt 0.525 0.4166667
vt 0.525 0.4444444
vt 0.75 0.9722222
vt 0.775 0.9722222
vt 0.775 1
vt 0.75 1
vt 0.55 0.3888889
vt 0.575 0.3888889
vt 0.525 0.3888889
vt 0.8 0.9722222
vt 0.825 0.9722222
vt 0.825 1
vt 0.8 1
vt 0.75 0.9444444
vt 0.775 0.9444444
vt 0.85 0.9722222
vt 0.85 1
vt 0.775 0.9166667
vt 0.8 0.9166667
vt 0.8 0.9444444
vt 0.875 0.9722222
vt 0.875 1
vt 0.9 0.75
vt 0.925 0.75
vt 0.925 0.7777778
vt 0.9 0.7777778
vt 0.875 0.75
vt 0.875 0.7777778
vt 0.9 0.7222222
vt 0.925 0.7222222
vt 0.875 0.7222222

# Normal
vn 0 0 -1

# Mesh description
g Room-07_mesh_0004

# Faces
f 1/1/1 2/2/1 3/3/1 4/4/1
f 5/5/1 6/6/1 7/7/1 8/8/1
f 9/5/1 10/6/1 11/7/1 12/8/1
f 13/5/1 14/6/1 15/7/1 16/8/1
f 17/5/1 18/6/1 19/7/1 20/8/1
f 21/5/1 22/6/1 23/7/1 24/8/1
f 25/5/1 26/6/1 27/7/1 28/8/1
f 29/5/1 30/6/1 31/7/1 32/8/1
f 33/5/1 34/6/1 35/7/1 36/8/1
f 37/5/1 38/6/1 39/7/1 40/8/1
f 41/9/1 42/10/1 43/11/1 44/12/1
f 45/10/1 46/13/1 47/14/1 48/11/1
f 49/5/1 50/6/1 51/7/1 52/8/1
f 53/5/1 54/6/1 55/7/1 56/8/1
f 57/5/1 58/6/1 59/7/1 60/8/1
f 61/5/1 62/6/1 63/7/1 64/8/1
f 65/5/1 66/6/1 67/7/1 68/8/1
f 69/5/1 70/6/1 71/7/1 72/8/1
f 73/5/1 74/6/1 75/7/1 76/8/1
f 77/5/1 78/6/1 79/7/1 80/8/1
f 81/5/1 82/6/1 83/7/1 84/8/1
f 85/2/1 86/5/1 87/8/1 88/3/1
f 89/15/1 90/16/1 91/17/1 92/18/1
f 93/7/1 94/19/1 95/13/1 96/10/1
f 97/10/1 98/13/1 99/14/1 100/11/1
f 101/5/1 102/6/1 103/7/1 104/8/1
f 105/7/1 106/19/1 107/13/1 108/10/1
f 109/11/1 110/14/1 111/20/1 112/21/1
f 113/8/1 114/7/1 115/10/1 116/9/1
f 117/8/1 118/7/1 119/10/1 120/9/1
f 121/12/1 122/11/1 123/21/1 124/22/1
f 125/11/1 126/14/1 127/20/1 128/21/1
f 129/12/1 130/11/1 131/21/1 132/22/1
f 133/23/1 134/24/1 135/25/1 136/26/1
f 137/27/1 138/23/1 139/26/1 140/28/1
f 141/27/1 142/23/1 143/26/1 144/28/1
f 145/27/1 146/23/1 147/26/1 148/28/1
f 149/27/1 150/23/1 151/26/1 152/28/1
f 153/27/1 154/23/1 155/26/1 156/28/1
f 157/29/1 158/27/1 159/28/1 160/30/1
f 161/11/1 162/14/1 163/20/1 164/21/1
f 165/12/1 166/11/1 167/21/1 168/22/1
f 169/7/1 170/19/1 171/13/1 172/10/1
f 173/19/1 174/31/1 175/32/1 176/13/1
f 177/15/1 178/16/1 179/17/1 180/18/1
f 181/15/1 182/16/1 183/17/1 184/18/1
f 185/7/1 186/19/1 187/13/1 188/10/1
f 189/10/1 190/13/1 191/14/1 192/11/1
f 193/9/1 194/10/1 195/11/1 196/12/1
f 197/33/1 198/34/1 199/24/1 200/23/1
f 201/35/1 202/36/1 203/37/1 204/38/1
f 205/33/1 206/34/1 207/24/1 208/23/1
f 209/10/1 210/13/1 211/14/1 212/11/1
f 213/9/1 214/10/1 215/11/1 216/12/1
f 217/7/1 218/19/1 219/13/1 220/10/1
f 221/11/1 222/14/1 223/20/1 224/21/1
f 225/8/1 226/7/1 227/10/1 228/9/1
f 229/8/1 230/7/1 231/10/1 232/9/1
f 233/39/1 234/12/1 235/22/1 236/40/1
f 237/15/1 238/16/1 239/17/1 240/18/1
f 241/15/1 242/16/1 243/17/1 244/18/1
f 245/7/1 246/19/1 247/13/1 248/10/1
f 249/23/1 250/24/1 251/25/1 252/26/1
f 253/27/1 254/23/1 255/26/1 256/28/1
f 257/41/1 258/18/1 259/42/1 260/43/1
f 261/17/1 262/40/1 263/34/1 264/33/1
f 265/27/1 266/23/1 267/26/1 268/28/1
f 269/29/1 270/27/1 271/28/1 272/30/1
f 273/7/1 274/19/1 275/13/1 276/10/1
f 277/19/1 278/31/1 279/32/1 280/13/1
f 281/15/1 282/16/1 283/17/1 284/18/1
f 285/15/1 286/16/1 287/17/1 288/18/1
f 289/15/1 290/16/1 291/17/1 292/18/1
f 293/15/1 294/16/1 295/17/1 296/18/1
f 297/1/1 298/2/1 299/3/1 300/4/1
f 301/9/1 302/10/1 303/11/1 304/12/1
f 305/33/1 306/34/1 307/24/1 308/23/1
f 309/43/1 310/42/1 311/27/1 312/29/1
f 313/7/1 314/19/1 315/13/1 316/10/1
f 317/10/1 318/13/1 319/14/1 320/11/1
f 321/5/1 322/6/1 323/7/1 324/8/1
f 325/5/1 326/6/1 327/7/1 328/8/1
f 329/5/1 330/6/1 331/7/1 332/8/1
f 333/5/1 334/6/1 335/7/1 336/8/1
f 337/9/1 338/10/1 339/11/1 340/12/1
f 341/33/1 342/34/1 343/24/1 344/23/1
f 345/43/1 346/42/1 347/27/1 348/29/1
f 349/7/1 350/19/1 351/13/1 352/10/1
f 353/33/1 354/34/1 355/24/1 356/23/1
f 357/43/1 358/42/1 359/27/1 360/29/1
f 361/7/1 362/19/1 363/13/1 364/10/1
f 365/44/1 366/45/1 367/39/1 368/16/1
f 369/45/1 370/9/1 371/12/1 372/39/1
f 373/45/1 374/9/1 375/12/1 376/39/1
f 377/46/1 378/47/1 379/48/1 380/49/1
f 381/47/1 382/50/1 383/51/1 384/48/1
f 385/45/1 386/9/1 387/12/1 388/39/1
f 389/45/1 390/9/1 391/12/1 392/39/1
f 393/52/1 394/44/1 395/16/1 396/15/1
f 397/33/1 398/34/1 399/24/1 400/23/1
f 401/43/1 402/42/1 403/27/1 404/29/1
f 405/7/1 406/19/1 407/13/1 408/10/1
f 409/3/1 410/8/1 411/9/1 412/45/1
f 413/3/1 414/8/1 415/9/1 416/45/1
f 417/33/1 418/34/1 419/24/1 420/23/1
f 421/43/1 422/42/1 423/27/1 424/29/1
f 425/7/1 426/19/1 427/13/1 428/10/1
f 429/3/1 430/8/1 431/9/1 432/45/1
f 433/3/1 434/8/1 435/9/1 436/45/1
f 437/33/1 438/34/1 439/24/1 440/23/1
f 441/43/1 442/42/1 443/27/1 444/29/1
f 445/7/1 446/19/1 447/13/1 448/10/1
f 449/49/1 450/48/1 451/53/1 452/54/1
f 453/49/1 454/48/1 455/53/1 456/54/1
f 457/33/1 458/34/1 459/24/1 460/23/1
f 461/55/1 462/56/1 463/57/1 464/58/1
f 465/59/1 466/55/1 467/58/1 468/60/1
f 469/43/1 470/42/1 471/27/1 472/29/1
f 473/7/1 474/19/1 475/13/1 476/10/1
f 477/54/1 478/53/1 479/61/1 480/62/1
f 481/54/1 482/53/1 483/61/1 484/62/1
f 485/33/1 486/34/1 487/24/1 488/23/1
f 489/63/1 490/64/1 491/56/1 492/55/1
f 493/65/1 494/63/1 495/55/1 496/59/1
f 497/43/1 498/42/1 499/27/1 500/29/1
f 501/7/1 502/19/1 503/13/1 504/10/1
f 505/3/1 506/8/1 507/9/1 508/45/1
f 509/3/1 510/8/1 511/9/1 512/45/1
f 513/33/1 514/34/1 515/24/1 516/23/1
f 517/66/1 518/67/1 519/64/1 520/63/1
f 521/68/1 522/66/1 523/63/1 524/65/1
f 525/43/1 526/42/1 527/27/1 528/29/1
f 529/7/1 530/19/1 531/13/1 532/10/1
f 533/3/1 534/8/1 535/9/1 536/45/1
f 537/3/1 538/8/1 539/9/1 540/45/1
f 541/33/1 542/34/1 543/24/1 544/23/1
f 545/69/1 546/70/1 547/67/1 548/66/1
f 549/71/1 550/69/1 551/66/1 552/68/1
f 553/43/1 554/42/1 555/27/1 556/29/1
f 557/7/1 558/19/1 559/13/1 560/10/1
f 561/4/1 562/3/1 563/45/1 564/44/1
f 565/45/1 566/9/1 567/12/1 568/39/1
f 569/45/1 570/9/1 571/12/1 572/39/1
f 573/46/1 574/47/1 575/48/1 576/49/1
f 577/47/1 578/50/1 579/51/1 580/48/1
f 581/45/1 582/9/1 583/12/1 584/39/1
f 585/45/1 586/9/1 587/12/1 588/39/1
f 589/51/1 590/4/1 591/44/1 592/52/1
f 593/33/1 594/34/1 595/24/1 596/23/1
f 597/72/1 598/73/1 599/74/1 600/75/1
f 601/43/1 602/42/1 603/27/1 604/29/1
f 605/9/1 606/10/1 607/11/1 608/12/1
f 609/17/1 610/40/1 611/34/1 612/33/1
f 613/18/1 614/17/1 615/33/1 616/42/1
f 617/18/1 618/17/1 619/33/1 620/42/1
f 621/18/1 622/17/1 623/33/1 624/42/1
f 625/62/1 626/61/1 627/41/1 628/76/1
f 629/61/1 630/15/1 631/18/1 632/41/1
f 633/18/1 634/17/1 635/33/1 636/42/1
f 637/18/1 638/17/1 639/33/1 640/42/1
f 641/18/1 642/17/1 643/33/1 644/42/1
f 645/41/1 646/18/1 647/42/1 648/43/1
f 649/77/1 650/43/1 651/29/1 652/78/1
f 653/42/1 654/33/1 655/23/1 656/27/1
f 657/42/1 658/33/1 659/23/1 660/27/1
f 661/77/1 662/43/1 663/29/1 664/78/1
f 665/79/1 666/80/1 667/81/1 668/82/1
f 669/83/1 670/79/1 671/82/1 672/84/1
f 673/77/1 674/43/1 675/29/1 676/78/1
f 677/42/1 678/33/1 679/23/1 680/27/1
f 681/42/1 682/33/1 683/23/1 684/27/1
f 685/77/1 686/43/1 687/29/1 688/78/1
f 689/85/1 690/86/1 691/87/1 692/88/1
f 693/77/1 694/43/1 695/29/1 696/78/1
f 697/42/1 698/33/1 699/23/1 700/27/1
f 701/42/1 702/33/1 703/23/1 704/27/1
f 705/33/1 706/34/1 707/24/1 708/23/1
f 709/43/1 710/42/1 711/27/1 712/29/1
f 713/89/1 714/90/1 715/80/1 716/79/1
f 717/91/1 718/89/1 719/79/1 720/83/1
f 721/33/1 722/34/1 723/24/1 724/23/1
f 725/43/1 726/42/1 727/27/1 728/29/1
f 729/92/1 730/93/1 731/94/1 732/95/1
f 733/96/1 734/97/1 735/86/1 736/85/1
f 737/33/1 738/34/1 739/24/1 740/23/1
f 741/33/1 742/34/1 743/24/1 744/23/1
f 745/43/1 746/42/1 747/27/1 748/29/1
f 749/85/1 750/86/1 751/87/1 752/88/1
f 753/33/1 754/34/1 755/24/1 756/23/1
f 757/43/1 758/42/1 759/27/1 760/29/1
f 761/93/1 762/98/1 763/99/1 764/94/1
f 765/33/1 766/34/1 767/24/1 768/23/1
f 769/33/1 770/34/1 771/24/1 772/23/1
f 773/43/1 774/42/1 775/27/1 776/29/1
f 777/93/1 778/98/1 779/99/1 780/94/1
f 781/100/1 782/101/1 783/102/1 784/97/1
f 785/33/1 786/34/1 787/24/1 788/23/1
f 789/43/1 790/42/1 791/27/1 792/29/1
f 793/75/1 794/74/1 795/103/1 796/98/1
f 797/33/1 798/34/1 799/24/1 800/23/1
f 801/33/1 802/34/1 803/24/1 804/23/1
f 805/43/1 806/42/1 807/27/1 808/29/1
f 809/98/1 810/103/1 811/104/1 812/99/1
f 813/86/1 814/92/1 815/95/1 816/87/1
f 817/33/1 818/34/1 819/24/1 820/23/1
f 821/43/1 822/42/1 823/27/1 824/29/1
f 825/105/1 826/106/1 827/107/1 828/108/1
f 829/109/1 830/105/1 831/108/1 832/110/1
f 833/33/1 834/34/1 835/24/1 836/23/1
f 837/17/1 838/40/1 839/34/1 840/33/1
f 841/18/1 842/17/1 843/33/1 844/42/1
f 845/18/1 846/17/1 847/33/1 848/42/1
f 849/18/1 850/17/1 851/33/1 852/42/1
f 853/18/1 854/17/1 855/33/1 856/42/1
f 857/18/1 858/17/1 859/33/1 860/42/1
f 861/41/1 862/18/1 863/42/1 864/43/1
f 865/75/1 866/74/1 867/103/1 868/98/1
f 869/97/1 870/102/1 871/92/1 872/86/1
f 873/17/1 874/40/1 875/34/1 876/33/1
f 877/18/1 878/17/1 879/33/1 880/42/1
f 881/18/1 882/17/1 883/33/1 884/42/1
f 885/18/1 886/17/1 887/33/1 888/42/1
f 889/18/1 890/17/1 891/33/1 892/42/1
f 893/18/1 894/17/1 895/33/1 896/42/1
f 897/41/1 898/18/1 899/42/1 900/43/1
f 901/111/1 902/112/1 903/106/1 904/105/1
f 905/113/1 906/111/1 907/105/1 908/109/1
f 909/17/1 910/40/1 911/34/1 912/33/1
f 913/18/1 914/17/1 915/33/1 916/42/1
f 917/18/1 918/17/1 919/33/1 920/42/1
f 921/18/1 922/17/1 923/33/1 924/42/1
f 925/18/1 926/17/1 927/33/1 928/42/1
f 929/18/1 930/17/1 931/33/1 932/42/1
f 933/18/1 934/17/1 935/33/1 936/42/1

