# Tiled2Unity generated file. Do not modify by hand.
# Wavefront file for 'Room02_mesh_0002.obj'

# Vertices (Count = 432)
v -15 -4 0
v -16 -4 0
v -16 -3 0
v -15 -3 0
v -14 -4 0
v -15 -4 0
v -15 -3 0
v -14 -3 0
v -13 -4 0
v -14 -4 0
v -14 -3 0
v -13 -3 0
v -12 -4 0
v -13 -4 0
v -13 -3 0
v -12 -3 0
v -11 -4 0
v -12 -4 0
v -12 -3 0
v -11 -3 0
v -10 -4 0
v -11 -4 0
v -11 -3 0
v -10 -3 0
v -9 -4 0
v -10 -4 0
v -10 -3 0
v -9 -3 0
v -6 -4 0
v -7 -4 0
v -7 -3 0
v -6 -3 0
v -5 -4 0
v -6 -4 0
v -6 -3 0
v -5 -3 0
v -4 -4 0
v -5 -4 0
v -5 -3 0
v -4 -3 0
v -3 -4 0
v -4 -4 0
v -4 -3 0
v -3 -3 0
v -2 -4 0
v -3 -4 0
v -3 -3 0
v -2 -3 0
v -13 -5 0
v -14 -5 0
v -14 -4 0
v -13 -4 0
v -3 -5 0
v -4 -5 0
v -4 -4 0
v -3 -4 0
v -2 -5 0
v -3 -5 0
v -3 -4 0
v -2 -4 0
v -15 -6 0
v -16 -6 0
v -16 -5 0
v -15 -5 0
v -14 -6 0
v -15 -6 0
v -15 -5 0
v -14 -5 0
v -13 -6 0
v -14 -6 0
v -14 -5 0
v -13 -5 0
v -11 -6 0
v -12 -6 0
v -12 -5 0
v -11 -5 0
v -10 -6 0
v -11 -6 0
v -11 -5 0
v -10 -5 0
v -9 -6 0
v -10 -6 0
v -10 -5 0
v -9 -5 0
v -6 -6 0
v -7 -6 0
v -7 -5 0
v -6 -5 0
v -5 -6 0
v -6 -6 0
v -6 -5 0
v -5 -5 0
v -4 -6 0
v -5 -6 0
v -5 -5 0
v -4 -5 0
v -3 -6 0
v -4 -6 0
v -4 -5 0
v -3 -5 0
v -2 -6 0
v -3 -6 0
v -3 -5 0
v -2 -5 0
v -13 -7 0
v -14 -7 0
v -14 -6 0
v -13 -6 0
v -11 -7 0
v -12 -7 0
v -12 -6 0
v -11 -6 0
v -10 -7 0
v -11 -7 0
v -11 -6 0
v -10 -6 0
v -4 -7 0
v -5 -7 0
v -5 -6 0
v -4 -6 0
v -2 -7 0
v -3 -7 0
v -3 -6 0
v -2 -6 0
v -15 -8 0
v -16 -8 0
v -16 -7 0
v -15 -7 0
v -13 -8 0
v -14 -8 0
v -14 -7 0
v -13 -7 0
v -11 -8 0
v -12 -8 0
v -12 -7 0
v -11 -7 0
v -9 -8 0
v -10 -8 0
v -10 -7 0
v -9 -7 0
v -6 -8 0
v -7 -8 0
v -7 -7 0
v -6 -7 0
v -4 -8 0
v -5 -8 0
v -5 -7 0
v -4 -7 0
v -2 -8 0
v -3 -8 0
v -3 -7 0
v -2 -7 0
v -15 -9 0
v -16 -9 0
v -16 -8 0
v -15 -8 0
v -13 -9 0
v -14 -9 0
v -14 -8 0
v -13 -8 0
v -11 -9 0
v -12 -9 0
v -12 -8 0
v -11 -8 0
v -9 -9 0
v -10 -9 0
v -10 -8 0
v -9 -8 0
v -6 -9 0
v -7 -9 0
v -7 -8 0
v -6 -8 0
v -4 -9 0
v -5 -9 0
v -5 -8 0
v -4 -8 0
v -2 -9 0
v -3 -9 0
v -3 -8 0
v -2 -8 0
v -15 -10 0
v -16 -10 0
v -16 -9 0
v -15 -9 0
v -13 -10 0
v -14 -10 0
v -14 -9 0
v -13 -9 0
v -11 -10 0
v -12 -10 0
v -12 -9 0
v -11 -9 0
v -9 -10 0
v -10 -10 0
v -10 -9 0
v -9 -9 0
v -8 -10 0
v -9 -10 0
v -9 -9 0
v -8 -9 0
v -7 -10 0
v -8 -10 0
v -8 -9 0
v -7 -9 0
v -6 -10 0
v -7 -10 0
v -7 -9 0
v -6 -9 0
v -4 -10 0
v -5 -10 0
v -5 -9 0
v -4 -9 0
v -2 -10 0
v -3 -10 0
v -3 -9 0
v -2 -9 0
v -13 -11 0
v -14 -11 0
v -14 -10 0
v -13 -10 0
v -11 -11 0
v -12 -11 0
v -12 -10 0
v -11 -10 0
v -9 -11 0
v -10 -11 0
v -10 -10 0
v -9 -10 0
v -6 -11 0
v -7 -11 0
v -7 -10 0
v -6 -10 0
v -4 -11 0
v -5 -11 0
v -5 -10 0
v -4 -10 0
v -2 -11 0
v -3 -11 0
v -3 -10 0
v -2 -10 0
v -15 -12 0
v -16 -12 0
v -16 -11 0
v -15 -11 0
v -14 -12 0
v -15 -12 0
v -15 -11 0
v -14 -11 0
v -13 -12 0
v -14 -12 0
v -14 -11 0
v -13 -11 0
v -11 -12 0
v -12 -12 0
v -12 -11 0
v -11 -11 0
v -10 -12 0
v -11 -12 0
v -11 -11 0
v -10 -11 0
v -9 -12 0
v -10 -12 0
v -10 -11 0
v -9 -11 0
v -8 -12 0
v -9 -12 0
v -9 -11 0
v -8 -11 0
v -7 -12 0
v -8 -12 0
v -8 -11 0
v -7 -11 0
v -6 -12 0
v -7 -12 0
v -7 -11 0
v -6 -11 0
v -5 -12 0
v -6 -12 0
v -6 -11 0
v -5 -11 0
v -4 -12 0
v -5 -12 0
v -5 -11 0
v -4 -11 0
v -2 -12 0
v -3 -12 0
v -3 -11 0
v -2 -11 0
v -13 -13 0
v -14 -13 0
v -14 -12 0
v -13 -12 0
v -11 -13 0
v -12 -13 0
v -12 -12 0
v -11 -12 0
v -2 -13 0
v -3 -13 0
v -3 -12 0
v -2 -12 0
v -15 -14 0
v -16 -14 0
v -16 -13 0
v -15 -13 0
v -14 -14 0
v -15 -14 0
v -15 -13 0
v -14 -13 0
v -13 -14 0
v -14 -14 0
v -14 -13 0
v -13 -13 0
v -12 -14 0
v -13 -14 0
v -13 -13 0
v -12 -13 0
v -11 -14 0
v -12 -14 0
v -12 -13 0
v -11 -13 0
v -10 -14 0
v -11 -14 0
v -11 -13 0
v -10 -13 0
v -9 -14 0
v -10 -14 0
v -10 -13 0
v -9 -13 0
v -8 -14 0
v -9 -14 0
v -9 -13 0
v -8 -13 0
v -7 -14 0
v -8 -14 0
v -8 -13 0
v -7 -13 0
v -6 -14 0
v -7 -14 0
v -7 -13 0
v -6 -13 0
v -5 -14 0
v -6 -14 0
v -6 -13 0
v -5 -13 0
v -4 -14 0
v -5 -14 0
v -5 -13 0
v -4 -13 0
v -3 -14 0
v -4 -14 0
v -4 -13 0
v -3 -13 0
v -2 -14 0
v -3 -14 0
v -3 -13 0
v -2 -13 0
v -10 -15 0
v -11 -15 0
v -11 -14 0
v -10 -14 0
v -9 -15 0
v -10 -15 0
v -10 -14 0
v -9 -14 0
v -7 -15 0
v -8 -15 0
v -8 -14 0
v -7 -14 0
v -6 -15 0
v -7 -15 0
v -7 -14 0
v -6 -14 0
v -5 -15 0
v -6 -15 0
v -6 -14 0
v -5 -14 0
v -4 -15 0
v -5 -15 0
v -5 -14 0
v -4 -14 0
v -15 -16 0
v -16 -16 0
v -16 -15 0
v -15 -15 0
v -14 -16 0
v -15 -16 0
v -15 -15 0
v -14 -15 0
v -13 -16 0
v -14 -16 0
v -14 -15 0
v -13 -15 0
v -12 -16 0
v -13 -16 0
v -13 -15 0
v -12 -15 0
v -10 -16 0
v -11 -16 0
v -11 -15 0
v -10 -15 0
v -9 -16 0
v -10 -16 0
v -10 -15 0
v -9 -15 0
v -8 -16 0
v -9 -16 0
v -9 -15 0
v -8 -15 0
v -7 -16 0
v -8 -16 0
v -8 -15 0
v -7 -15 0
v -6 -16 0
v -7 -16 0
v -7 -15 0
v -6 -15 0
v -5 -16 0
v -6 -16 0
v -6 -15 0
v -5 -15 0
v -3 -16 0
v -4 -16 0
v -4 -15 0
v -3 -15 0
v -2 -16 0
v -3 -16 0
v -3 -15 0
v -2 -15 0
v -1 -16 0
v -2 -16 0
v -2 -15 0
v -1 -15 0

# Texture cooridinates (Count = 34)
vt 0.6875 0.4375
vt 0.75 0.4375
vt 0.75 0.5
vt 0.6875 0.5
vt 0.8125 0.5
vt 0.8125 0.5625
vt 0.75 0.5625
vt 0.875 0.5
vt 0.875 0.5625
vt 0.5625 0.625
vt 0.625 0.625
vt 0.625 0.6875
vt 0.5625 0.6875
vt 0.625 0.5625
vt 0.6875 0.5625
vt 0.6875 0.625
vt 0.8125 0.4375
vt 0.75 0.625
vt 0.75 0.6875
vt 0.6875 0.6875
vt 0.8125 0.625
vt 0.875 0.625
vt 0.875 0.6875
vt 0.8125 0.6875
vt 0.125 0.5
vt 0.1875 0.5
vt 0.1875 0.5625
vt 0.125 0.5625
vt 0.5625 0.5
vt 0.625 0.5
vt 0.5625 0.5625
vt 0.0625 0.4375
vt 0.125 0.4375
vt 0.0625 0.5

# Normal
vn 0 0 -1

# Mesh description
g Room02_mesh_0002

# Faces
f 1/1/1 2/2/1 3/3/1 4/4/1
f 5/1/1 6/2/1 7/3/1 8/4/1
f 9/1/1 10/2/1 11/3/1 12/4/1
f 13/1/1 14/2/1 15/3/1 16/4/1
f 17/1/1 18/2/1 19/3/1 20/4/1
f 21/1/1 22/2/1 23/3/1 24/4/1
f 25/3/1 26/5/1 27/6/1 28/7/1
f 29/5/1 30/8/1 31/9/1 32/6/1
f 33/1/1 34/2/1 35/3/1 36/4/1
f 37/1/1 38/2/1 39/3/1 40/4/1
f 41/1/1 42/2/1 43/3/1 44/4/1
f 45/10/1 46/11/1 47/12/1 48/13/1
f 49/14/1 50/15/1 51/16/1 52/11/1
f 53/14/1 54/15/1 55/16/1 56/11/1
f 57/2/1 58/17/1 59/5/1 60/3/1
f 61/1/1 62/2/1 63/3/1 64/4/1
f 65/1/1 66/2/1 67/3/1 68/4/1
f 69/10/1 70/11/1 71/12/1 72/13/1
f 73/16/1 74/18/1 75/19/1 76/20/1
f 77/1/1 78/2/1 79/3/1 80/4/1
f 81/3/1 82/5/1 83/6/1 84/7/1
f 85/5/1 86/8/1 87/9/1 88/6/1
f 89/1/1 90/2/1 91/3/1 92/4/1
f 93/10/1 94/11/1 95/12/1 96/13/1
f 97/14/1 98/15/1 99/16/1 100/11/1
f 101/2/1 102/17/1 103/5/1 104/3/1
f 105/2/1 106/17/1 107/5/1 108/3/1
f 109/2/1 110/17/1 111/5/1 112/3/1
f 113/14/1 114/15/1 115/16/1 116/11/1
f 117/2/1 118/17/1 119/5/1 120/3/1
f 121/2/1 122/17/1 123/5/1 124/3/1
f 125/21/1 126/22/1 127/23/1 128/24/1
f 129/6/1 130/9/1 131/22/1 132/21/1
f 133/6/1 134/9/1 135/22/1 136/21/1
f 137/7/1 138/6/1 139/21/1 140/18/1
f 141/7/1 142/6/1 143/21/1 144/18/1
f 145/6/1 146/9/1 147/22/1 148/21/1
f 149/2/1 150/17/1 151/5/1 152/3/1
f 153/2/1 154/17/1 155/5/1 156/3/1
f 157/14/1 158/15/1 159/16/1 160/11/1
f 161/14/1 162/15/1 163/16/1 164/11/1
f 165/14/1 166/15/1 167/16/1 168/11/1
f 169/14/1 170/15/1 171/16/1 172/11/1
f 173/14/1 174/15/1 175/16/1 176/11/1
f 177/2/1 178/17/1 179/5/1 180/3/1
f 181/6/1 182/9/1 183/22/1 184/21/1
f 185/21/1 186/22/1 187/23/1 188/24/1
f 189/21/1 190/22/1 191/23/1 192/24/1
f 193/7/1 194/6/1 195/21/1 196/18/1
f 197/25/1 198/26/1 199/27/1 200/28/1
f 201/25/1 202/26/1 203/27/1 204/28/1
f 205/7/1 206/6/1 207/21/1 208/18/1
f 209/21/1 210/22/1 211/23/1 212/24/1
f 213/2/1 214/17/1 215/5/1 216/3/1
f 217/2/1 218/17/1 219/5/1 220/3/1
f 221/2/1 222/17/1 223/5/1 224/3/1
f 225/25/1 226/26/1 227/27/1 228/28/1
f 229/25/1 230/26/1 231/27/1 232/28/1
f 233/2/1 234/17/1 235/5/1 236/3/1
f 237/2/1 238/17/1 239/5/1 240/3/1
f 241/1/1 242/2/1 243/3/1 244/4/1
f 245/1/1 246/2/1 247/3/1 248/4/1
f 249/29/1 250/30/1 251/14/1 252/31/1
f 253/4/1 254/3/1 255/7/1 256/15/1
f 257/1/1 258/2/1 259/3/1 260/4/1
f 261/3/1 262/5/1 263/6/1 264/7/1
f 265/25/1 266/26/1 267/27/1 268/28/1
f 269/25/1 270/26/1 271/27/1 272/28/1
f 273/5/1 274/8/1 275/9/1 276/6/1
f 277/1/1 278/2/1 279/3/1 280/4/1
f 281/29/1 282/30/1 283/14/1 284/31/1
f 285/2/1 286/17/1 287/5/1 288/3/1
f 289/14/1 290/15/1 291/16/1 292/11/1
f 293/25/1 294/26/1 295/27/1 296/28/1
f 297/2/1 298/17/1 299/5/1 300/3/1
f 301/1/1 302/2/1 303/3/1 304/4/1
f 305/1/1 306/2/1 307/3/1 308/4/1
f 309/1/1 310/2/1 311/3/1 312/4/1
f 313/1/1 314/2/1 315/3/1 316/4/1
f 317/1/1 318/2/1 319/3/1 320/4/1
f 321/1/1 322/2/1 323/3/1 324/4/1
f 325/10/1 326/11/1 327/12/1 328/13/1
f 329/14/1 330/15/1 331/16/1 332/11/1
f 333/14/1 334/15/1 335/16/1 336/11/1
f 337/16/1 338/18/1 339/19/1 340/20/1
f 341/1/1 342/2/1 343/3/1 344/4/1
f 345/1/1 346/2/1 347/3/1 348/4/1
f 349/1/1 350/2/1 351/3/1 352/4/1
f 353/29/1 354/30/1 355/14/1 356/31/1
f 357/29/1 358/30/1 359/14/1 360/31/1
f 361/31/1 362/14/1 363/11/1 364/10/1
f 365/14/1 366/15/1 367/16/1 368/11/1
f 369/15/1 370/7/1 371/18/1 372/16/1
f 373/4/1 374/3/1 375/7/1 376/15/1
f 377/14/1 378/15/1 379/16/1 380/11/1
f 381/32/1 382/33/1 383/25/1 384/34/1
f 385/32/1 386/33/1 387/25/1 388/34/1
f 389/32/1 390/33/1 391/25/1 392/34/1
f 393/32/1 394/33/1 395/25/1 396/34/1
f 397/15/1 398/7/1 399/18/1 400/16/1
f 401/29/1 402/30/1 403/14/1 404/31/1
f 405/14/1 406/15/1 407/16/1 408/11/1
f 409/14/1 410/15/1 411/16/1 412/11/1
f 413/4/1 414/3/1 415/7/1 416/15/1
f 417/31/1 418/14/1 419/11/1 420/10/1
f 421/32/1 422/33/1 423/25/1 424/34/1
f 425/32/1 426/33/1 427/25/1 428/34/1
f 429/32/1 430/33/1 431/25/1 432/34/1

