# Tiled2Unity generated file. Do not modify by hand.
# Wavefront file for 'Room-02_mesh_0003.obj'

# Vertices (Count = 900)
v -24 -1 0
v -25 -1 0
v -25 0 0
v -24 0 0
v -23 -1 0
v -24 -1 0
v -24 0 0
v -23 0 0
v -22 -1 0
v -23 -1 0
v -23 0 0
v -22 0 0
v -21 -1 0
v -22 -1 0
v -22 0 0
v -21 0 0
v -20 -1 0
v -21 -1 0
v -21 0 0
v -20 0 0
v -19 -1 0
v -20 -1 0
v -20 0 0
v -19 0 0
v -18 -1 0
v -19 -1 0
v -19 0 0
v -18 0 0
v -17 -1 0
v -18 -1 0
v -18 0 0
v -17 0 0
v -16 -1 0
v -17 -1 0
v -17 0 0
v -16 0 0
v -15 -1 0
v -16 -1 0
v -16 0 0
v -15 0 0
v -14 -1 0
v -15 -1 0
v -15 0 0
v -14 0 0
v -13 -1 0
v -14 -1 0
v -14 0 0
v -13 0 0
v -12 -1 0
v -13 -1 0
v -13 0 0
v -12 0 0
v -11 -1 0
v -12 -1 0
v -12 0 0
v -11 0 0
v -10 -1 0
v -11 -1 0
v -11 0 0
v -10 0 0
v -9 -1 0
v -10 -1 0
v -10 0 0
v -9 0 0
v -8 -1 0
v -9 -1 0
v -9 0 0
v -8 0 0
v -7 -1 0
v -8 -1 0
v -8 0 0
v -7 0 0
v -6 -1 0
v -7 -1 0
v -7 0 0
v -6 0 0
v -5 -1 0
v -6 -1 0
v -6 0 0
v -5 0 0
v -4 -1 0
v -5 -1 0
v -5 0 0
v -4 0 0
v -3 -1 0
v -4 -1 0
v -4 0 0
v -3 0 0
v -2 -1 0
v -3 -1 0
v -3 0 0
v -2 0 0
v -1 -1 0
v -2 -1 0
v -2 0 0
v -1 0 0
v 0 -1 0
v -1 -1 0
v -1 0 0
v 0 0 0
v -24 -2 0
v -25 -2 0
v -25 -1 0
v -24 -1 0
v -23 -2 0
v -24 -2 0
v -24 -1 0
v -23 -1 0
v -22 -2 0
v -23 -2 0
v -23 -1 0
v -22 -1 0
v -21 -2 0
v -22 -2 0
v -22 -1 0
v -21 -1 0
v -20 -2 0
v -21 -2 0
v -21 -1 0
v -20 -1 0
v -19 -2 0
v -20 -2 0
v -20 -1 0
v -19 -1 0
v -18 -2 0
v -19 -2 0
v -19 -1 0
v -18 -1 0
v -17 -2 0
v -18 -2 0
v -18 -1 0
v -17 -1 0
v -16 -2 0
v -17 -2 0
v -17 -1 0
v -16 -1 0
v -15 -2 0
v -16 -2 0
v -16 -1 0
v -15 -1 0
v -14 -2 0
v -15 -2 0
v -15 -1 0
v -14 -1 0
v -13 -2 0
v -14 -2 0
v -14 -1 0
v -13 -1 0
v -12 -2 0
v -13 -2 0
v -13 -1 0
v -12 -1 0
v -11 -2 0
v -12 -2 0
v -12 -1 0
v -11 -1 0
v -10 -2 0
v -11 -2 0
v -11 -1 0
v -10 -1 0
v -9 -2 0
v -10 -2 0
v -10 -1 0
v -9 -1 0
v -8 -2 0
v -9 -2 0
v -9 -1 0
v -8 -1 0
v -7 -2 0
v -8 -2 0
v -8 -1 0
v -7 -1 0
v -6 -2 0
v -7 -2 0
v -7 -1 0
v -6 -1 0
v -5 -2 0
v -6 -2 0
v -6 -1 0
v -5 -1 0
v -4 -2 0
v -5 -2 0
v -5 -1 0
v -4 -1 0
v -3 -2 0
v -4 -2 0
v -4 -1 0
v -3 -1 0
v -2 -2 0
v -3 -2 0
v -3 -1 0
v -2 -1 0
v -1 -2 0
v -2 -2 0
v -2 -1 0
v -1 -1 0
v 0 -2 0
v -1 -2 0
v -1 -1 0
v 0 -1 0
v -24 -3 0
v -25 -3 0
v -25 -2 0
v -24 -2 0
v -23 -3 0
v -24 -3 0
v -24 -2 0
v -23 -2 0
v -22 -3 0
v -23 -3 0
v -23 -2 0
v -22 -2 0
v -21 -3 0
v -22 -3 0
v -22 -2 0
v -21 -2 0
v -20 -3 0
v -21 -3 0
v -21 -2 0
v -20 -2 0
v -19 -3 0
v -20 -3 0
v -20 -2 0
v -19 -2 0
v -18 -3 0
v -19 -3 0
v -19 -2 0
v -18 -2 0
v -17 -3 0
v -18 -3 0
v -18 -2 0
v -17 -2 0
v -16 -3 0
v -17 -3 0
v -17 -2 0
v -16 -2 0
v -15 -3 0
v -16 -3 0
v -16 -2 0
v -15 -2 0
v -14 -3 0
v -15 -3 0
v -15 -2 0
v -14 -2 0
v -13 -3 0
v -14 -3 0
v -14 -2 0
v -13 -2 0
v -12 -3 0
v -13 -3 0
v -13 -2 0
v -12 -2 0
v -11 -3 0
v -12 -3 0
v -12 -2 0
v -11 -2 0
v -10 -3 0
v -11 -3 0
v -11 -2 0
v -10 -2 0
v -9 -3 0
v -10 -3 0
v -10 -2 0
v -9 -2 0
v -8 -3 0
v -9 -3 0
v -9 -2 0
v -8 -2 0
v -7 -3 0
v -8 -3 0
v -8 -2 0
v -7 -2 0
v -6 -3 0
v -7 -3 0
v -7 -2 0
v -6 -2 0
v -5 -3 0
v -6 -3 0
v -6 -2 0
v -5 -2 0
v -4 -3 0
v -5 -3 0
v -5 -2 0
v -4 -2 0
v -3 -3 0
v -4 -3 0
v -4 -2 0
v -3 -2 0
v -2 -3 0
v -3 -3 0
v -3 -2 0
v -2 -2 0
v -1 -3 0
v -2 -3 0
v -2 -2 0
v -1 -2 0
v 0 -3 0
v -1 -3 0
v -1 -2 0
v 0 -2 0
v -24 -4 0
v -25 -4 0
v -25 -3 0
v -24 -3 0
v -23 -4 0
v -24 -4 0
v -24 -3 0
v -23 -3 0
v -22 -4 0
v -23 -4 0
v -23 -3 0
v -22 -3 0
v -21 -4 0
v -22 -4 0
v -22 -3 0
v -21 -3 0
v -20 -4 0
v -21 -4 0
v -21 -3 0
v -20 -3 0
v -19 -4 0
v -20 -4 0
v -20 -3 0
v -19 -3 0
v -18 -4 0
v -19 -4 0
v -19 -3 0
v -18 -3 0
v -17 -4 0
v -18 -4 0
v -18 -3 0
v -17 -3 0
v -16 -4 0
v -17 -4 0
v -17 -3 0
v -16 -3 0
v -15 -4 0
v -16 -4 0
v -16 -3 0
v -15 -3 0
v -14 -4 0
v -15 -4 0
v -15 -3 0
v -14 -3 0
v -13 -4 0
v -14 -4 0
v -14 -3 0
v -13 -3 0
v -12 -4 0
v -13 -4 0
v -13 -3 0
v -12 -3 0
v -11 -4 0
v -12 -4 0
v -12 -3 0
v -11 -3 0
v -10 -4 0
v -11 -4 0
v -11 -3 0
v -10 -3 0
v -9 -4 0
v -10 -4 0
v -10 -3 0
v -9 -3 0
v -8 -4 0
v -9 -4 0
v -9 -3 0
v -8 -3 0
v -7 -4 0
v -8 -4 0
v -8 -3 0
v -7 -3 0
v -6 -4 0
v -7 -4 0
v -7 -3 0
v -6 -3 0
v -5 -4 0
v -6 -4 0
v -6 -3 0
v -5 -3 0
v -4 -4 0
v -5 -4 0
v -5 -3 0
v -4 -3 0
v -3 -4 0
v -4 -4 0
v -4 -3 0
v -3 -3 0
v -2 -4 0
v -3 -4 0
v -3 -3 0
v -2 -3 0
v -1 -4 0
v -2 -4 0
v -2 -3 0
v -1 -3 0
v 0 -4 0
v -1 -4 0
v -1 -3 0
v 0 -3 0
v -14 -5 0
v -15 -5 0
v -15 -4 0
v -14 -4 0
v -13 -5 0
v -14 -5 0
v -14 -4 0
v -13 -4 0
v -12 -5 0
v -13 -5 0
v -13 -4 0
v -12 -4 0
v -11 -5 0
v -12 -5 0
v -12 -4 0
v -11 -4 0
v -10 -5 0
v -11 -5 0
v -11 -4 0
v -10 -4 0
v -9 -5 0
v -10 -5 0
v -10 -4 0
v -9 -4 0
v -8 -5 0
v -9 -5 0
v -9 -4 0
v -8 -4 0
v -7 -5 0
v -8 -5 0
v -8 -4 0
v -7 -4 0
v -6 -5 0
v -7 -5 0
v -7 -4 0
v -6 -4 0
v -5 -5 0
v -6 -5 0
v -6 -4 0
v -5 -4 0
v -4 -5 0
v -5 -5 0
v -5 -4 0
v -4 -4 0
v -3 -5 0
v -4 -5 0
v -4 -4 0
v -3 -4 0
v -2 -5 0
v -3 -5 0
v -3 -4 0
v -2 -4 0
v -1 -5 0
v -2 -5 0
v -2 -4 0
v -1 -4 0
v 0 -5 0
v -1 -5 0
v -1 -4 0
v 0 -4 0
v -18 -6 0
v -19 -6 0
v -19 -5 0
v -18 -5 0
v -17 -6 0
v -18 -6 0
v -18 -5 0
v -17 -5 0
v -13 -6 0
v -14 -6 0
v -14 -5 0
v -13 -5 0
v -12 -6 0
v -13 -6 0
v -13 -5 0
v -12 -5 0
v -11 -6 0
v -12 -6 0
v -12 -5 0
v -11 -5 0
v -10 -6 0
v -11 -6 0
v -11 -5 0
v -10 -5 0
v -9 -6 0
v -10 -6 0
v -10 -5 0
v -9 -5 0
v -8 -6 0
v -9 -6 0
v -9 -5 0
v -8 -5 0
v -7 -6 0
v -8 -6 0
v -8 -5 0
v -7 -5 0
v -6 -6 0
v -7 -6 0
v -7 -5 0
v -6 -5 0
v -5 -6 0
v -6 -6 0
v -6 -5 0
v -5 -5 0
v -4 -6 0
v -5 -6 0
v -5 -5 0
v -4 -5 0
v -3 -6 0
v -4 -6 0
v -4 -5 0
v -3 -5 0
v -2 -6 0
v -3 -6 0
v -3 -5 0
v -2 -5 0
v -1 -6 0
v -2 -6 0
v -2 -5 0
v -1 -5 0
v 0 -6 0
v -1 -6 0
v -1 -5 0
v 0 -5 0
v -18 -7 0
v -19 -7 0
v -19 -6 0
v -18 -6 0
v -17 -7 0
v -18 -7 0
v -18 -6 0
v -17 -6 0
v -2 -8 0
v -3 -8 0
v -3 -7 0
v -2 -7 0
v -11 -9 0
v -12 -9 0
v -12 -8 0
v -11 -8 0
v -10 -9 0
v -11 -9 0
v -11 -8 0
v -10 -8 0
v -4 -11 0
v -5 -11 0
v -5 -10 0
v -4 -10 0
v -3 -11 0
v -4 -11 0
v -4 -10 0
v -3 -10 0
v -7 -12 0
v -8 -12 0
v -8 -11 0
v -7 -11 0
v -4 -12 0
v -5 -12 0
v -5 -11 0
v -4 -11 0
v -17 -13 0
v -18 -13 0
v -18 -12 0
v -17 -12 0
v -1 -13 0
v -2 -13 0
v -2 -12 0
v -1 -12 0
v 0 -13 0
v -1 -13 0
v -1 -12 0
v 0 -12 0
v -11 -14 0
v -12 -14 0
v -12 -13 0
v -11 -13 0
v -4 -14 0
v -5 -14 0
v -5 -13 0
v -4 -13 0
v -1 -14 0
v -2 -14 0
v -2 -13 0
v -1 -13 0
v 0 -14 0
v -1 -14 0
v -1 -13 0
v 0 -13 0
v -21 -15 0
v -22 -15 0
v -22 -14 0
v -21 -14 0
v -9 -15 0
v -10 -15 0
v -10 -14 0
v -9 -14 0
v -1 -15 0
v -2 -15 0
v -2 -14 0
v -1 -14 0
v 0 -15 0
v -1 -15 0
v -1 -14 0
v 0 -14 0
v -12 -16 0
v -13 -16 0
v -13 -15 0
v -12 -15 0
v -5 -16 0
v -6 -16 0
v -6 -15 0
v -5 -15 0
v -1 -16 0
v -2 -16 0
v -2 -15 0
v -1 -15 0
v 0 -16 0
v -1 -16 0
v -1 -15 0
v 0 -15 0
v -12 -17 0
v -13 -17 0
v -13 -16 0
v -12 -16 0
v 0 -17 0
v -1 -17 0
v -1 -16 0
v 0 -16 0
v -17 -18 0
v -18 -18 0
v -18 -17 0
v -17 -17 0
v -12 -18 0
v -13 -18 0
v -13 -17 0
v -12 -17 0
v -10 -18 0
v -11 -18 0
v -11 -17 0
v -10 -17 0
v -3 -18 0
v -4 -18 0
v -4 -17 0
v -3 -17 0
v -2 -18 0
v -3 -18 0
v -3 -17 0
v -2 -17 0
v 0 -18 0
v -1 -18 0
v -1 -17 0
v 0 -17 0
v -5 -19 0
v -6 -19 0
v -6 -18 0
v -5 -18 0
v 0 -19 0
v -1 -19 0
v -1 -18 0
v 0 -18 0
v -10 -20 0
v -11 -20 0
v -11 -19 0
v -10 -19 0
v -8 -20 0
v -9 -20 0
v -9 -19 0
v -8 -19 0
v -2 -20 0
v -3 -20 0
v -3 -19 0
v -2 -19 0
v 0 -20 0
v -1 -20 0
v -1 -19 0
v 0 -19 0
v -13 -21 0
v -14 -21 0
v -14 -20 0
v -13 -20 0
v -4 -21 0
v -5 -21 0
v -5 -20 0
v -4 -20 0
v 0 -21 0
v -1 -21 0
v -1 -20 0
v 0 -20 0
v -14 -22 0
v -15 -22 0
v -15 -21 0
v -14 -21 0
v -13 -22 0
v -14 -22 0
v -14 -21 0
v -13 -21 0
v -12 -22 0
v -13 -22 0
v -13 -21 0
v -12 -21 0
v -11 -22 0
v -12 -22 0
v -12 -21 0
v -11 -21 0
v -4 -22 0
v -5 -22 0
v -5 -21 0
v -4 -21 0
v -3 -22 0
v -4 -22 0
v -4 -21 0
v -3 -21 0
v -2 -22 0
v -3 -22 0
v -3 -21 0
v -2 -21 0
v 0 -22 0
v -1 -22 0
v -1 -21 0
v 0 -21 0
v -15 -23 0
v -16 -23 0
v -16 -22 0
v -15 -22 0
v -14 -23 0
v -15 -23 0
v -15 -22 0
v -14 -22 0
v -13 -23 0
v -14 -23 0
v -14 -22 0
v -13 -22 0
v -12 -23 0
v -13 -23 0
v -13 -22 0
v -12 -22 0
v -11 -23 0
v -12 -23 0
v -12 -22 0
v -11 -22 0
v -10 -23 0
v -11 -23 0
v -11 -22 0
v -10 -22 0
v -9 -23 0
v -10 -23 0
v -10 -22 0
v -9 -22 0
v -8 -23 0
v -9 -23 0
v -9 -22 0
v -8 -22 0
v -4 -23 0
v -5 -23 0
v -5 -22 0
v -4 -22 0
v -3 -23 0
v -4 -23 0
v -4 -22 0
v -3 -22 0
v -2 -23 0
v -3 -23 0
v -3 -22 0
v -2 -22 0
v -1 -23 0
v -2 -23 0
v -2 -22 0
v -1 -22 0
v 0 -23 0
v -1 -23 0
v -1 -22 0
v 0 -22 0
v -19 -24 0
v -20 -24 0
v -20 -23 0
v -19 -23 0
v -16 -24 0
v -17 -24 0
v -17 -23 0
v -16 -23 0
v -15 -24 0
v -16 -24 0
v -16 -23 0
v -15 -23 0
v -14 -24 0
v -15 -24 0
v -15 -23 0
v -14 -23 0
v -13 -24 0
v -14 -24 0
v -14 -23 0
v -13 -23 0
v -12 -24 0
v -13 -24 0
v -13 -23 0
v -12 -23 0
v -11 -24 0
v -12 -24 0
v -12 -23 0
v -11 -23 0
v -10 -24 0
v -11 -24 0
v -11 -23 0
v -10 -23 0
v -9 -24 0
v -10 -24 0
v -10 -23 0
v -9 -23 0
v -8 -24 0
v -9 -24 0
v -9 -23 0
v -8 -23 0
v -7 -24 0
v -8 -24 0
v -8 -23 0
v -7 -23 0
v -4 -24 0
v -5 -24 0
v -5 -23 0
v -4 -23 0
v -3 -24 0
v -4 -24 0
v -4 -23 0
v -3 -23 0
v -2 -24 0
v -3 -24 0
v -3 -23 0
v -2 -23 0
v -1 -24 0
v -2 -24 0
v -2 -23 0
v -1 -23 0
v 0 -24 0
v -1 -24 0
v -1 -23 0
v 0 -23 0
v -16 -25 0
v -17 -25 0
v -17 -24 0
v -16 -24 0
v -15 -25 0
v -16 -25 0
v -16 -24 0
v -15 -24 0
v -14 -25 0
v -15 -25 0
v -15 -24 0
v -14 -24 0
v -13 -25 0
v -14 -25 0
v -14 -24 0
v -13 -24 0
v -12 -25 0
v -13 -25 0
v -13 -24 0
v -12 -24 0
v -11 -25 0
v -12 -25 0
v -12 -24 0
v -11 -24 0
v -10 -25 0
v -11 -25 0
v -11 -24 0
v -10 -24 0
v -9 -25 0
v -10 -25 0
v -10 -24 0
v -9 -24 0
v -8 -25 0
v -9 -25 0
v -9 -24 0
v -8 -24 0
v -7 -25 0
v -8 -25 0
v -8 -24 0
v -7 -24 0
v -6 -25 0
v -7 -25 0
v -7 -24 0
v -6 -24 0
v -4 -25 0
v -5 -25 0
v -5 -24 0
v -4 -24 0
v -3 -25 0
v -4 -25 0
v -4 -24 0
v -3 -24 0
v -2 -25 0
v -3 -25 0
v -3 -24 0
v -2 -24 0
v -1 -25 0
v -2 -25 0
v -2 -24 0
v -1 -24 0
v 0 -25 0
v -1 -25 0
v -1 -24 0
v 0 -24 0

# Texture cooridinates (Count = 126)
vt 0.125 0.6666666
vt 0.15 0.6666666
vt 0.15 0.6944444
vt 0.125 0.6944444
vt 0 0.7222222
vt 0.025 0.7222222
vt 0.025 0.75
vt 0 0.75
vt 0.175 0.7222222
vt 0.2 0.7222222
vt 0.2 0.75
vt 0.175 0.75
vt 0.225 0.7222222
vt 0.225 0.75
vt 0.1 0.7777778
vt 0.125 0.7777778
vt 0.125 0.8055556
vt 0.1 0.8055556
vt 0.075 0.7777778
vt 0.075 0.8055556
vt 0.05 0.7777778
vt 0.05 0.8055556
vt 0.125 0.6388889
vt 0.15 0.6388889
vt 0.175 0.6944444
vt 0.15 0.7222222
vt 0.2 0.6944444
vt 0.225 0.6944444
vt 0.1 0.75
vt 0.125 0.75
vt 0.075 0.75
vt 0.05 0.7222222
vt 0.075 0.7222222
vt 0.05 0.75
vt 0.125 0.6111111
vt 0.15 0.6111111
vt 0.175 0.6666666
vt 0.25 0.5
vt 0.275 0.5
vt 0.275 0.5277778
vt 0.25 0.5277778
vt 0.475 0.8055556
vt 0.5 0.8055556
vt 0.5 0.8333333
vt 0.475 0.8333333
vt 0.45 0.8055556
vt 0.45 0.8333333
vt 0.225 0.5
vt 0.225 0.5277778
vt 0.125 0.5833334
vt 0.15 0.5833334
vt 0.175 0.6388889
vt 0.25 0.4722222
vt 0.275 0.4722222
vt 0.475 0.7777778
vt 0.5 0.7777778
vt 0.45 0.7777778
vt 0.225 0.4722222
vt 0.125 0.5555556
vt 0.15 0.5555556
vt 0.175 0.6111111
vt 0.25 0.4444444
vt 0.275 0.4444444
vt 0.225 0.4444444
vt 0.125 0.9444444
vt 0.15 0.9444444
vt 0.15 0.9722222
vt 0.125 0.9722222
vt 0.1 0.9444444
vt 0.1 0.9722222
vt 0.175 0.5833334
vt 0.2 0.4444444
vt 0.2 0.4722222
vt 0.1 0.4166667
vt 0.125 0.4166667
vt 0.125 0.4444444
vt 0.1 0.4444444
vt 0.075 0.4166667
vt 0.075 0.4444444
vt 0.475 0.75
vt 0.5 0.75
vt 0.45 0.75
vt 0.15 0.4166667
vt 0.15 0.4444444
vt 0.125 0.9166667
vt 0.15 0.9166667
vt 0.1 0.9166667
vt 0.075 0.9722222
vt 0.1 1
vt 0.075 1
vt 0.075 0.6666666
vt 0.1 0.6666666
vt 0.1 0.6944444
vt 0.075 0.6944444
vt 0.125 1
vt 0.15 0.5277778
vt 0.175 0.5277778
vt 0.175 0.5555556
vt 0.125 0.4722222
vt 0.15 0.4722222
vt 0.15 0.5
vt 0.125 0.5
vt 0.175 0.8333333
vt 0.2 0.8333333
vt 0.2 0.8611111
vt 0.175 0.8611111
vt 0.175 0.4722222
vt 0.2 0.5
vt 0.175 0.5
vt 0.05 0.5277778
vt 0.075 0.5277778
vt 0.075 0.5555556
vt 0.05 0.5555556
vt 0.05 0.6388889
vt 0.075 0.6388889
vt 0.05 0.6666666
vt 0.1 0.4722222
vt 0.25 0.8333333
vt 0.275 0.8333333
vt 0.275 0.8611111
vt 0.25 0.8611111
vt 0.125 0.5277778
vt 0.1 0.5277778
vt 0.1 0.5555556
vt 0.05 0.9722222
vt 0.05 1

# Normal
vn 0 0 -1

# Mesh description
g Room-02_mesh_0003

# Faces
f 1/1/1 2/2/1 3/3/1 4/4/1
f 5/1/1 6/2/1 7/3/1 8/4/1
f 9/1/1 10/2/1 11/3/1 12/4/1
f 13/1/1 14/2/1 15/3/1 16/4/1
f 17/1/1 18/2/1 19/3/1 20/4/1
f 21/1/1 22/2/1 23/3/1 24/4/1
f 25/1/1 26/2/1 27/3/1 28/4/1
f 29/1/1 30/2/1 31/3/1 32/4/1
f 33/1/1 34/2/1 35/3/1 36/4/1
f 37/1/1 38/2/1 39/3/1 40/4/1
f 41/1/1 42/2/1 43/3/1 44/4/1
f 45/5/1 46/6/1 47/7/1 48/8/1
f 49/9/1 50/10/1 51/11/1 52/12/1
f 53/10/1 54/13/1 55/14/1 56/11/1
f 57/10/1 58/13/1 59/14/1 60/11/1
f 61/10/1 62/13/1 63/14/1 64/11/1
f 65/9/1 66/10/1 67/11/1 68/12/1
f 69/10/1 70/13/1 71/14/1 72/11/1
f 73/15/1 74/16/1 75/17/1 76/18/1
f 77/19/1 78/15/1 79/18/1 80/20/1
f 81/19/1 82/15/1 83/18/1 84/20/1
f 85/19/1 86/15/1 87/18/1 88/20/1
f 89/19/1 90/15/1 91/18/1 92/20/1
f 93/19/1 94/15/1 95/18/1 96/20/1
f 97/21/1 98/19/1 99/20/1 100/22/1
f 101/23/1 102/24/1 103/2/1 104/1/1
f 105/23/1 106/24/1 107/2/1 108/1/1
f 109/23/1 110/24/1 111/2/1 112/1/1
f 113/23/1 114/24/1 115/2/1 116/1/1
f 117/23/1 118/24/1 119/2/1 120/1/1
f 121/23/1 122/24/1 123/2/1 124/1/1
f 125/23/1 126/24/1 127/2/1 128/1/1
f 129/23/1 130/24/1 131/2/1 132/1/1
f 133/23/1 134/24/1 135/2/1 136/1/1
f 137/23/1 138/24/1 139/2/1 140/1/1
f 141/23/1 142/24/1 143/2/1 144/1/1
f 145/3/1 146/25/1 147/9/1 148/26/1
f 149/25/1 150/27/1 151/10/1 152/9/1
f 153/10/1 154/13/1 155/14/1 156/11/1
f 157/27/1 158/28/1 159/13/1 160/10/1
f 161/27/1 162/28/1 163/13/1 164/10/1
f 165/25/1 166/27/1 167/10/1 168/9/1
f 169/10/1 170/13/1 171/14/1 172/11/1
f 173/29/1 174/30/1 175/16/1 176/15/1
f 177/31/1 178/29/1 179/15/1 180/19/1
f 181/31/1 182/29/1 183/15/1 184/19/1
f 185/32/1 186/33/1 187/31/1 188/34/1
f 189/19/1 190/15/1 191/18/1 192/20/1
f 193/19/1 194/15/1 195/18/1 196/20/1
f 197/21/1 198/19/1 199/20/1 200/22/1
f 201/35/1 202/36/1 203/24/1 204/23/1
f 205/35/1 206/36/1 207/24/1 208/23/1
f 209/35/1 210/36/1 211/24/1 212/23/1
f 213/35/1 214/36/1 215/24/1 216/23/1
f 217/35/1 218/36/1 219/24/1 220/23/1
f 221/35/1 222/36/1 223/24/1 224/23/1
f 225/35/1 226/36/1 227/24/1 228/23/1
f 229/35/1 230/36/1 231/24/1 232/23/1
f 233/35/1 234/36/1 235/24/1 236/23/1
f 237/35/1 238/36/1 239/24/1 240/23/1
f 241/35/1 242/36/1 243/24/1 244/23/1
f 245/2/1 246/37/1 247/25/1 248/3/1
f 249/1/1 250/2/1 251/3/1 252/4/1
f 253/1/1 254/2/1 255/3/1 256/4/1
f 257/1/1 258/2/1 259/3/1 260/4/1
f 261/1/1 262/2/1 263/3/1 264/4/1
f 265/1/1 266/2/1 267/3/1 268/4/1
f 269/1/1 270/2/1 271/3/1 272/4/1
f 273/1/1 274/2/1 275/3/1 276/4/1
f 277/1/1 278/2/1 279/3/1 280/4/1
f 281/1/1 282/2/1 283/3/1 284/4/1
f 285/38/1 286/39/1 287/40/1 288/41/1
f 289/42/1 290/43/1 291/44/1 292/45/1
f 293/46/1 294/42/1 295/45/1 296/47/1
f 297/48/1 298/38/1 299/41/1 300/49/1
f 301/50/1 302/51/1 303/36/1 304/35/1
f 305/50/1 306/51/1 307/36/1 308/35/1
f 309/50/1 310/51/1 311/36/1 312/35/1
f 313/50/1 314/51/1 315/36/1 316/35/1
f 317/50/1 318/51/1 319/36/1 320/35/1
f 321/50/1 322/51/1 323/36/1 324/35/1
f 325/50/1 326/51/1 327/36/1 328/35/1
f 329/50/1 330/51/1 331/36/1 332/35/1
f 333/50/1 334/51/1 335/36/1 336/35/1
f 337/50/1 338/51/1 339/36/1 340/35/1
f 341/50/1 342/51/1 343/36/1 344/35/1
f 345/24/1 346/52/1 347/37/1 348/2/1
f 349/23/1 350/24/1 351/2/1 352/1/1
f 353/23/1 354/24/1 355/2/1 356/1/1
f 357/23/1 358/24/1 359/2/1 360/1/1
f 361/23/1 362/24/1 363/2/1 364/1/1
f 365/23/1 366/24/1 367/2/1 368/1/1
f 369/23/1 370/24/1 371/2/1 372/1/1
f 373/23/1 374/24/1 375/2/1 376/1/1
f 377/23/1 378/24/1 379/2/1 380/1/1
f 381/23/1 382/24/1 383/2/1 384/1/1
f 385/53/1 386/54/1 387/39/1 388/38/1
f 389/55/1 390/56/1 391/43/1 392/42/1
f 393/57/1 394/55/1 395/42/1 396/46/1
f 397/58/1 398/53/1 399/38/1 400/48/1
f 401/59/1 402/60/1 403/51/1 404/50/1
f 405/36/1 406/61/1 407/52/1 408/24/1
f 409/35/1 410/36/1 411/24/1 412/23/1
f 413/35/1 414/36/1 415/24/1 416/23/1
f 417/35/1 418/36/1 419/24/1 420/23/1
f 421/35/1 422/36/1 423/24/1 424/23/1
f 425/35/1 426/36/1 427/24/1 428/23/1
f 429/35/1 430/36/1 431/24/1 432/23/1
f 433/35/1 434/36/1 435/24/1 436/23/1
f 437/35/1 438/36/1 439/24/1 440/23/1
f 441/35/1 442/36/1 443/24/1 444/23/1
f 445/62/1 446/63/1 447/54/1 448/53/1
f 449/55/1 450/56/1 451/43/1 452/42/1
f 453/57/1 454/55/1 455/42/1 456/46/1
f 457/64/1 458/62/1 459/53/1 460/58/1
f 461/65/1 462/66/1 463/67/1 464/68/1
f 465/69/1 466/65/1 467/68/1 468/70/1
f 469/51/1 470/71/1 471/61/1 472/36/1
f 473/50/1 474/51/1 475/36/1 476/35/1
f 477/50/1 478/51/1 479/36/1 480/35/1
f 481/50/1 482/51/1 483/36/1 484/35/1
f 485/50/1 486/51/1 487/36/1 488/35/1
f 489/50/1 490/51/1 491/36/1 492/35/1
f 493/50/1 494/51/1 495/36/1 496/35/1
f 497/72/1 498/64/1 499/58/1 500/73/1
f 501/74/1 502/75/1 503/76/1 504/77/1
f 505/74/1 506/75/1 507/76/1 508/77/1
f 509/78/1 510/74/1 511/77/1 512/79/1
f 513/80/1 514/81/1 515/56/1 516/55/1
f 517/82/1 518/80/1 519/55/1 520/57/1
f 521/75/1 522/83/1 523/84/1 524/76/1
f 525/85/1 526/86/1 527/66/1 528/65/1
f 529/87/1 530/85/1 531/65/1 532/69/1
f 533/88/1 534/70/1 535/89/1 536/90/1
f 537/88/1 538/70/1 539/89/1 540/90/1
f 541/88/1 542/70/1 543/89/1 544/90/1
f 545/91/1 546/92/1 547/93/1 548/94/1
f 549/91/1 550/92/1 551/93/1 552/94/1
f 553/91/1 554/92/1 555/93/1 556/94/1
f 557/91/1 558/92/1 559/93/1 560/94/1
f 561/70/1 562/68/1 563/95/1 564/89/1
f 565/96/1 566/97/1 567/98/1 568/60/1
f 569/99/1 570/100/1 571/101/1 572/102/1
f 573/91/1 574/92/1 575/93/1 576/94/1
f 577/103/1 578/104/1 579/105/1 580/106/1
f 581/107/1 582/73/1 583/108/1 584/109/1
f 585/110/1 586/111/1 587/112/1 588/113/1
f 589/103/1 590/104/1 591/105/1 592/106/1
f 593/91/1 594/92/1 595/93/1 596/94/1
f 597/107/1 598/73/1 599/108/1 600/109/1
f 601/110/1 602/111/1 603/112/1 604/113/1
f 605/114/1 606/115/1 607/91/1 608/116/1
f 609/114/1 610/115/1 611/91/1 612/116/1
f 613/101/1 614/109/1 615/97/1 616/96/1
f 617/77/1 618/76/1 619/99/1 620/117/1
f 621/91/1 622/92/1 623/93/1 624/94/1
f 625/107/1 626/73/1 627/108/1 628/109/1
f 629/70/1 630/68/1 631/95/1 632/89/1
f 633/91/1 634/92/1 635/93/1 636/94/1
f 637/114/1 638/115/1 639/91/1 640/116/1
f 641/91/1 642/92/1 643/93/1 644/94/1
f 645/91/1 646/92/1 647/93/1 648/94/1
f 649/107/1 650/73/1 651/108/1 652/109/1
f 653/91/1 654/92/1 655/93/1 656/94/1
f 657/107/1 658/73/1 659/108/1 660/109/1
f 661/91/1 662/92/1 663/93/1 664/94/1
f 665/118/1 666/119/1 667/120/1 668/121/1
f 669/91/1 670/92/1 671/93/1 672/94/1
f 673/107/1 674/73/1 675/108/1 676/109/1
f 677/103/1 678/104/1 679/105/1 680/106/1
f 681/91/1 682/92/1 683/93/1 684/94/1
f 685/107/1 686/73/1 687/108/1 688/109/1
f 689/96/1 690/97/1 691/98/1 692/60/1
f 693/99/1 694/100/1 695/101/1 696/102/1
f 697/99/1 698/100/1 699/101/1 700/102/1
f 701/122/1 702/96/1 703/60/1 704/59/1
f 705/96/1 706/97/1 707/98/1 708/60/1
f 709/99/1 710/100/1 711/101/1 712/102/1
f 713/122/1 714/96/1 715/60/1 716/59/1
f 717/107/1 718/73/1 719/108/1 720/109/1
f 721/96/1 722/97/1 723/98/1 724/60/1
f 725/123/1 726/122/1 727/59/1 728/124/1
f 729/110/1 730/111/1 731/112/1 732/113/1
f 733/110/1 734/111/1 735/112/1 736/113/1
f 737/111/1 738/123/1 739/124/1 740/112/1
f 741/99/1 742/100/1 743/101/1 744/102/1
f 745/99/1 746/100/1 747/101/1 748/102/1
f 749/122/1 750/96/1 751/60/1 752/59/1
f 753/107/1 754/73/1 755/108/1 756/109/1
f 757/110/1 758/111/1 759/112/1 760/113/1
f 761/111/1 762/123/1 763/124/1 764/112/1
f 765/99/1 766/100/1 767/101/1 768/102/1
f 769/123/1 770/122/1 771/59/1 772/124/1
f 773/125/1 774/88/1 775/90/1 776/126/1
f 777/96/1 778/97/1 779/98/1 780/60/1
f 781/123/1 782/122/1 783/59/1 784/124/1
f 785/110/1 786/111/1 787/112/1 788/113/1
f 789/110/1 790/111/1 791/112/1 792/113/1
f 793/110/1 794/111/1 795/112/1 796/113/1
f 797/110/1 798/111/1 799/112/1 800/113/1
f 801/110/1 802/111/1 803/112/1 804/113/1
f 805/110/1 806/111/1 807/112/1 808/113/1
f 809/111/1 810/123/1 811/124/1 812/112/1
f 813/122/1 814/96/1 815/60/1 816/59/1
f 817/107/1 818/73/1 819/108/1 820/109/1
f 821/110/1 822/111/1 823/112/1 824/113/1
f 825/110/1 826/111/1 827/112/1 828/113/1
f 829/110/1 830/111/1 831/112/1 832/113/1
f 833/110/1 834/111/1 835/112/1 836/113/1
f 837/107/1 838/73/1 839/108/1 840/109/1
f 841/110/1 842/111/1 843/112/1 844/113/1
f 845/110/1 846/111/1 847/112/1 848/113/1
f 849/110/1 850/111/1 851/112/1 852/113/1
f 853/110/1 854/111/1 855/112/1 856/113/1
f 857/110/1 858/111/1 859/112/1 860/113/1
f 861/110/1 862/111/1 863/112/1 864/113/1
f 865/110/1 866/111/1 867/112/1 868/113/1
f 869/110/1 870/111/1 871/112/1 872/113/1
f 873/111/1 874/123/1 875/124/1 876/112/1
f 877/122/1 878/96/1 879/60/1 880/59/1
f 881/107/1 882/73/1 883/108/1 884/109/1
f 885/110/1 886/111/1 887/112/1 888/113/1
f 889/110/1 890/111/1 891/112/1 892/113/1
f 893/110/1 894/111/1 895/112/1 896/113/1
f 897/110/1 898/111/1 899/112/1 900/113/1

