# Tiled2Unity generated file. Do not modify by hand.
# Wavefront file for 'HouseInteriour.R00_mesh_0002.obj'

# Vertices (Count = 124)
v -14 -7 0
v -15 -7 0
v -15 -6 0
v -14 -6 0
v -13 -7 0
v -14 -7 0
v -14 -6 0
v -13 -6 0
v -12 -7 0
v -13 -7 0
v -13 -6 0
v -12 -6 0
v -11 -7 0
v -12 -7 0
v -12 -6 0
v -11 -6 0
v -10 -7 0
v -11 -7 0
v -11 -6 0
v -10 -6 0
v -14 -8 0
v -15 -8 0
v -15 -7 0
v -14 -7 0
v -13 -8 0
v -14 -8 0
v -14 -7 0
v -13 -7 0
v -12 -8 0
v -13 -8 0
v -13 -7 0
v -12 -7 0
v -11 -8 0
v -12 -8 0
v -12 -7 0
v -11 -7 0
v -10 -8 0
v -11 -8 0
v -11 -7 0
v -10 -7 0
v -14 -9 0
v -15 -9 0
v -15 -8 0
v -14 -8 0
v -13 -9 0
v -14 -9 0
v -14 -8 0
v -13 -8 0
v -12 -9 0
v -13 -9 0
v -13 -8 0
v -12 -8 0
v -11 -9 0
v -12 -9 0
v -12 -8 0
v -11 -8 0
v -10 -9 0
v -11 -9 0
v -11 -8 0
v -10 -8 0
v -4 -9 0
v -5 -9 0
v -5 -8 0
v -4 -8 0
v -3 -9 0
v -4 -9 0
v -4 -8 0
v -3 -8 0
v -2 -9 0
v -3 -9 0
v -3 -8 0
v -2 -8 0
v -14 -10 0
v -15 -10 0
v -15 -9 0
v -14 -9 0
v -13 -10 0
v -14 -10 0
v -14 -9 0
v -13 -9 0
v -12 -10 0
v -13 -10 0
v -13 -9 0
v -12 -9 0
v -11 -10 0
v -12 -10 0
v -12 -9 0
v -11 -9 0
v -10 -10 0
v -11 -10 0
v -11 -9 0
v -10 -9 0
v -4 -10 0
v -5 -10 0
v -5 -9 0
v -4 -9 0
v -3 -10 0
v -4 -10 0
v -4 -9 0
v -3 -9 0
v -2 -10 0
v -3 -10 0
v -3 -9 0
v -2 -9 0
v -14 -11 0
v -15 -11 0
v -15 -10 0
v -14 -10 0
v -13 -11 0
v -14 -11 0
v -14 -10 0
v -13 -10 0
v -12 -11 0
v -13 -11 0
v -13 -10 0
v -12 -10 0
v -11 -11 0
v -12 -11 0
v -12 -10 0
v -11 -10 0
v -10 -11 0
v -11 -11 0
v -11 -10 0
v -10 -10 0

# Texture cooridinates (Count = 16)
vt 0.05 0.68
vt 0.075 0.68
vt 0.075 0.72
vt 0.05 0.72
vt 0.025 0.68
vt 0.025 0.72
vt 0 0.68
vt 0 0.72
vt 0.05 0.64
vt 0.075 0.64
vt 0.025 0.64
vt 0 0.64
vt 0.05 0.6
vt 0.075 0.6
vt 0.025 0.6
vt 0 0.6

# Normal
vn 0 0 -1

# Mesh description
g HouseInteriour.R00_mesh_0002

# Faces
f 1/1/1 2/2/1 3/3/1 4/4/1
f 5/5/1 6/1/1 7/4/1 8/6/1
f 9/5/1 10/1/1 11/4/1 12/6/1
f 13/5/1 14/1/1 15/4/1 16/6/1
f 17/7/1 18/5/1 19/6/1 20/8/1
f 21/9/1 22/10/1 23/2/1 24/1/1
f 25/11/1 26/9/1 27/1/1 28/5/1
f 29/11/1 30/9/1 31/1/1 32/5/1
f 33/11/1 34/9/1 35/1/1 36/5/1
f 37/12/1 38/11/1 39/5/1 40/7/1
f 41/9/1 42/10/1 43/2/1 44/1/1
f 45/11/1 46/9/1 47/1/1 48/5/1
f 49/11/1 50/9/1 51/1/1 52/5/1
f 53/11/1 54/9/1 55/1/1 56/5/1
f 57/12/1 58/11/1 59/5/1 60/7/1
f 61/1/1 62/2/1 63/3/1 64/4/1
f 65/5/1 66/1/1 67/4/1 68/6/1
f 69/7/1 70/5/1 71/6/1 72/8/1
f 73/9/1 74/10/1 75/2/1 76/1/1
f 77/11/1 78/9/1 79/1/1 80/5/1
f 81/11/1 82/9/1 83/1/1 84/5/1
f 85/11/1 86/9/1 87/1/1 88/5/1
f 89/12/1 90/11/1 91/5/1 92/7/1
f 93/13/1 94/14/1 95/10/1 96/9/1
f 97/15/1 98/13/1 99/9/1 100/11/1
f 101/16/1 102/15/1 103/11/1 104/12/1
f 105/13/1 106/14/1 107/10/1 108/9/1
f 109/15/1 110/13/1 111/9/1 112/11/1
f 113/15/1 114/13/1 115/9/1 116/11/1
f 117/15/1 118/13/1 119/9/1 120/11/1
f 121/16/1 122/15/1 123/11/1 124/12/1

